<?xml version="1.0" encoding="utf-8"?>
<!-- Generator: Adobe Illustrator 24.1.2, SVG Export Plug-In . SVG Version: 6.00 Build 0)  -->
<svg version="1.1" id="Warstwa_1" xmlns="http://www.w3.org/2000/svg" xmlns:xlink="http://www.w3.org/1999/xlink" x="0px" y="0px"
	 viewBox="0 0 500 500" style="enable-background:new 0 0 500 500;" xml:space="preserve">
<style type="text/css">
	.st0{fill:#222222;}
</style>
<path class="st0" d="M433.6,85.4c-0.7-0.9-1.6-2.1-3-2.1c-0.7,0-1.4,0.3-1.8,0.9c-0.6,0.7-0.6,1.4-0.5,2.1l-7.4-5.9l5.2,8.8
	c1.3,2.1,2.6,4.2,3.9,6.3c0.6,0.9,1.1,1.7,1.7,2.6c2.1,3.5,4.4,7.2,6.7,10.9c-1.3-1.6-2.8-3.2-4.5-5l-2.4-2.5
	c-0.5-0.5-1.1-1.1-1.7-1.6l-0.9-0.8c-1.3-1.2-2.7-2.5-3.9-3.7l-3.9-3.9c-1.3-1.3-2.6-2.6-3.8-3.9c-0.6-0.6-1.1-1.2-1.6-1.8
	c-0.7-0.8-1.4-1.5-2.1-2.3l-5.5-6c-1-1.2-2.2-2.3-3.2-3.3c-0.5-0.5-1.1-1.1-1.7-1.6c-0.5-0.5-1.1-1.1-1.6-1.6
	c-1.1-1.1-2.2-2.2-3.4-3.3l-7.7-6.9c-0.6-0.5-1.2-1-1.8-1.5l-0.9-0.7c-0.5-0.4-1.9-1.3-3.2-1c-0.8,0.1-1.4,0.6-1.7,1.3
	c-0.5,1.2,0.2,2.2,0.8,3c0.7,1,1.6,2,2.6,2.9c0.9,0.8,1.8,1.6,2.9,2.5c2.3,1.9,4.4,3.8,5.7,6.3c1.3,2.5,3.3,4.8,6.3,7.5
	c1.3,1.2,2.7,2.5,4.2,4.3c-0.5,0.1-0.9,0.3-1.3,0.7c-0.8,0.8-0.9,1.7-0.7,2.5c-1-0.6-1.9-1.5-2.9-2.4c-0.6-0.5-1.1-1.1-1.8-1.6
	c-2.1-1.7-4.2-3.6-7-6.2c-1.8-1.7-3.7-3.4-5.6-5l-2.4-2.1c-0.7-0.6-1.3-1.1-2-1.7l-2.9-2.2l-2.4,2.9c2.1,1.9,4.1,4,6.1,5.9
	c0.8,0.8,1.6,1.6,2.3,2.3l2.1,2.1c0.4,0.4,0.8,0.9,1.2,1.3c0.2,0.3,0.5,0.5,0.7,0.8l3.9,4.3c7.7,8.7,14.2,18.3,19.8,26.6l-6.2-5.3
	c-0.1-0.1-0.1-0.1-0.2-0.2c-0.7-0.8-1.4-1.6-2.1-2.4l-1.5-1.7c-1.1-1.3-2.4-2.7-4.3-4l-4.9-3.3l0.7,1.9l-1.3-1.4
	c-1.7-1.8-3.5-3.6-5.3-5.3c-0.2-0.1-15.4-14-19.3-12.3c-0.1-0.1-0.4-0.3-0.9-0.7c-0.9-0.7-1.7-1.4-2.5-2.2c-0.6-0.5-1.2-1.1-1.9-1.6
	c-0.1-0.1-0.2-0.2-0.3-0.3c-0.7-0.6-1.8-1.7-3.7-1.7l-4.6,0.1l3.3,3.2c1.8,1.7,3.5,3.5,5.1,5.6L363,82c0.3,0.4,0.6,0.7,0.8,1.1
	l1,1.5c0.4,0.6,1.9,2,7.1,6.8c2.8,2.6,6.6,6.1,7,6.6c0.8,1.3,1.7,2.6,2.7,3.9c0.8,1.2,1.7,2.4,2.9,3.8c1.1,1.4,2.2,2.7,3.3,4
	c1.1,1.4,2.2,2.7,3.3,4.1c0.4,0.5,0.8,1,1.2,1.4c-0.6-0.1-1.1,0.1-1.5,0.3c-0.4,0.2-0.6,0.5-0.8,0.8c-0.2-0.2-0.3-0.3-0.5-0.5
	c-0.6-0.6-1.2-1.3-1.8-1.9c-0.6-0.6-1.9-1.1-2.9-0.7c-0.5,0.2-1,0.6-1.2,1.2c-0.3,0.6-0.3,1.4,0,2.1c0.7,1.8,1.6,3.7,3,5.5
	c1.1,1.6,2.2,3.2,3.3,4.9c0.6,0.9,1.1,1.7,1.7,2.6c0.5,0.7,1,1.5,1.4,2.3c0.3,0.5,0.6,1,0.9,1.4c0.8,1.3,1.6,2.6,2.4,3.9
	c0.6,0.9,1.1,1.8,1.7,3l3.5,6.2l1.6,3.2c0.5,0.9,0.9,1.8,1.4,2.6c0.4,0.8,0.9,1.5,1.2,2.2c0.6,1.3,1.4,3.1,2,4.9
	c2.4,8.5,5.2,17,7.9,25.3l1.8,5.6c0.2,0.8,0.5,1.6,0.8,2.4c0.4,1.2,0.9,2.4,1.1,3.5l0.2,1c0.3,1.8,0.6,3.6,1.1,5.4
	c0.2,0.9,0.5,1.7,0.8,2.6l0.2,0.6c0.4,1.2,0.9,2.2,1.5,3.2c0.1,0.2,0.2,0.8,0.2,1.1l0,0.4c0,0.4,0.1,0.8,0.1,1.2
	c0,0.9,0.1,1.8,0.4,2.7c0.8,2.3,1.1,4.8,1.5,7.4c0.2,1.7,0.5,3.4,0.9,5.2c0.5,2.2,0.6,4,0.2,5.6c-0.4,1.9-0.4,3.9,0,6.5
	c0.2,1.3,0.3,2.7,0.4,4c0.2,1.8,0.4,3.6,0.6,5.4c0.3,2.1,0.3,4.1,0.1,6c-0.1,1.1-0.2,2.3-0.3,3.3c-0.1,1.1-0.2,2.3-0.3,3.4
	c-0.1,2,0,4.1,0.3,6.7c0.2,2.2,0.2,4.4-0.5,6.1c-0.2,0.5-0.5,1-0.6,1.5c-0.2,0.5-0.4,1-0.6,1.6c-0.3,0.9-0.5,2-0.7,3.1
	c-0.2,1-0.3,2-0.4,3c-0.1,0.9-0.2,1.9-0.4,2.8c-0.2,1.1-0.4,2.3-0.6,3.4c-0.5,2.7-1,5.5-1.7,8.1l-0.1,0.4c-0.5,1.8-0.9,3.6-1.5,5.3
	c-0.7,2-1.4,3.8-2.1,5.6c-0.8,2.2-2,4.3-3.1,6.4c-0.3,0.7-0.7,1.3-1,2c-0.7,1.5-1.6,3-2.4,4.4c-0.7,1.3-1.5,2.6-2.2,3.9
	c-1.1,2.2-2.5,4.3-3.8,6.4l-2.8,4.3c-0.9,1.2-1.7,2.3-2.5,3.5c-0.7,1-1.4,2-2,3l-2,2.9c-1.4,1.9-2.7,3.9-4,5.8
	c-0.8,1.1-1.6,2.1-2.4,3.2c-0.6,0.8-1.2,1.6-1.8,2.4c-0.3,0.3-0.5,0.7-0.8,1c-0.4,0.6-0.8,1.2-1.3,1.7l-2.1,2.5
	c-0.6,0.5-1.2,0.9-1.7,1.4c-0.9,0.9-1.8,1.7-2.8,2.5c-1.2,1.1-2.5,2.2-3.7,3.4c-0.8,0.8-1.6,1.6-2.3,2.4l-2.4,2.3
	c-0.5,0.4-0.9,0.9-1.3,1.3c-1.2,1.1-2.3,2.2-3.5,3.2c-1.5,1.2-2.9,2.4-4.3,3.6c-0.3,0.3-0.6,0.5-0.9,0.8c-0.4,0.3-0.8,0.7-1.2,1
	l-2.2,1.7c-1.5,1.2-2.9,2.4-4.3,3.5l-4.5,3.4c-2.4,1.9-5.1,3.7-8.1,5.3l-4.4,2.2c-1.5,0.7-3,1.5-4.5,2.3c-0.9,0.5-1.9,1-2.9,1.4
	c-0.5,0.2-1,0.5-1.5,0.7l-4.4,2.1l-0.9,0.4c-2.4,1.1-5,2.2-7.4,3.3c-2.2,1-5.1,2.2-8,3.7c0,0-0.1,0-0.1,0c-1.7,0-3.3,0.2-5.3,0.6
	c-0.9,0.2-1.7,0.5-2.6,0.7c-0.7,0.2-1.5,0.4-2.2,0.6c-1.2,0.3-2.3,0.6-3.5,0.9c-1.5,0.4-3.1,0.9-4.6,1.2l-1.9,0.4
	c-2,0.4-4.2,0.9-6.2,1.2l-8,1.1l-8,0.7c-1.7,0.1-3.4,0.1-5.1,0.2l-2,0c-0.8,0-1.5,0-2.2,0l-3.1-0.2c-0.8-0.1-1.5-0.1-2.3-0.1
	c-1.3-0.1-2.6-0.1-3.9-0.3c-2.1-0.2-4.2-0.5-6.3-0.6c-1-0.1-2-0.2-2.9-0.3l-0.7-0.1c-1.3-0.1-2.5-0.2-3.7-0.3
	c-0.6,0-1.3-0.1-1.9-0.1c-0.6,0-1.2,0-1.8-0.1c-1.3-0.1-2.6-0.1-3.8-0.1c-0.9,0-1.9,0-2.8,0l-1.3,0l-1.4-0.1
	c-1.9-0.2-3.7-0.4-5.7-0.7c-0.7-0.1-1.4-0.2-2.1-0.4c-1-0.2-2-0.4-3.1-0.5c-1.4-0.1-2.8-0.2-4.3-0.4c-1.1-0.1-2.1-0.4-3.3-0.6
	l-0.9-0.2c-1.4-0.3-2.8-0.7-4.2-1.1c-0.9-0.3-1.9-0.6-2.8-1l-1.2-0.5c-7.7-2.8-15.9-5.9-23.1-10.2c-0.7-0.5-1.5-0.9-2.2-1.2
	c-7.8-3.8-15-9-22-14.1l-2.5-1.8c-6.1-4.4-12.1-10-19.1-17.7c-0.9-0.9-1.8-1.9-2.7-3c-0.9-1.1-1.9-2.2-2.9-3.2
	c-5.6-5.8-10.3-12.6-14.8-19.2c-1.1-1.7-2.3-3.3-3.4-4.9c-0.3-0.4-0.5-0.8-0.7-1.2c-0.2-0.4-0.4-0.7-0.6-1.1c-1.3-2-2.4-4.1-3.5-6.2
	c-0.6-1.1-1.2-2.3-1.9-3.4c-0.6-1.1-1.1-2.2-1.7-3.3c-0.4-0.8-0.8-1.6-1.1-2.3l-0.6-1.2c-0.3-0.6-0.6-1.1-0.8-1.6l-3-6.8
	c-0.3-0.7-0.6-1.4-0.9-2.1c-0.2-0.6-0.4-1.1-0.7-1.6c-3-7.3-6.7-17-8.7-27.2c-0.2-0.8-0.4-1.7-0.5-2.7c-0.1-0.4-0.1-0.8-0.2-1.2
	l-0.6-4c-0.1-1-0.2-2-0.3-3l-0.2-4.2l0-2c0-0.7,0.1-1.3,0.2-2c0.2-2.1,0.4-4.2,0.5-6.3c0.2-2,0.3-4.2,0.4-6.3c0-1.2,0.1-2.5,0.1-3.7
	c0-0.8,0.1-1.6,0.1-2.4c0-1,0-2.1,0-3.1l0-0.7c0-0.3,0-0.6,0-0.8l0-1.4c0.5-2.3,0.9-4.3,1.1-6.3l1.1-7c0.1-1,0.4-2,0.6-3.1l2.3-9.6
	c1.8-7.6,3.7-15.4,5.7-23.1c0.5-1.9,1-3.7,1.6-5.5c0.5-1.5,1.1-3,1.7-4.5l1.3-3.5l3.7-7.8c1-1.8,2.1-3.7,3.2-5.5
	c0.8-1.4,1.7-2.7,2.6-4.1l4.3-6.5c1.3-1.9,2.4-3.7,3.5-5.6c0.2-0.4,0.7-0.9,1-1.2c1.1-1.1,2.2-2.3,3.4-3.8c0.4-0.5,0.8-1,1.2-1.5
	l1.9-2.3c1.2-1.5,2.5-3,3.7-4.4l4.1-4.3c0.3-0.3,0.6-0.6,0.9-0.9c0.4-0.4,0.7-0.8,1.1-1.2c0.7-0.7,1.4-1.4,2.1-2.1
	c0.9-0.9,1.7-1.8,2.5-2.8c0.5-0.6,1-1.1,1.5-1.7c1.3-1.4,2.8-2.5,4.7-3.5c0.3-0.2,0.6-0.3,0.9-0.4c0.9-0.4,2-0.9,2.7-1.8
	c2-2.1,3.9-3.7,5.8-5.1c1.4-1,2.8-2.1,4.1-3.1c0.8-0.6,1.5-1.2,2.4-1.8c0.9-0.7,1.9-1.5,2.9-2.2c0.5-0.3,1-0.6,1.4-0.9
	c0.5-0.3,1-0.5,1.5-0.6c1.9-0.7,3.7-1.5,5.4-2.2l1.6-0.7c1.7-0.7,3.4-1.5,5.1-2.3l1.7-0.8c9.2-4.1,19.5-7.3,30.6-9.6
	c1.6-0.3,3.2-0.6,4.8-0.9c1-0.2,2-0.4,2.9-0.6c1.2-0.2,2.4-0.4,3.7-0.6c1.4-0.2,2.8-0.5,4.1-0.7l1.5-0.2c2-0.2,4.1-0.4,6-0.9
	c2.5-0.5,5-0.8,7.1-1c1.4-0.1,2.7-0.2,4.1-0.2c1.1,0,2.2-0.1,3.3-0.1c0.9-0.1,1.8-0.1,2.7-0.1l4,0c1.5,0,3,0,4.5,0.1l5.6,0.2l17,1.5
	l-6.2-2.7l5.3,0.7c0.1,0,0.2,0,0.2,0c0.6,0.1,1.6,0.3,2.5-0.4c0.5-0.4,0.8-1.1,0.9-1.8c0-0.4,0-1.3-0.9-2.1l6.8-0.8l-6.7-2.8
	c-1.7-0.7-3.4-1.2-5-1.7c-0.8-0.2-1.6-0.4-2.4-0.7c-3.4-1-6.6-1.6-9.7-2l0,0c1.7,0,3.4-0.1,5.5-0.3l2.7-0.2c0.5,0,1.1-0.1,1.6-0.1
	l1-0.1c1.4-0.1,2.8-0.1,4.2-0.1l2.1,0c0.5,0,1.1,0.1,1.6,0.1l0.4,0c1.4,0.1,2.8,0.3,4.2,0.5c1.4,0.2,2.7,0.5,4,0.9l6.2,1.9
	c1,0.3,2.1,0.7,3.1,1c0.6,0.2,1.3,0.5,1.9,0.7c0.6,0.2,1.3,0.4,1.9,0.7c1,0.4,2.1,0.7,3.1,1.1l7.5,3c0.5,0.2,1,0.4,1.4,0.6
	c0.3,0.1,0.6,0.3,0.9,0.4c0.7,0.3,2.2,0.6,3.2,0l0,0c0.6-0.4,1-1,1.1-1.6c0.1-1.2-0.7-1.9-1.2-2.4c-0.7-0.7-1.6-1.4-2.8-2
	c-1-0.5-2-0.8-2.9-1.2c-2.5-0.9-4.3-1.8-5.9-3.2c-1.8-1.6-4.2-2.7-7.4-3.6c-0.5-0.1-1-0.2-1.4-0.4c-1.1-0.3-2.1-0.5-3.2-0.9
	c0.4-0.3,0.6-0.7,0.8-1.3c0.2-1.1-0.1-1.9-0.7-2.5c1,0,2.1,0.2,3.3,0.5c0.6,0.1,1.3,0.3,1.8,0.4c2.3,0.5,4.7,1.1,7.8,2.1
	c1.5,0.5,3,1.1,4.5,1.7c1.1,0.4,2.1,0.8,3.2,1.2c0.4,0.2,0.8,0.3,1.2,0.5c0.6,0.2,1.1,0.4,1.7,0.7l17.3,6.6l1.6-3.3
	c-1.9-1.1-8.1-3.7-16-6.9c-3.6-1.5-6.8-2.8-7.9-3.3l-2.4-1.1c-0.6-0.3-1.1-0.5-1.7-0.7l-5.7-2.3c-10.7-4.2-19.8-7.4-29.5-9.3
	l4.7-0.7c1.2,0.1,2.4,0.2,3.5,0.4c0.8,0.1,1.6,0.3,2.4,0.4c0.6,0.1,1.1,0.2,1.7,0.3l1,0.2c1.6,0.3,3.5,0.7,5.7,0.5l5.8-0.3l-0.5-0.3
	c0.2,0.1,0.5,0.1,0.7,0.2c2.3,0.6,4.6,1.1,6.9,1.9c3.5,1.1,5.9,0.7,7.3-1.3c0.2,0,0.5,0.1,1,0.2c1.1,0.4,2.1,0.8,3.2,1.2
	c0.8,0.3,1.6,0.6,2.4,0.9c0.2,0.1,0.3,0.1,0.5,0.2c0.9,0.4,2.3,1,4.1,0.4l4.6-1.6l-4.5-1.9c-2.3-1-4.7-2.2-7-3.6l-1.7-1l-1.7-0.9
	c-1.1-0.6-2.2-1.3-3.2-2c-1.4-0.9-2.9-1.7-4.6-2.5c-1.4-0.6-2.8-1.2-4.8-1.8c-1.8-0.6-3.6-1.2-5.5-1.8c-1.8-0.5-3.7-0.9-5.6-1.3
	c-0.6-0.1-1.2-0.3-1.8-0.4c-0.1,0-0.2-0.1-0.3-0.1c0.5-0.3,0.8-0.7,1-1.2c0.1-0.4,0.2-0.8,0.1-1.1c0.3,0.1,0.7,0.1,1,0.2
	c1,0.2,1.9,0.3,2.9,0.5c0.7,0.1,2.1-0.1,2.8-1c0.4-0.5,0.5-1.1,0.4-1.7c-0.2-0.7-0.7-1.4-1.4-1.8c-1.8-1-4.1-2-6.8-2.8
	c-2.2-0.5-4.4-1-6.7-1.5c-1.3-0.3-2.6-0.6-3.8-0.9c-1.3-0.3-2.6-0.5-3.9-0.7c-0.5-0.1-1-0.2-1.6-0.3c-1.8-0.3-3.6-0.6-5.3-0.8
	c-1.4-0.2-2.8-0.4-4.2-0.5l-5.7-0.6c-1-0.1-2.1-0.2-3.2-0.3l-4.3-0.2c-2-0.1-4.1-0.1-6.2-0.1l-0.7,0c-1.9,0-4.3,0-6.6-0.2
	c-12.8-1.4-26.3-0.3-40.3,3.1c-1,0.3-2,0.5-3,0.8c-1.6,0.5-3.1,0.9-4.8,1.2l-0.6,0.1c-2.4,0.6-4.9,1.1-7.3,1.9l-0.2,0.1
	c-1.2,0.4-2.5,0.8-3.7,1.5c-1.3,0.7-2.5,1.4-3.7,2.2c-0.3,0.2-1.1,0.4-1.6,0.6l-0.5,0.1c-0.4,0.1-0.9,0.2-1.4,0.3
	c-1,0.2-2.2,0.4-3.1,1c-2,1.2-4.2,2.1-6.5,3.1c-2.7,1.1-5.4,2.3-7.9,3.9c-2,1.2-4.3,2.2-6.8,2.9c-2.2,0.6-4.4,1.6-7.1,3.3
	c-3.2,2.1-6.4,4.3-9.6,6.7l-0.2,0.1c-2,1.6-3.9,3.1-6.1,4.3c-1.2,0.7-2.4,1.4-3.6,2.2c-1.1,0.8-2.2,1.6-3.3,2.4
	c-1.7,1.4-4,3.3-6,5.6c-1.7,2-3.6,4.1-5.8,5.1c-0.6,0.3-1.2,0.6-1.8,0.9c-0.5,0.3-1.1,0.7-1.6,1.1c-0.9,0.7-1.9,1.5-2.9,2.4
	c-1.9,1.8-3.6,3.5-5.1,5.2c-0.9,1-1.8,1.9-2.6,2.9c-2.3,2.5-4.7,5.1-7,7.8c-1.2,1.4-2.4,2.8-3.7,4.2l-1.1,1.2
	c-1.6,1.9-3.1,3.7-4.7,5.4c-1.8,1.9-3.5,3.9-5.2,5.8c-0.8,0.9-1.6,1.9-2.4,2.8c-2.6,2.9-4.9,5.9-7.3,9.1c-1.5,2-3,4.1-4.4,6
	l-4.9,6.8c-0.9,1.5-1.9,3-2.8,4.5c-0.8,1.2-1.5,2.5-2.2,3.8l-1.1,2l-1,1.9c-1.3,2.6-2.6,5.2-3.8,7.9c-0.8,1.9-1.6,3.8-2.4,5.7
	l-1,2.4c-0.2,0.5-0.4,0.9-0.6,1.4c-0.4,0.9-0.7,1.8-1.1,2.7l-1.4,3.9c-0.5,0.8-0.9,1.6-1.3,2.4c-1.5,2.9-2.9,6.2-4.3,10.3
	c-0.5,1.4-0.9,2.7-1.3,4.2l-1,4.1c-0.3,1.4-0.7,2.8-1.1,4.2c-0.4,1.3-0.7,2.7-1,4c-0.5,2.3-1.1,4.6-1.5,6.9l-0.2,1
	c-0.2,0.8-0.4,1.7-0.5,2.5l-0.5,3.5c-0.3,2.3-0.6,4.6-0.9,7c-0.2,1.9-0.3,3.9-0.5,5.8l-0.1,1.2c-0.1,1.6-0.2,3.3-0.4,4.9
	c-0.2,2.5-0.3,5-0.6,7.4l-0.4,3.2l-0.2,3.1c-0.1,2.1-0.2,4.2-0.3,6.2c-0.1,1.6-0.1,3.3,0,4.9L10,259c0.2,3.3,0.5,6.8,1,11.5
	c0.5,3.5,1.2,7.2,2,11.1c0,0.1,0,0.1,0,0.2c0,0.1,0,0.2,0,0.3c-0.2,1.9-0.2,4,0.1,6.5c0.2,1.9,0.5,4.1,1.1,6.4l0.6,2.7
	c0.6,2.5,1.2,5.2,1.9,7.8l2.8,10.3l3,10l3.5,9.8l4.4,11.5l1.6,3.8c0.4,0.9,0.7,1.7,1.1,2.6c0.7,1.7,1.4,3.4,2.2,5
	c1.2,2.5,2.3,4.9,3.6,7.4c0.6,1.3,1.4,2.7,2.4,4.4c0.8,1.4,1.7,2.8,2.6,4.2l0.6,0.9c0.7,1.1,1.4,2.2,2.3,3.3c1,1.3,2.1,2.6,3.1,3.9
	c0.8,0.9,1.6,1.9,2.4,2.8l2.4,2.9c1.6,1.9,3.2,3.8,4.7,5.7c1.2,1.5,2.8,3.5,4.7,5.3c1.4,1.3,2.7,2.6,4.1,4c0.7,0.7,1.4,1.4,2,2
	c0.7,0.7,1.4,1.3,2.1,2.1c1.3,1.4,2.7,2.7,3.9,4.1c0.8,0.8,1.5,1.6,2.3,2.4c0.6,0.6,1.2,1.2,1.8,1.8l3.5,3.6
	c0.8,0.8,1.7,1.7,2.6,2.4l6.3,5.6l6.5,5.5c0.8,0.7,1.6,1.3,2.3,2c1.4,1.2,2.7,2.3,4.1,3.4c0.8,0.7,1.7,1.3,2.5,1.9l3.3,2.3
	c9.5,6.6,19.3,13.3,30.2,18.4c2,0.9,4,1.9,6,2.8c8.6,4.1,17.5,8.3,26.8,11.4c4,1.5,8,2.6,11.2,3.4c13.4,3.2,27.3,6.5,41.8,7.2
	c0.7,0,1.4,0.1,2.1,0.2c0.5,0.1,1.1,0.1,1.6,0.2c4.3,0.4,8.6,0.5,12.8,0.5l2.7,0c2.1,0,4.2-0.1,6.2-0.1c0.9,0,1.8-0.1,2.7-0.1
	l1.4-0.1c1,0,2-0.1,3.1-0.1L270,485c1.4-0.1,2.8-0.3,4.2-0.5l1.7-0.2c12.5-1.8,25.3-4.7,39-8.9c1.3-0.3,2.6-0.8,3.8-1.2
	c0.6-0.2,1.1-0.4,1.7-0.6l5.3-1.7c1.3-0.4,2.7-0.8,4-1.3l5.9-1.9l5.6-1.7c2.7-0.8,5.6-1.7,8.4-2.7c3-1.1,5.9-2.4,8.1-3.4
	c2.9-1.3,5.7-2.8,8-4.1c1.3-0.7,2.6-1.5,3.9-2.2l0.5-0.3c0.5-0.3,0.9-0.6,1.4-0.9l1.8-1.2c2.9-1.4,5.6-2.9,8.2-4.4
	c2.3-1.5,4.6-3,6.9-4.5l1.6-1.1c1.3-0.9,2.6-1.8,3.9-2.7l4.5-3.2c11.8-8.5,22.4-18.9,31.7-31l3.3-4.3l9.2-12.6l7.1-10.4
	c1.6-2.6,3.3-5.1,4.9-7.6c1.6-2.4,3.1-4.9,4.4-7.1c0.2-0.3,0.3-0.5,0.5-0.8l3.4-6.1l1-2.1c1.4-3,2.7-5.8,3.8-8.5
	c0.5-1.1,0.9-1.9,1.3-2.6c1-1.9,2.1-4,3.2-6.5c0.5-1.1,1-2.2,1.4-3.4l4.1-11.5l3-9.5c0.3-1,0.6-2,0.9-3c0.3-1.4,0.7-2.8,1-4.2
	l0.3-1.2c0.5-2.4,1.1-4.9,1.4-7.4c0.4-2.8,1.1-5.7,2.2-8.5c0.9-2.3,1.4-4.2,1.5-5.8c0.1-2.2,0.3-4.5,0.6-6.7c0.2-1.7,0.4-3.3,0.5-5
	c0.1-0.8,0.1-1.7,0.2-2.5c0.3-3.1,0.6-6.2,0.5-9.4c0-1.7,0-3.5,0-5.4c0-0.9,0.1-1.8,0.2-2.7l0-0.2c0.1-0.8,0.1-1.6,0.2-2.4
	c0.4-3,0.8-7,0.9-11.1c0-3.9-0.1-7.6-0.2-11.1c-0.9-16.9-3-33-6.5-47.9c-0.9-3.6-1.9-7.6-3.1-11.5l-0.7-2c-1-3.1-2-6.2-3.1-9.3
	l-0.8-2.1c-1-2.8-2.1-5.7-3.4-8.4c-1.5-2.8-3-5.9-4.9-9.9c-1.5-3.1-3.1-6.2-4.7-9.3l-0.3-0.6c-0.7-1.4-1.5-2.7-2.1-3.8l-2.6-4.4
	c-1.3-2.2-2.6-4.5-4.1-6.6l-4.7-7.2c-1.2-1.7-2.5-3.4-3.7-5.1l-10.8-14.9l4.1,9.7L433.6,85.4z M482.2,270.2c0.3,0.3,0.5,0.9,0.6,1.8
	c0.1,1-0.1,2.3-0.3,3.4c0,0,0,0,0,0l-0.1-1l-3,8c-0.1,0.2-0.1,0.4-0.2,0.6c0.4-2.5,0.6-5.1,0.5-7.7l-3.7-0.2l-1.4,8.7
	c-0.1,0.6-0.2,1.2-0.3,1.8l-2,9.6c-0.1,0.6-0.3,1.2-0.4,1.8l-0.2,1c-0.1,0.5-0.1,1-0.1,1.4l0,0.4l3,0.4l-1.4,6.1
	c-0.5,2.2-1,4.5-0.7,7.3l0.6,6.4c-0.4,1.3-0.8,2.5-1.3,3.9l-0.9,2.5c-0.2,0.6-0.5,1.2-0.7,1.8c-0.4-0.4-1-0.6-1.6-0.5
	c-0.5,0-1,0.3-1.5,0.6c0.2-0.4,0.3-0.7,0.5-1.1l3-7.6l-6,5.6c-1.3,1.2-2.2,2.4-3.2,4c-0.8,1.4-1.4,2.9-1.8,4.1
	c-0.2,0.5-0.4,1-0.5,1.5c-0.9,2.7-1.8,5.2-3.6,7c-0.9,0.9-1.5,2.2-1.9,3.2c-0.7,2.1-1.9,3.8-3.1,5.7l-0.3,0.4
	c-0.9,1.4-1.8,2.8-2.7,4.2c0.9-2.2,2.1-4.2,3.3-6.2c1.4-2.3,2.4-4.2,3.2-6.1c0.7-1.7,1.6-4.1,1.9-6.7c0.1-1.3,0.7-2.4,1.6-3.4
	c1-1.1,1.9-2.3,2.7-3.6c0.8-1.4,1.5-2.8,2-4.1c1.2-2.8,2.1-5.7,2.8-8.7c0.3-1.2,1-4.2-1.4-5.8c-0.1-0.1-0.3-0.8,0.1-2.4
	c0.9-3.1,1.4-6.2,1.9-9.2l0.1-0.9c0.2-1.5,0.5-3.1,0.6-4.7c0.1-1.6,0.2-3.3,0.2-4.9c0-2.7,0.9-4.8,2.5-6.2c2.4-2,2.9-7.3,1-9.7
	c-0.7-0.9-1.5-1.3-2.1-1.7l-0.2-0.1c-1.2-0.7-1.3-0.8-1-3.5l0-0.2c0.1-0.8,0.2-1.6,0.4-2.3c0.1-0.3,0.2-0.7,0.3-1
	c1.1,0.2,2.1-0.1,3-0.6l0,0.3c0.1,1,0.7,2.5,2.2,2.6c1.4,0.1,2.4-1.3,2.6-2.3c0.1-0.8,0.2-1.5,0.3-2.4c0.1-0.8,0.1-1.5,0.1-2.3
	c0-1.5,0-3-0.1-4.5c-0.1-1.2,0-2.4,0-3.7c0-1,0-1.9,0-2.8c0-0.2,0-0.3,0-0.4c0.7,0,1.7-0.2,2.3-1.1c0,0,0-0.1,0.1-0.1
	c0.2,0.2,0.3,0.3,0.5,0.4c0.7,0.4,1.5,0.4,2.2,0c0,0,0.1,0,0.1-0.1c0.1,1.3,0.3,2.6,0.3,4c0.1,2.9,0,6-0.2,10.2
	c-0.1,1.3,0,2.6,0.1,3.8c0,0.5,0,1.1,0.1,1.6C481.1,267.7,481.2,269.2,482.2,270.2z M411.2,331.6L411.2,331.6
	C411.2,331.6,411.3,331.5,411.2,331.6L411.2,331.6z M446.6,121.4C446.6,121.5,446.6,121.5,446.6,121.4
	C446.6,121.5,446.6,121.5,446.6,121.4C446.6,121.5,446.6,121.5,446.6,121.4z M436,234c-0.1-0.2-0.1-0.5-0.2-0.7
	c-0.3-1.3-0.3-2.7,0-4c0-0.1,0-0.2,0.1-0.3L436,234z M419.5,350L419.5,350c0-0.1,0.1-0.1,0.1-0.2c0.1,0.1,0.2,0.1,0.2,0.2l-0.2-0.2
	L419.5,350z M419.4,350.1C419.4,350.1,419.4,350.1,419.4,350.1L419.4,350.1L419.4,350.1L419.4,350.1z M419.7,350.4L419.7,350.4
	L419.7,350.4L419.7,350.4L419.7,350.4z M457.7,277.2l-0.4,0c0,0,0,0,0,0L457.7,277.2L457.7,277.2z M441.7,169.2l1.6,4.8
	c1.7,5.4,3.3,11.1,4.7,17.1c-0.1-0.5-0.3-1-0.4-1.6c-0.3-1-0.6-2-0.9-3c-0.4-1.3-0.8-2.7-1.2-4l-1-3.6c-0.3-1.1-0.7-2.3-1-3.5
	c-0.1-0.3-0.2-0.8-0.6-1.3c-0.2-0.3-0.4-0.5-0.7-0.8l-2.1-2.3c0-0.1-0.1-0.3-0.1-0.4l-0.1-0.5c-0.7-2-1.1-3.3-0.6-4.3
	c0.2-0.4,0.4-0.9,0.5-1.4L441.7,169.2z M453.1,215.5c0.1,0.5,0.2,0.9,0.2,1.4c0.2,1,0.3,1.9,0.4,2.9c0.2,1.5,0.3,2.9,0.4,4.4
	c0.2,2,0.3,4.1,0.5,6.3c-0.3-1-0.7-2-1.3-2.9c-0.1-2.1-0.5-4-0.9-5.5c-0.4-1.7-0.9-3.4-1.4-5c-0.3-1.1-0.3-1.8-0.1-2.2c0,0,0,0,0,0
	c1.1-1.8,1.1-4,0.8-6.1L453.1,215.5z M435.3,218.3l0.1,0.8c0.1,0.7,0.2,1.3,0.2,2l0,0.5c-0.2-1.2-0.4-2.2-0.5-3.2
	c-0.2-1.4-0.3-2.8-0.4-4.1c0-0.1,0-0.1,0-0.2C434.9,215.5,435.1,216.8,435.3,218.3z M455.6,246.3c0.2,6.9,0.2,14.1-0.2,21.2l0,0.7
	c0,1.2-0.1,2.3-0.5,3.2c-1.6,3.2-2.2,6.6-2.7,9.9c-0.2,1.2-0.4,2.4-0.6,3.7c-0.1,0.8-0.3,1.6-0.4,2.4c-0.2,1.2-0.4,2.4-0.7,3.6
	l-1.4,6c-0.3,1.2-0.6,2.1-0.9,2.9c-0.3,0.7-0.8,1.3-1.3,1.8c-1.9,1.5-2.7,3.8-3.3,6c-0.3,1-0.6,2-0.9,3c-0.4,1.4-0.8,2.8-1.1,4.2
	c-0.7,3-1.4,5.6-2.5,8.1l-3,7c-0.2,0.5-0.4,0.9-0.7,1.4l-2.6,5.4c-0.2,0.5-0.5,0.9-0.7,1.4c-0.5,1.1-1,2.1-1.6,3.1
	c-0.4,0.8-0.8,1.4-1.2,2c-0.2-0.5-0.6-1-1.3-1.3l-0.8-0.3l-0.5,0.2c-0.2-0.5-0.6-1-1.1-1.2c0.4-1.1,0.7-2.4-0.1-3.5
	c-0.4-0.6-0.2-1.3,0.8-3.2l0.4-0.7c0.9-1.7,1.8-3.4,2.7-5.1c0.6-1.2,1.2-2.4,1.8-3.6l0.8-1.7c0.3-0.6,0.6-1.3,0.9-1.9
	c0.5-1.1,1.1-2.3,1.6-3.4l2.2-5.4c0.8-1.9,1.6-4.3,1-6.6c-0.3-1.3-0.2-2.6-0.1-4.1l0.3,0.7l1.9-2.1c1.1-1.3,1.4-2.7,1.6-3.8
	c0-0.2,0.1-0.5,0.2-0.7l0.5-2.1c0.4-1.6,0.8-3.3,1.1-5l1.3-7c0.1-0.6,0.2-1.2,0.3-1.8c0.3-1.7,0.5-3.2,1.5-4.1
	c0.8-0.7,1.1-1.9,1.4-3.3c0.5-2.1,0.8-4.8,0-7.2c0.8,0.1,1.8-0.1,2.7-1.1c1.3-1.4,2-3.3,2.1-5.8l0.3-5.3c0.1-1.9,0.4-2.4,0.6-2.6
	C454.7,249.1,455.3,247.7,455.6,246.3z M440.8,269c0-0.2,0-0.5,0-0.8c0.1,0.5,0.1,1,0.2,1.4c0,0,0,0-0.1,0L440.8,269z M439.7,258.6
	c1.3,1.8,1.9,2.8,1.2,4.8c-0.1-0.5-0.3-1-0.6-1.5l-1.3-2.3l-1.5,1.8c0.1-0.1,0.1-0.2,0.1-0.2c0.9-1.1,1.3-2.3,1.5-3.6
	C439.2,257.9,439.4,258.2,439.7,258.6z M436.4,267.6l0,0.2c-0.1,1.7,0.5,2.7,1.9,3.2l0.2,0.1l0.1,2c0.1,2,0.2,4-0.1,5.9c0,0,0,0,0,0
	l-2.6-4l-0.6,3.3c0-0.5,0.1-1.1,0.1-1.7c0.1-1.7,0.3-3.4,0.5-5.1c0.2-1.6,0.3-3.1,0.4-4.7c0-0.5,0.1-0.9,0.1-1.3
	C436.3,266.2,436.3,266.9,436.4,267.6z M459.5,320c0-0.1,0.1-0.1,0.2-0.2c0.1,0,0.2,0,0.3,0l-0.4,0.5l-0.1-0.1
	C459.5,320.1,459.5,320,459.5,320z M475.4,220.8l-0.1-0.5c-0.2-1.4-0.4-2.7-0.6-4.2c-0.3-1.4-0.6-2.6-0.8-3.8
	c0.3-0.1,0.5-0.1,0.8-0.3c0,0,0,0,0,0l0.5,4.5c0.1,2,0.3,3.8,0.4,5.4C475.5,221.6,475.4,221.2,475.4,220.8z M429.1,302.4
	c0.6-1.9,1.1-3.8,1.6-5.7c0.1-0.3,0.1-0.6,0.2-0.9c0.2-1,0.4-1.6,0.6-1.9c0.1-0.3,0.3-0.4,0.5-0.4c0.1,0,0.1,0,0.2-0.1l-0.2,0.8
	c-0.2,0.8-0.4,1.5-0.6,2.2l-1.3,3.9c-0.7,1.9-1.3,3.7-2.1,5.4c0,0.1-0.1,0.1-0.1,0.2L429.1,302.4z M425.4,311.9
	c-0.2,0.4-0.3,0.8-0.5,1.2c-0.2,0.6-0.5,1.2-0.7,1.8l-2,4.4c-0.1,0.3-0.2,0.5-0.4,0.8c0.5-1.7,1-3.7-0.5-5.5c0,0-0.2-0.4,0-1.7
	c0-0.2,0.1-0.4,0.1-0.4c0,0,0.1,0,0.2,0c1.2,0,3.1-0.4,4.6-2.6C425.9,310.5,425.7,311.2,425.4,311.9z M463.2,337.6
	c0.6-1.5,1.2-3.1,1.9-4.6c0.1,0.2,0.1,0.4,0.2,0.6c0.4,0.7,1.2,1.1,2.1,1.1c0.1,0,0.2-0.1,0.3-0.1c0,0.1-0.1,0.1-0.1,0.2
	c-0.7,1.8-1.6,3.3-2.7,4.6c-0.2-0.2-0.5-0.3-0.8-0.4c-0.5-0.1-0.9-0.1-1.3,0.1L463.2,337.6z M429.1,141.2c-0.2-0.1-0.5-0.1-0.8-0.1
	c-0.5,0-1.2-1.1-1.8-2.1l-0.2-0.4c-0.9-1.5-1.7-3.1-2.6-4.6c-0.8-1.4-1.5-2.8-2.3-4.1c-0.5-0.8-0.9-1.6-1.4-2.5
	c-1.1-2.1-2.3-4.3-3.6-6.3c-0.4-0.6-0.7-1.1-1-1.6l1.2-0.1C421,126.5,425.2,133.7,429.1,141.2z M53.2,122.7l-0.2,0
	c0.1-0.1,0.1-0.1,0.2-0.2c0,0,0,0,0.1,0C53.3,122.6,53.3,122.6,53.2,122.7z M137.4,105.9l0.2-0.2l-5.3,1.9c-0.2,0.1-0.3,0.1-0.5,0.2
	c1.4-1.2,2.7-2.5,3.9-4l4.1-5.1c0.9,0.7,2,0.2,2.5-0.1l0.8-0.4l0.3-0.3c0.2-0.2,0.5-0.6,0.8-0.9l5.7-5.6l-5.7,1.9l1.3-1.6l-2.7,2.1
	L142,94c-0.5,0.1-1,0.3-1.6,0.7c-0.4,0.2-1.2,0.7-1.4,1.8c0,0,0,0.1,0,0.1l-11.1,8.5c-0.4,0.3-0.8,0.7-1.2,1l-5.5,4.8
	c-0.4,0.3-0.7,0.7-1.1,1l-0.6,0.5c-0.4,0.4-0.6,0.8-0.7,1.1l-0.1,0.2l-2.5,4.1l0.2-1.7l-4.2,4c-0.4,0.4-0.8,0.7-1.1,1.1
	c-0.5,0.5-0.9,1.3-0.7,2.2c0.2,0.7,0.8,1.3,1.5,1.5c0,0,0,0,0,0l-1.3,2.2l-4.5,1.3c-1.6,0.5-2.9,1.1-3.9,2c-1,0.9-1.7,1.9-2.3,2.8
	l-0.2,0.3c-1.2,2-2.4,3.9-4.2,5.1c-1,0.6-1.7,1.7-2.1,2.5c-0.4,0.9-1.1,1.7-1.8,2.6c-0.5,0.5-0.9,1.1-1.3,1.7c-0.8,1-1.5,2-2.3,3.1
	c0.6-1.5,1.5-3,2.8-4.5c1.4-1.7,2.5-3.1,3.3-4.4c0.9-1.5,1.7-3.1,2.3-5.1c0.3-0.8,0.8-1.5,1.6-1.9c1.1-0.6,2.1-1.3,3-2.1
	c0.8-0.7,1.8-1.5,2.7-2.4c1.5-1.5,2.8-3.2,4-4.9l0.5-0.7c0.6-0.7,2.3-3,0.7-5.4c-0.1-0.2,0.1-0.8,0.8-1.5c0.8-0.9,1.6-1.9,2.4-2.8
	c1-1.1,1.9-2.1,2.8-3.2c0.6-0.7,1.2-1.4,1.7-2.1l0.8-1c0.9-1,1.7-2.1,2.5-3.2c1.8-2.3,3.3-2.5,4.4-2.3c1.4,0.2,3-0.4,4.3-1.5
	c1.4-1.2,2.2-2.8,2.2-4.2c0-1-0.3-1.8-0.5-2.5l-0.1-0.2c-0.4-1.2-0.4-1.2,1.3-2.4l0.2-0.1c0.5-0.4,1.1-0.8,1.6-1
	c0.2-0.1,0.4-0.2,0.6-0.3c0.7,1.1,1.6,1.7,2.3,2c0,0.1-0.1,0.1-0.1,0.2c-0.6,0.6-1.2,2-0.4,3.2c0.8,1.1,2.4,1.1,3.3,0.6
	c0.5-0.3,1.1-0.7,1.5-1c0.5-0.3,1-0.7,1.5-1c1-0.7,1.9-1.5,2.8-2.2c1.2-0.9,2.6-2,4.1-2.8c0.4,0.7,1,1.4,2.1,1.5
	c0,0.2-0.1,0.4-0.1,0.5c0,0.8,0.3,1.5,1,1.9c0.1,0.1,0.2,0.1,0.3,0.2c-0.8,0.6-1.5,1.2-2.2,1.7c-2.1,1.7-4.3,3.1-6,4.2
	c-0.9,0.6-1.6,1.4-2.2,2.1c-0.3,0.3-0.5,0.6-0.8,0.9c-0.3,0.3-0.7,0.7-1.1,1.3c-0.3,0.5-0.5,1.2-0.5,1.9c0,0.2,0,0.5-0.3,0.8
	c-0.3,0.3-0.7,0.7-1.2,1C137.7,105.6,137.5,105.8,137.4,105.9z M102.4,138.6l0.4-0.6c0.6-0.8,1.2-1.7,1.9-2.6c0,0.3,0.1,0.5,0.2,0.8
	l0,0c0.3,0.7,1,1.2,1.8,1.3c0,0,0.1,0,0.1,0c-0.6,0.8-1.4,1.5-2.3,2c-0.3-0.4-0.6-0.6-0.9-0.7C103.2,138.6,102.8,138.5,102.4,138.6z
	 M101.2,75.7c0.4-0.5,0.8-0.9,1.2-1.3c2.5-2.2,5.4-4.8,8.4-7.3c0.4-0.3,0.8-0.6,1.2-0.9c-0.5,0.5-1.1,0.9-1.6,1.4l-0.2,0.1
	c-1.4,1.2-1.8,2.5-1.2,3.9l0.1,0.2l-0.6,0.7c-1.9,2.2-3.6,4.1-5.4,5.7l0.7-5L101.2,75.7z M92.1,97.1c1.6-0.6,2.6-1.7,3.4-2.5
	l0.5-0.5c0.7-0.7,1.4-1.4,2.1-2.1c1-1,2.1-2.1,3.1-3.1l5.6-5c1.7-1.6,3.4-3.2,5.2-3.2c1.1,0,2.1-0.7,3.3-1.6l0.6-0.4
	c1.7-1.3,3.5-2.6,4.5-4.5c0.5,0.7,1.2,1.3,2.6,1.4c2.2,0.2,4-1,5.7-2l4.4-2.8c0.5-0.3,1.8-1.1,2.3-1c1.5,0.6,3,0.4,4.4-0.1
	c-5.2,3.4-10.5,7.3-16,11.9c-0.3,0.2-0.5,0.4-0.8,0.6c-0.8,0.7-1.6,1.3-2.3,1.5c-4.5,1.5-7.9,4.8-10.8,7.6l-1.3,1.2
	c-1,0.9-2,1.8-3,2.8l-4,4.1c-0.8,0.8-1.5,1.4-2.1,1.8c-0.7,0.5-1.4,0.8-2,0.9c-2.3,0.4-4.1,2.1-5.5,3.7c-1.7,1.9-3.2,3.8-4.5,5.8
	c-1.1,1.8-2.3,3.4-3.6,5.1l-5.5,7.2c-0.3,0.4-0.6,0.9-0.9,1.3l-3.3,4.7c-0.3,0.4-0.6,0.8-0.8,1.2c-0.7,0.9-1.3,1.9-1.9,2.9
	c-0.4,0.7-0.8,1.2-1.2,1.7c-0.2-0.5-0.6-1-1.3-1.4l-0.8-0.4l-0.5,0.2c-0.1-0.6-0.5-1-1-1.3c0.5-1.2,0.8-2.4,0.1-3.5
	c-0.4-0.7,0-1.4,1.3-3.2l0.5-0.6c1.2-1.6,2.4-3.2,3.6-4.8c0.8-1,1.6-1.9,2.4-2.9c0.5-0.6,1-1.2,1.5-1.7c0.4-0.5,0.9-1.1,1.3-1.6
	c0.8-1,1.7-2,2.6-3l4.1-4.5c1.2-1.4,2.9-3.4,3.5-5.7c0.3-1.3,1-2.5,1.8-3.7l-0.1,0.5L92.1,97.1z M112.4,72c0.2-0.2,0.4-0.4,0.6-0.6
	c-0.1,0.2-0.3,0.3-0.4,0.5c-0.2,0.3-0.5,0.6-0.7,0.8c0,0,0,0,0,0L112.4,72z M60.5,142L60.5,142L60.5,142c0.1,0,0.1,0.1,0.2,0.1
	L60.5,142l-0.1,0.2l0,0C60.4,142.2,60.5,142.1,60.5,142L60.5,142z M103.1,122.6l-0.6,0.4l-0.1-0.3
	C102.7,122.6,103,122.5,103.1,122.6z M102,123.2L102,123.2l-0.1,0.2C101.9,123.4,101.9,123.3,102,123.2z M103.1,122.8l0-0.1
	C103.1,122.7,103.1,122.7,103.1,122.8C103.1,122.7,103.1,122.8,103.1,122.8z M168.2,78.3l3.2-1.7c0.9-0.4,1.6-0.8,2.3-1.2
	c0.1,0.2,0.3,0.4,0.4,0.6c-1,0.3-2,0.7-3,1.1c-1.4,0.6-2.7,1.1-3.8,1.7C167.6,78.7,167.9,78.5,168.2,78.3z M204.9,44.4
	c-5.9,1-11.1,2-16,3.3l0.9-0.3c2.2-0.6,4.4-1.2,6.8-1.7l0.2,0c1.1-0.2,2.1-0.5,3.2-0.7c1.2-0.2,2.3-0.3,3.5-0.4
	c0.3,0,0.8-0.1,1.4-0.4c0.3-0.2,0.5-0.3,0.8-0.5l2.6-1.8c0.1,0,0.3,0,0.4-0.1l0.3-0.1c2-0.2,3.4-0.4,4.2,0.4
	c0.4,0.3,0.8,0.7,1.3,0.9L204.9,44.4z M158.5,39.4c-0.4,0.2-0.9,0.3-1.3,0.5c-0.6,0.2-1.2,0.4-1.7,0.7l-0.5,0.2
	c1.2-0.6,2.4-1.1,3.4-1.5c1.5-0.6,3-1.1,4.6-1.6c0.1,0,0.1,0,0.2-0.1C161.6,38.2,160.1,38.8,158.5,39.4z M146.4,44.2
	c-1.5,0.6-3,1.3-4.4,2c0.2-0.2,0.4-0.3,0.6-0.4c1.2-0.8,2.6-1.6,4.4-1.9c0.1,0,0.2,0,0.3-0.1L146.4,44.2z M160.9,56.2
	c1-0.7,1.9-1.3,2.9-1.8c0.9-0.5,1.6-0.7,2-0.6c2,0.7,4,0.1,5.8-0.5c0,0-0.1,0-0.1,0.1l-5.7,2.5c-0.5,0.2-1,0.4-1.5,0.6
	c-0.8,0.3-1.6,0.7-2.4,1.1c-1.2,0.6-2.5,1.2-3.7,1.7c-1.9,0.8-3.7,1.7-5.6,2.7c0.8-0.7,1.6-1.5,2.2-2.4c1.9-0.7,3.5-1.7,4.8-2.6
	C160.1,56.8,160.5,56.5,160.9,56.2z M120.4,63.5l-0.3,0.7c-0.7,1.8-1.2,3-3.1,3.8c0.1-0.2,0.3-0.4,0.4-0.6c0.1-0.3,0.3-0.5,0.4-0.8
	l1-2.7l-2.9,0.2c0,0,0,0-0.1,0c0.4-0.1,0.8-0.3,1.3-0.3c1.3-0.2,2.6-0.6,3.8-1.3C120.7,62.7,120.5,63.1,120.4,63.5z M108.2,135.5
	c-0.1,0-0.3,0-0.4-0.1c0.2-0.1,0.4-0.2,0.5-0.4C108.4,135.2,108.4,135.3,108.2,135.5C108.3,135.4,108.3,135.5,108.2,135.5z
	 M108.8,131.8c-0.4-0.1-0.8,0-1.2,0.1c0.1-0.1,0.2-0.2,0.2-0.3l5.2-5.2l-2.3,0.7l2.1-2.1c0.4-0.1,0.8-0.3,1.3-0.8l0.2-0.2
	c0.3-0.3,0.6-0.6,0.9-1.2c0-0.1,0.1-0.2,0.1-0.3c-0.2,0.5-0.4,1-0.5,1.5l-1.2,4.9c-0.1,0.2-0.3,0.3-0.4,0.5c-0.5,0.6-1,1.2-1.5,1.8
	c-0.5,0.6-0.9,1.1-1.4,1.6C110.1,132.4,109.5,132,108.8,131.8z M115.6,122.2c0,0.1-0.1,0.2-0.1,0.3
	C115.5,122.4,115.5,122.3,115.6,122.2L115.6,122.2z M246,66.1C246,66.1,246,66.1,246,66.1C246,66.1,246,66.1,246,66.1L246,66.1z
	 M88.7,87.5C88.8,87.5,88.8,87.5,88.7,87.5c-0.3,0.4-0.7,0.7-1.1,1.1c-0.5,0.5-1.1,1-1.6,1.5l-2.6,2.7c-1.1,1.1-2.2,2.2-3.4,3.3
	c-0.6,0.6-1.3,1.2-2,1.9c0,0-0.1,0.1-0.1,0.1l2.8-3.1c1.5-1.7,3-3.3,4.6-5.1C87,88.3,87.9,87.3,88.7,87.5z M73.2,103.3l-0.7,0.8
	c-0.6,0.6-1.2,1.3-1.7,2l-4,5c1-1.7,2-3.6,1.2-5.6c0,0-0.1-0.5,0.6-2c0.3-0.6,0.5-0.8,0.5-0.8c0,0,0.1,0,0.3,0.1
	c1.1,0.3,3.1,0.5,5.4-1.3C74.3,102.1,73.8,102.7,73.2,103.3z M238.8,41c0.2-0.2,0.3-0.5,0.5-0.8c0.2-0.3,0.9-0.4,2.4-0.4l0.6,0
	c3.8,0,6.8,0.1,9.5,0.5l1,0.1c2.9,0.4,5.7,0.7,8.6,1.2c0.6,0.1,1.2,0.2,1.8,0.3l-0.7,0.9C254.6,41.7,246.7,41.1,238.8,41z"/>
</svg>
