<?xml version="1.0" encoding="utf-8"?>
<!-- Generator: Adobe Illustrator 24.1.2, SVG Export Plug-In . SVG Version: 6.00 Build 0)  -->
<svg version="1.1" id="Warstwa_1" xmlns="http://www.w3.org/2000/svg" xmlns:xlink="http://www.w3.org/1999/xlink" x="0px" y="0px"
	 viewBox="0 0 500 500" style="enable-background:new 0 0 500 500;" xml:space="preserve">
<style type="text/css">
	.st0{fill:#222222;}
</style>
<g>
	<path class="st0" d="M168.5,15.8c-0.1-0.1-0.1,0.2-0.2,0.4c-0.1,0.8-0.1,1.6-0.1,2.4c0,1.1,0,2.1-0.2,3.1c-0.2,0.9-0.2,1.9-0.2,3.1
		c0,1.5,0,3.1-0.2,4.5c-0.2-0.7-0.2-2-0.4-1.9c-0.4,0-0.2,1.4-0.3,2c0,0.1,0,0.1-0.1,0.1c-0.2-0.2-0.1-0.9-0.2-1.2
		c-0.4-0.9-0.3-2-0.4-3.2c-0.1-2.2-0.1-4.4-0.1-6.7c0-0.8,0-1.7,0-2.5c-0.2,2.8-0.3,5.6-0.4,8.3c-0.2,4.1-0.4,8.1-0.6,12.2
		c-0.1,4.9-0.2,9.7-0.2,14.6c0,3.3,0.1,6.6,0,9.9c0,4.1-0.1,8.3,0,12.4c0,2.1,0.1,4.3,0.1,6.4c0,5.3,0.2,10.6,0.4,15.8
		c0,0.6,0.1,1.2,0,1.7c-0.3,1.6-0.2,3.2-0.2,4.9c0,1.5,0.1,3,0.1,4.5c0,0.8,0,1.7-0.3,2.3c-0.2,0.6-0.2,1.3-0.2,2
		c0,0.9,0,1.8,0.1,2.7c0.1,1.1,0.1,2.1,0.1,3.2c0,2.5,0,5,0,7.4c0,0.7,0,1.3-0.2,1.9c-0.1,0.2-0.1,0.2-0.2,0.1
		c-0.1-0.2-0.2-0.7-0.3-0.7c-0.2,0.4,0,1.5-0.2,1.5c-0.3,0.1-0.2-1-0.3-1.4c0-0.2-0.1-0.1-0.1,0.1c-0.1,0.5-0.1,0.8-0.2,0.1
		c-0.1-0.5-0.1-1.4-0.2-1.5c-0.4-0.4-0.4-1.3-0.3-2.2c0-1.5,0.1-3,0.1-4.5c0-1.5,0.1-3,0.1-4.5c0-0.8,0-1.5-0.2-2.1
		c-0.3-1-0.3-2.2-0.5-3.4c-0.1-1.4-0.3-2.9-0.3-4.4c0-0.8-0.1-1.4-0.4-2c0.1,3.8,0.1,7.3,0,10.9c-0.1,3.4,0,6.9-0.2,10.4
		c-0.2,3.5-0.2,7-0.5,10.6c-0.1-0.3-0.1-0.4-0.1-0.5c-0.2-3.4-0.3-6.9-0.1-10.4c0.1-1.2,0.1-2.4,0.1-3.7c0-0.7-0.1-1.3-0.3-1.6
		c-0.2-0.2-0.3-0.6-0.3-1.1c-0.1-0.6,0-0.9,0.2-1.1c0.3-0.2,0.5-0.8,0.5-1.8c0-1.6,0-3.1,0-4.7c0-0.9-0.1-1.6,0.3-2
		c0.1-0.2,0.1-0.7,0.1-1.1c0-1.2-0.1-2.3-0.3-3.4c-0.1-0.5-0.1-1.1-0.2-1.7c-0.1-1.3-0.1-2.6-0.1-4c0-1-0.1-2,0.2-2.8
		c0.2-0.7,0.2-1.6,0.1-2.6c-0.1-0.7-0.2-1.3-0.1-2.1c0.4-0.1,0.7,0.5,0.8,1.7c0,0.6,0,1.4,0.2,1.8c0.3,0.7,0.6,1.4,0.4,2.8
		c0,0.2,0.1,0.6,0.1,0.9c0,0.4,0.1,0.8,0.1,1.2c0,0.6-0.1,0.7-0.3,0.6c0,0-0.1,0.1-0.2,0.1c0.1,1.2,0.3,2.3,0.2,3.6
		c0,0.3,0,0.7,0.1,0.9c0.2,0.7,0.1,1.3,0.1,2.1c-0.1,1.4-0.1,2.7,0.4,3.7c0.1-0.5,0.1-1,0.1-1.5c0-1.8,0-3.6-0.1-5.5
		c0-1-0.1-2,0.2-2.7c0.1-0.2,0.1-0.6,0.1-0.9c0-1,0-2-0.3-2.7c-0.1-0.1-0.1-0.5-0.1-0.7c0-0.3,0.1-0.3,0.2-0.2
		c0.2,0.2,0.4,0.4,0.6,0c0.2-0.5,0.2-1.1,0.2-1.8c0-0.7,0-1.3,0-2c0-0.6,0-1.2,0.2-1.5c0.3-0.5,0.3-1.3,0.3-2.1
		c-0.1-1.9,0.1-3.8-0.4-5.5c0-0.1,0-0.2,0-0.2c0-1.4-0.2-2.6-0.2-3.9c0-0.5,0-1,0.1-1.3c0.2-0.5,0.2-1.3,0.2-2c0-0.5,0-1,0-1.5
		c0-3.6-0.2-7.3,0-10.9c0-0.1,0-0.2,0-0.2c0-0.1-0.1-0.3-0.1-0.4c-0.1,0.2-0.1,0.4-0.2,0.6c-0.1-0.7-0.1-1.4-0.1-2.2
		c0-0.8,0-1.6,0.3-2.1c0.2-0.3,0.4-1.1,0.4-1.8c0-2,0.1-4,0-5.9c0-0.4,0-0.9-0.2-1c-0.3-0.3-0.3-1-0.3-1.8c0-2.5,0.1-4.9,0.2-7.4
		c0-1.5,0.1-3,0-4.5c0-1.1,0-2.1-0.1-3.2c0-0.7,0-1.5-0.1-2.4c-0.1,0.6-0.2,1.1-0.4,2c0-1.5,0-2.4,0-3.4c0-1.2,0-2.5,0-3.7
		c0-1-0.1-1.6-0.5-1.8c-0.2-0.1-0.3-0.5-0.3-1.1c0-0.7,0-1.5,0-2.2c0-0.4,0.1-0.8-0.1-1.2c-0.1,2.1-0.3,3.9-0.5,5.7
		c-0.2,1.2-0.2,2.3-0.3,3.6c-0.1,2.7-0.1,5.4-0.2,8.2c-0.1,5.8-0.3,11.5-0.4,17.3c0,1.2,0,2.3,0,3.5c0.1,2.4-0.1,4.8-0.1,7.2
		c0,0.2,0,0.3-0.1,0.5c0,0.1-0.1,0.2-0.1,0.2c0,0-0.1-0.1-0.1-0.3c-0.1-1.1-0.1-2.3,0-3.5c0.1-4.5,0.2-8.9,0.1-13.4
		c0-1.9-0.1-3.8,0-5.7c0.1-2.7,0-5.5,0.2-8.2c0-0.2,0-0.5-0.1-0.6c0,0-0.1,0.1-0.1,0.2c-0.3,0.6-0.4,0.5-0.4-0.4c0-0.6,0-1.2,0-1.7
		c0-0.1-0.1-0.3-0.1-0.3c0,0-0.1,0.1-0.1,0.2c-0.1,0.7-0.2,1.5-0.2,2.3c-0.1,2.5-0.2,4.9-0.3,7.4c0,2-0.1,3.9-0.1,5.9
		c0,1.5,0,3.1-0.1,4.7c-0.4,4.4-0.5,8.9-0.4,13.5c0,0.9,0.1,1.8,0.1,2.7c0,1.8-0.1,3.6,0.2,5.3c0,0.3,0,0.6,0,1c0,0.5-0.1,1,0,1.5
		c0.2,1.8,0.1,3.6,0.2,5.4c0.1,0.9,0.1,1.8,0,2.7c-0.1,0.8-0.1,1.6,0,2.4c0.1,1.3,0.1,2.6,0.2,3.9c0.1,0.9,0.1,1.8,0.1,2.7
		c-0.1,1.8,0,3.6,0.2,5.4c0.1,0.9,0.2,2,0.1,2.9c-0.2,1.6-0.1,3.3,0,4.9c0.1,3.3,0.3,6.5,0.2,9.9c0,2.6-0.2,5.2-0.2,7.9
		c0,2.4-0.2,4.8-0.2,7.1c-0.1,3.9,0,7.9,0,11.8c0,0.3-0.1,0.6-0.1,0.9c-0.1,1.2-0.1,2.4-0.2,3.7c0,1.9,0,3.8,0,5.7
		c0,1.6,0,3.2,0,4.9c-1.1,0-2.2,0-3.3-0.1c-4.6-0.1-9.3-0.1-13.9,0.1c-3.6,0.1-7.1,0.2-10.6,0.2c-3.9,0-7.8-0.2-11.6,0
		c-0.3,0-0.7,0-1,0c-1.5-0.1-3-0.1-4.5-0.1c-3.6,0-7.3,0-10.9,0.1c-1,0.1-2,0-2.9-0.1c-0.5-0.1-1.2-0.1-1.7-0.1
		c-2.5,0.2-5,0.1-7.4,0.2c-1.1,0.1-2.3,0.1-3.5,0c-2.3-0.2-4.6-0.2-6.9-0.2c-5,0-10.1-0.2-15.1-0.3c-2.5,0-4.9-0.1-7.4-0.1
		c-1.2,0-2.3,0-3.5,0c-2.3,0.1-4.6,0.1-6.9,0.1c-3.6,0-7.1,0.1-10.7,0.1c0.9,0.1,1.9,0,2.8,0.2c-0.2,0.2-0.5,0.2-0.8,0.2
		c-0.6,0-1.2,0-1.7,0c-1.7,0-3.3,0-5,0.1c-0.3,0-0.8,0-0.7,0.1c0,0.1,0.5,0.1,0.8,0.2c0.7,0,1.5,0,2.2,0c1.7,0,3.5,0,5.2,0.1
		c1.9,0.1,3.8,0.2,5.6,0.2c0.2,0,0.5,0,0.5,0.2c-1.1,0.1-2.3,0-3.4,0c-1.2,0-2.5,0-3.7,0c-1.2,0-2.3,0-3.5,0c-1.2,0-2.4,0-3.6,0.1
		c1.1,0.1,2.2,0.1,3.4,0.2c2.4,0.1,4.8,0.2,7.2,0.2c2.2-0.1,4.5,0,6.7,0c2,0,3.9,0.1,5.9,0.3c2.2,0.2,4.5,0.2,6.6,0
		c1.3-0.1,2.4-0.1,3.6,0.1c1.7,0.3,3.5,0.3,5.3,0.1c0.6-0.1,1.1-0.1,1.7-0.1c3.5,0,6.9,0.2,10.4,0c0.6,0,1.3,0,2,0c0.7,0,1.3,0,2,0
		c0.2,0,0.5-0.1,0.4-0.2c0,0-0.2-0.1-0.3-0.1c-1.2,0-2.3,0-3.5,0c-1.2,0-2.5,0-3.7,0c-0.2,0-0.5-0.1-0.5-0.1
		c-0.1-0.2,0.4-0.2,0.6-0.2c1.3,0,2.6,0,4,0c0.7,0,1.3,0.1,2,0c2.1-0.3,4.3-0.3,6.6-0.4c0.6,0,1.1-0.1,1.7-0.1
		c0.3,0,0.7-0.1,0.8-0.2c0.4-0.3,1.3-0.3,2.1-0.3c1.6,0,3.1,0,4.7,0c0.3,0,0.7,0,0.7,0.1c-0.8,0.2-1.9,0.1-2.9,0.3
		c2.5,0.3,5.1,0.2,7.7,0.2c0.7,0,1.5-0.1,2.2-0.3c-1.3-0.1-2.7,0-3.7-0.3c0.9-0.1,1.7-0.1,2.5-0.1c0.5,0,1,0,1.5,0
		c2.3-0.2,4.6-0.1,6.9-0.2c0.9,0,1.6,0.1,2.3,0.2c0.2,0.1,0.4,0.1,0.2,0.2c-0.5,0.2-0.1,0.3,0.4,0.4c0.6,0.1,1.3,0.2,2.3,0.3
		c-2.7,0.2-4.9,0.3-7.5,0.2c1,0.3,1.8,0.3,2.8,0.3c1.1-0.1,2.3-0.1,3.4,0.1c0.3,0.1,0.7,0.1,1,0c0.8-0.1,1.6,0,2.5,0
		c2.9,0.1,5.9,0.4,8.9,0.2c0.3,0,0.6,0,1,0.1c0.1,0,0.1,0,0.1,0.1c0,0,0,0.1-0.1,0.1c-0.4,0.1-0.7,0.1-1.1,0.2
		c-0.9,0.1-1.7,0.2-2.8,0c-0.9-0.2-2.1-0.1-3.1,0.1c-1.2,0.2-2.4,0.2-3.6,0.2c-1.5-0.1-3-0.1-4.4,0.2c-0.5,0.1-1.1,0.1-1.7,0
		c-1.8-0.4-3.8-0.3-5.7-0.2c-0.6,0-1.1,0.1-1.2,0.4c-0.1,0.3-0.7,0.4-1.4,0.4c-2.2,0-4.4,0.2-6.6,0.4c-1.1,0.1-2,0-2.8-0.3
		c-0.6-0.3-2-0.2-2.5,0.1c-0.2,0.1-0.3,0.3-0.4,0.4c-0.3,0.4-0.6,0.5-1.8,0.5c-0.3,0-0.7,0-1,0c-1.4-0.2-2.9-0.1-4.4-0.1
		c-0.4,0-0.8,0-1.2,0c-0.2,0-0.3,0-0.5,0c-0.1,0-0.2,0-0.1-0.1c0.1,0,0.2-0.1,0.2-0.1c1.7,0,3.4,0,5.2,0c0.2-0.6-0.6-0.7-1.9-0.7
		c-0.1,0-0.1,0-0.2-0.1c0.8-0.2,1.7-0.2,2.5-0.3c0.1,0,0.3-0.1,0.3-0.1c0,0-0.2-0.1-0.3-0.1c-1,0-2,0-3,0.1c-0.7,0-1.5,0.1-2.2,0.1
		c-0.4,0-0.8-0.1-0.8-0.2c0-0.3,0-0.4-0.9-0.2c-0.3,0.1-0.6,0.1-0.9,0.1c-1.2-0.1-2.3,0-3.4,0.1c-2,0.2-4.1,0.1-6.1,0.3
		c-1,0.1-1.9,0-2.6-0.3c0,0,0,0,0,0c0,0-0.1,0-0.1,0c0,0,0,0,0,0l0,0c0,0,0.1,0,0.1,0c-3.2,0.1-6.4,0.2-9.6-0.1
		c-0.4,0-0.8-0.1-1.2-0.1c-1.9,0.1-3.8-0.1-5.7,0c-4.1,0.1-8.2-0.3-12.3-0.2c-3.2-0.2-6.3,0.1-9.3,0.4c-2.4,0.2-4.8,0.4-7.3,0.4
		c-0.9,0-1.8,0-2.7,0c-3.1,0-6.1-0.1-9.2-0.1c-0.2,0-0.5,0-0.6,0.1c-0.1,0.1,0.2,0.1,0.4,0.2c0.8,0.1,1.6,0.1,2.4,0.1
		c1.1,0,2.1,0,3.1,0.2c0.9,0.2,1.9,0.2,3.1,0.2c1.5,0,3.1,0,4.5,0.2c-0.7,0.2-2,0.2-1.9,0.4c0,0.4,1.4,0.2,2,0.3
		c0.1,0,0.1,0,0.1,0.1c-0.2,0.2-0.9,0.1-1.2,0.2c-0.9,0.4-2,0.3-3.2,0.4c-2.2,0.1-4.4,0.1-6.7,0.1c-0.8,0-1.7,0-2.5,0
		c2.8,0.2,5.6,0.3,8.3,0.4c4.1,0.2,8.1,0.4,12.2,0.6c4.9,0.1,9.7,0.2,14.6,0.2c3.3,0,6.6-0.1,9.9,0c4.1,0,8.3,0.1,12.4,0
		c2.1,0,4.3-0.1,6.4-0.1c5.3,0,10.6-0.2,15.8-0.4c0.6,0,1.2-0.1,1.7,0c1.6,0.3,3.2,0.2,4.9,0.2c1.5,0,3-0.1,4.5-0.1
		c0.8,0,1.7,0,2.3,0.3c0.6,0.2,1.3,0.2,2,0.2c0.9,0,1.8,0,2.7-0.1c1.1-0.1,2.1-0.1,3.2-0.1c2.5,0,5,0,7.4,0c0.7,0,1.3,0,1.9,0.2
		c0.2,0.1,0.2,0.1,0.1,0.2c-0.2,0.1-0.7,0.2-0.7,0.3c0.4,0.2,1.5,0,1.5,0.2c0.1,0.3-1,0.2-1.4,0.3c-0.2,0-0.1,0.1,0.1,0.1
		c0.5,0.1,0.8,0.1,0.1,0.2c-0.5,0.1-1.4,0.1-1.5,0.2c-0.4,0.4-1.3,0.4-2.2,0.3c-1.5,0-3-0.1-4.5-0.1c-1.5,0-3-0.1-4.5-0.1
		c-0.8,0-1.5,0-2.1,0.2c-1,0.3-2.2,0.3-3.4,0.5c-1.4,0.1-2.9,0.3-4.4,0.3c-0.8,0-1.4,0.1-2,0.4c3.8-0.1,7.3-0.1,10.9,0
		c3.4,0.1,6.9,0,10.4,0.2c3.5,0.2,7,0.2,10.6,0.5c-0.3,0.1-0.4,0.1-0.5,0.1c-3.4,0.2-6.9,0.3-10.4,0.1c-1.2-0.1-2.4-0.1-3.7-0.1
		c-0.7,0-1.3,0.1-1.6,0.3c-0.2,0.2-0.6,0.3-1.1,0.3c-0.6,0.1-0.9,0-1.1-0.2c-0.2-0.3-0.8-0.5-1.8-0.5c-1.6,0-3.1,0-4.7,0
		c-0.9,0-1.6,0.1-2-0.3c-0.2-0.1-0.7-0.1-1.1-0.1c-1.2,0-2.3,0.1-3.4,0.3c-0.5,0.1-1.1,0.1-1.7,0.2c-1.3,0.1-2.6,0.1-4,0.1
		c-1,0-2,0.1-2.8-0.2c-0.7-0.2-1.6-0.2-2.6-0.1c-0.7,0.1-1.3,0.2-2.1,0.1c-0.1-0.4,0.5-0.7,1.7-0.8c0.6,0,1.4,0,1.8-0.2
		c0.7-0.3,1.4-0.6,2.8-0.4c0.2,0,0.6-0.1,0.9-0.1c0.4,0,0.8-0.1,1.2-0.1c0.6,0,0.7,0.1,0.6,0.3c0,0,0.1,0.1,0.1,0.2
		c1.2-0.1,2.3-0.3,3.6-0.2c0.3,0,0.7,0,0.9-0.1c0.7-0.2,1.3-0.1,2.1-0.1c1.4,0.1,2.7,0.1,3.7-0.4c-0.5-0.1-1-0.1-1.5-0.1
		c-1.8,0-3.6,0-5.5,0.1c-1,0-2,0.1-2.7-0.2c-0.2-0.1-0.6-0.1-0.9-0.1c-1,0-2,0-2.7,0.3c-0.1,0.1-0.5,0.1-0.7,0.1
		c-0.3,0-0.3-0.1-0.2-0.2c0.2-0.2,0.4-0.4,0-0.6c-0.5-0.2-1.1-0.2-1.8-0.2c-0.7,0-1.3,0-2,0c-0.6,0-1.2,0-1.5-0.2
		c-0.5-0.3-1.3-0.3-2.1-0.3c-1.9,0.1-3.8-0.1-5.5,0.4c-0.1,0-0.2,0-0.2,0c-1.4,0-2.6,0.2-3.9,0.2c-0.5,0-1,0-1.3-0.1
		c-0.5-0.2-1.3-0.2-2-0.2c-0.5,0-1,0-1.5,0c-3.6,0-7.3,0.2-10.9,0c-0.1,0-0.2,0-0.2,0c-0.1,0-0.3,0.1-0.4,0.1
		c0.2,0.1,0.4,0.1,0.6,0.2c-0.7,0.1-1.4,0.1-2.2,0.1c-0.8,0-1.6,0-2.1-0.3c-0.3-0.2-1.1-0.4-1.8-0.4c-2,0-4-0.1-5.9,0
		c-0.4,0-0.9,0-1,0.2c-0.3,0.3-1,0.3-1.8,0.3c-2.5,0-4.9-0.1-7.4-0.2c-1.5,0-3-0.1-4.5,0c-1.1,0-2.1,0-3.2,0.1c-0.7,0-1.5,0-2.4,0.1
		c0.6,0.1,1.1,0.2,2,0.4c-1.5,0-2.4,0-3.4,0c-1.2,0-2.5,0-3.7,0c-1,0-1.6,0.1-1.8,0.5c-0.1,0.2-0.5,0.3-1.1,0.3c-0.7,0-1.5,0-2.2,0
		c-0.4,0-0.8-0.1-1.2,0.1c2.1,0.1,3.9,0.3,5.7,0.5c1.2,0.2,2.3,0.2,3.6,0.3c2.7,0.1,5.4,0.1,8.2,0.2c5.8,0.1,11.5,0.3,17.3,0.4
		c1.2,0,2.3,0,3.5,0c2.4-0.1,4.8,0.1,7.2,0.1c0.2,0,0.3,0,0.5,0.1c0.1,0,0.2,0.1,0.2,0.1c0,0-0.1,0.1-0.3,0.1
		c-1.1,0.1-2.3,0.1-3.5,0c-4.5-0.1-8.9-0.2-13.4-0.1c-1.9,0-3.8,0.1-5.7,0c-2.7-0.1-5.5,0-8.2-0.2c-0.2,0-0.5,0-0.6,0.1
		c0,0,0.1,0.1,0.2,0.1c0.6,0.3,0.5,0.4-0.4,0.4c-0.6,0-1.2,0-1.7,0c-0.1,0-0.3,0.1-0.3,0.1c0,0,0.1,0.1,0.2,0.1
		c0.7,0.1,1.5,0.2,2.3,0.2c2.5,0.1,4.9,0.2,7.4,0.3c2,0,3.9,0.1,5.9,0.1c1.5,0,3.1,0,4.7,0.1c4.4,0.4,8.9,0.5,13.5,0.4
		c0.9,0,1.8-0.1,2.7-0.1c1.8,0,3.6,0.1,5.3-0.2c0.3,0,0.6,0,1,0c0.5,0,1,0.1,1.5,0c1.8-0.2,3.6-0.1,5.4-0.2c0.9-0.1,1.8-0.1,2.7,0
		c0.8,0.1,1.6,0.1,2.4,0c1.3-0.1,2.6-0.1,3.9-0.2c0.9-0.1,1.8-0.1,2.7-0.1c1.8,0.1,3.6,0,5.4-0.2c0.9-0.1,2-0.2,2.9-0.1
		c1.6,0.2,3.3,0.1,4.9,0c3.3-0.1,6.5-0.3,9.9-0.2c2.6,0,5.2,0.2,7.9,0.2c2.4,0,4.8,0.2,7.1,0.2c3.9,0.1,7.9,0,11.8,0
		c0.3,0,0.6,0.1,0.9,0.1c1.2,0.1,2.4,0.1,3.7,0.2c1.9,0,3.8,0,5.7,0c2.6,0,5.2,0,7.8,0c0,1.6,0,3.3-0.1,4.9c0,2.5,0,5.1,0.1,7.6
		c0,0.1,0,0.2,0,0.3c-0.2,1.3-0.2,2.7-0.2,4.1c0,2.4,0,4.8-0.1,7.2c0,2.3-0.1,4.6-0.1,6.9c-0.1,3.6-0.3,7.2-0.4,10.8
		c-0.1,2.1-0.1,4.3,0,6.4c0.1,1.6,0.1,3.3,0.2,4.9c0,0.7,0,1.5,0,2.2c0.2,2.5,0.2,5.1,0.1,7.7c-0.1,3.7,0,7.4-0.2,11.1
		c0,0.3,0,0.7,0,1c0,4.3-0.2,8.5-0.2,12.9c0,3.9-0.2,7.7-0.3,11.6c0,1.2-0.1,2.5-0.1,3.7c0,4.6-0.2,9.1-0.1,13.6c0,0.4,0,0.8,0,1.2
		c0,1.7,0,3.3,0,5c0,1.9,0,3.8,0,5.7c0,1.2,0,2.5,0,3.7c0,4.3,0.1,8.6,0.1,12.9c0,1.2,0,2.4,0,3.7c0,1.1-0.1,2.2-0.1,3.3
		c0,0.6-0.1,1.2-0.1,1.9c-0.1,1.6-0.2,3.2-0.3,4.9c-0.2,0-0.4,0-0.6,0c-4.6-0.1-9.3-0.1-13.9,0.1c-3.6,0.1-7.1,0.2-10.6,0.2
		c-3.9,0-7.8-0.2-11.6,0c-0.3,0-0.7,0-1,0c-1.5-0.1-3-0.1-4.5-0.1c-3.6,0-7.3,0-10.9,0.1c-1,0.1-2,0-2.9-0.1
		c-0.5-0.1-1.2-0.1-1.7-0.1c-2.5,0.2-5,0.1-7.4,0.2c-1.1,0.1-2.3,0.1-3.5,0c-2.3-0.2-4.6-0.2-6.9-0.2c-5,0-10.1-0.2-15.1-0.3
		c-2.5,0-4.9-0.1-7.4-0.1c-1.2,0-2.3,0-3.5,0c-2.3,0.1-4.6,0.1-6.9,0.1c-3.6,0-7.1,0.1-10.7,0.1c0.9,0.1,1.9,0,2.8,0.2
		c-0.2,0.2-0.5,0.2-0.8,0.2c-0.6,0-1.2,0-1.7,0c-1.7,0-3.3,0-5,0.1c-0.3,0-0.8,0-0.7,0.1c0,0.1,0.5,0.1,0.8,0.2c0.7,0,1.5,0,2.2,0
		c1.7,0,3.5,0,5.2,0.1c1.9,0.1,3.8,0.2,5.6,0.2c0.2,0,0.5,0,0.5,0.2c-1.1,0.1-2.3,0-3.4,0c-1.2,0-2.5,0-3.7,0c-1.2,0-2.3,0-3.5,0
		c-1.2,0-2.4,0-3.6,0.1c1.1,0.1,2.2,0.1,3.4,0.2c2.4,0.1,4.8,0.2,7.2,0.2c2.2-0.1,4.5,0,6.7,0c2,0,3.9,0.1,5.9,0.3
		c2.2,0.2,4.5,0.2,6.6,0c1.3-0.1,2.4-0.1,3.6,0.1c1.7,0.3,3.5,0.3,5.3,0.1c0.6-0.1,1.1-0.1,1.7-0.1c3.5,0,6.9,0.2,10.4,0
		c0.6,0,1.3,0,2,0c0.7,0,1.3,0,2,0c0.2,0,0.5-0.1,0.4-0.2c0,0-0.2-0.1-0.3-0.1c-1.2,0-2.3,0-3.5,0c-1.2,0-2.5,0-3.7,0
		c-0.2,0-0.5-0.1-0.5-0.1c-0.1-0.2,0.4-0.2,0.6-0.2c1.3,0,2.6,0,4,0c0.7,0,1.3,0.1,2,0c2.1-0.3,4.3-0.3,6.6-0.4
		c0.6,0,1.1-0.1,1.7-0.1c0.3,0,0.7-0.1,0.8-0.2c0.4-0.3,1.3-0.3,2.1-0.3c1.6,0,3.1,0,4.7,0c0.3,0,0.7,0,0.7,0.1
		c-0.8,0.2-1.9,0.1-2.9,0.3c2.5,0.3,5.1,0.2,7.7,0.2c0.7,0,1.5-0.1,2.2-0.3c-1.3-0.1-2.7,0-3.7-0.3c0.9-0.1,1.7-0.1,2.5-0.1
		c0.5,0,1,0,1.5,0c2.3-0.2,4.6-0.1,6.9-0.2c0.9,0,1.6,0.1,2.3,0.2c0.2,0.1,0.4,0.1,0.2,0.2c-0.5,0.2-0.1,0.3,0.4,0.4
		c0.6,0.1,1.3,0.2,2.3,0.3c-2.7,0.2-4.9,0.3-7.5,0.2c1,0.3,1.8,0.3,2.8,0.3c1.1-0.1,2.3-0.1,3.4,0.1c0.3,0.1,0.7,0.1,1,0
		c0.8-0.1,1.6,0,2.5,0c2.9,0.1,5.9,0.4,8.9,0.2c0.3,0,0.6,0,1,0.1c0.1,0,0.1,0,0.1,0.1c0,0,0,0.1-0.1,0.1c-0.4,0.1-0.7,0.1-1.1,0.2
		c-0.9,0.1-1.7,0.2-2.8,0c-0.9-0.2-2.1-0.1-3.1,0.1c-1.2,0.2-2.4,0.2-3.6,0.2c-1.5-0.1-3-0.1-4.4,0.2c-0.5,0.1-1.1,0.1-1.7,0
		c-1.8-0.4-3.8-0.3-5.7-0.2c-0.6,0-1.1,0.1-1.2,0.4c-0.1,0.3-0.7,0.4-1.4,0.4c-2.2,0-4.4,0.2-6.6,0.4c-1.1,0.1-2,0-2.8-0.3
		c-0.6-0.3-2-0.2-2.5,0.1c-0.2,0.1-0.3,0.3-0.4,0.4c-0.3,0.4-0.6,0.5-1.8,0.5c-0.3,0-0.7,0-1,0c-1.4-0.2-2.9-0.1-4.4-0.1
		c-0.4,0-0.8,0-1.2,0c-0.2,0-0.3,0-0.5,0c-0.1,0-0.2,0-0.1-0.1c0.1,0,0.2-0.1,0.2-0.1c1.7,0,3.4,0,5.2,0c0.2-0.6-0.6-0.7-1.9-0.7
		c-0.1,0-0.1,0-0.2-0.1c0.8-0.2,1.7-0.2,2.5-0.3c0.1,0,0.3-0.1,0.3-0.1c0,0-0.2-0.1-0.3-0.1c-1,0-2,0-3,0.1c-0.7,0-1.5,0.1-2.2,0.1
		c-0.4,0-0.8-0.1-0.8-0.2c0-0.3,0-0.4-0.9-0.2c-0.3,0.1-0.6,0.1-0.9,0.1c-1.2-0.1-2.3,0-3.4,0.1c-2,0.2-4.1,0.1-6.1,0.3
		c-1,0.1-1.9,0-2.6-0.3c0,0,0,0,0,0c0,0-0.1,0-0.1,0c0,0,0,0,0,0l0,0c0,0,0.1,0,0.1,0c-3.2,0.1-6.4,0.2-9.6-0.1
		c-0.4,0-0.8-0.1-1.2-0.1c-1.9,0.1-3.8-0.1-5.7,0c-4.1,0.1-8.2-0.3-12.3-0.2c-3.2-0.2-6.3,0.1-9.3,0.4c-2.4,0.2-4.8,0.4-7.3,0.4
		c-0.9,0-1.8,0-2.7,0c-3.1,0-6.1-0.1-9.2-0.1c-0.2,0-0.5,0-0.6,0.1c-0.1,0.1,0.2,0.1,0.4,0.2c0.8,0.1,1.6,0.1,2.4,0.1
		c1.1,0,2.1,0,3.1,0.2c0.9,0.2,1.9,0.2,3.1,0.2c1.5,0,3.1,0,4.5,0.2c-0.7,0.2-2,0.2-1.9,0.4c0,0.4,1.4,0.2,2,0.3
		c0.1,0,0.1,0,0.1,0.1c-0.2,0.2-0.9,0.1-1.2,0.2c-0.9,0.4-2,0.3-3.2,0.4c-2.2,0.1-4.4,0.1-6.7,0.1c-0.8,0-1.7,0-2.5,0
		c2.8,0.2,5.6,0.3,8.3,0.4c4.1,0.2,8.1,0.4,12.2,0.6c4.9,0.1,9.7,0.2,14.6,0.2c3.3,0,6.6-0.1,9.9,0c4.1,0,8.3,0.1,12.4,0
		c2.1,0,4.3-0.1,6.4-0.1c5.3,0,10.6-0.2,15.8-0.4c0.6,0,1.2-0.1,1.7,0c1.6,0.3,3.2,0.2,4.9,0.2c1.5,0,3-0.1,4.5-0.1
		c0.8,0,1.7,0,2.3,0.3c0.6,0.2,1.3,0.2,2,0.2c0.9,0,1.8,0,2.7-0.1c1.1-0.1,2.1-0.1,3.2-0.1c2.5,0,5,0,7.4,0c0.7,0,1.3,0,1.9,0.2
		c0.2,0.1,0.2,0.1,0.1,0.2c-0.2,0.1-0.7,0.2-0.7,0.3c0.4,0.2,1.5,0,1.5,0.2c0.1,0.3-1,0.2-1.4,0.3c-0.2,0-0.1,0.1,0.1,0.1
		c0.5,0.1,0.8,0.1,0.1,0.2c-0.5,0.1-1.4,0.1-1.5,0.2c-0.4,0.4-1.3,0.4-2.2,0.3c-1.5,0-3-0.1-4.5-0.1c-1.5,0-3-0.1-4.5-0.1
		c-0.8,0-1.5,0-2.1,0.2c-1,0.3-2.2,0.3-3.4,0.5c-1.4,0.1-2.9,0.3-4.4,0.3c-0.8,0-1.4,0.1-2,0.4c3.8-0.1,7.3-0.1,10.9,0
		c3.4,0.1,6.9,0,10.4,0.2c3.5,0.2,7,0.2,10.6,0.5c-0.3,0.1-0.4,0.1-0.5,0.1c-3.4,0.2-6.9,0.3-10.4,0.1c-1.2-0.1-2.4-0.1-3.7-0.1
		c-0.7,0-1.3,0.1-1.6,0.3c-0.2,0.2-0.6,0.3-1.1,0.3c-0.6,0.1-0.9,0-1.1-0.2c-0.2-0.3-0.8-0.5-1.8-0.5c-1.6,0-3.1,0-4.7,0
		c-0.9,0-1.6,0.1-2-0.3c-0.2-0.1-0.7-0.1-1.1-0.1c-1.2,0-2.3,0.1-3.4,0.3c-0.5,0.1-1.1,0.1-1.7,0.2c-1.3,0.1-2.6,0.1-4,0.1
		c-1,0-2,0.1-2.8-0.2c-0.7-0.2-1.6-0.2-2.6-0.1c-0.7,0.1-1.3,0.2-2.1,0.1c-0.1-0.4,0.5-0.7,1.7-0.8c0.6,0,1.4,0,1.8-0.2
		c0.7-0.3,1.4-0.6,2.8-0.4c0.2,0,0.6-0.1,0.9-0.1c0.4,0,0.8-0.1,1.2-0.1c0.6,0,0.7,0.1,0.6,0.3c0,0,0.1,0.1,0.1,0.2
		c1.2-0.1,2.3-0.3,3.6-0.2c0.3,0,0.7,0,0.9-0.1c0.7-0.2,1.3-0.1,2.1-0.1c1.4,0.1,2.7,0.1,3.7-0.4c-0.5-0.1-1-0.1-1.5-0.1
		c-1.8,0-3.6,0-5.5,0.1c-1,0-2,0.1-2.7-0.2c-0.2-0.1-0.6-0.1-0.9-0.1c-1,0-2,0-2.7,0.3c-0.1,0.1-0.5,0.1-0.7,0.1
		c-0.3,0-0.3-0.1-0.2-0.2c0.2-0.2,0.4-0.4,0-0.6c-0.5-0.2-1.1-0.2-1.8-0.2c-0.7,0-1.3,0-2,0c-0.6,0-1.2,0-1.5-0.2
		c-0.5-0.3-1.3-0.3-2.1-0.3c-1.9,0.1-3.8-0.1-5.5,0.4c-0.1,0-0.2,0-0.2,0c-1.4,0-2.6,0.2-3.9,0.2c-0.5,0-1,0-1.3-0.1
		c-0.5-0.2-1.3-0.2-2-0.2c-0.5,0-1,0-1.5,0c-3.6,0-7.3,0.2-10.9,0c-0.1,0-0.2,0-0.2,0c-0.1,0-0.3,0.1-0.4,0.1
		c0.2,0.1,0.4,0.1,0.6,0.2c-0.7,0.1-1.4,0.1-2.2,0.1c-0.8,0-1.6,0-2.1-0.3c-0.3-0.2-1.1-0.4-1.8-0.4c-2,0-4-0.1-5.9,0
		c-0.4,0-0.9,0-1,0.2c-0.3,0.3-1,0.3-1.8,0.3c-2.5,0-4.9-0.1-7.4-0.2c-1.5,0-3-0.1-4.5,0c-1.1,0-2.1,0-3.2,0.1c-0.7,0-1.5,0-2.4,0.1
		c0.6,0.1,1.1,0.2,2,0.4c-1.5,0-2.4,0-3.4,0c-1.2,0-2.5,0-3.7,0c-1,0-1.6,0.1-1.8,0.5c-0.1,0.2-0.5,0.3-1.1,0.3c-0.7,0-1.5,0-2.2,0
		c-0.4,0-0.8-0.1-1.2,0.1c2.1,0.1,3.9,0.3,5.7,0.5c1.2,0.2,2.3,0.2,3.6,0.3c2.7,0.1,5.4,0.1,8.2,0.2c5.8,0.1,11.5,0.3,17.3,0.4
		c1.2,0,2.3,0,3.5,0c2.4-0.1,4.8,0.1,7.2,0.1c0.2,0,0.3,0,0.5,0.1c0.1,0,0.2,0.1,0.2,0.1c0,0-0.1,0.1-0.3,0.1
		c-1.1,0.1-2.3,0.1-3.5,0c-4.5-0.1-8.9-0.2-13.4-0.1c-1.9,0-3.8,0.1-5.7,0c-2.7-0.1-5.5,0-8.2-0.2c-0.2,0-0.5,0-0.6,0.1
		c0,0,0.1,0.1,0.2,0.1c0.6,0.3,0.5,0.4-0.4,0.4c-0.6,0-1.2,0-1.7,0c-0.1,0-0.3,0.1-0.3,0.1c0,0,0.1,0.1,0.2,0.1
		c0.7,0.1,1.5,0.2,2.3,0.2c2.5,0.1,4.9,0.2,7.4,0.3c2,0,3.9,0.1,5.9,0.1c1.5,0,3.1,0,4.7,0.1c4.4,0.4,8.9,0.5,13.5,0.4
		c0.9,0,1.8-0.1,2.7-0.1c1.8,0,3.6,0.1,5.3-0.2c0.3,0,0.6,0,1,0c0.5,0,1,0.1,1.5,0c1.8-0.2,3.6-0.1,5.4-0.2c0.9-0.1,1.8-0.1,2.7,0
		c0.8,0.1,1.6,0.1,2.4,0c1.3-0.1,2.6-0.1,3.9-0.2c0.9-0.1,1.8-0.1,2.7-0.1c1.8,0.1,3.6,0,5.4-0.2c0.9-0.1,2-0.2,2.9-0.1
		c1.6,0.2,3.3,0.1,4.9,0c3.3-0.1,6.5-0.3,9.9-0.2c2.6,0,5.2,0.2,7.9,0.2c2.4,0,4.8,0.2,7.1,0.2c3.9,0.1,7.9,0,11.8,0
		c0.3,0,0.6,0.1,0.9,0.1c1.2,0.1,2.4,0.1,3.7,0.2c1.9,0,3.8,0,5.7,0c1.6,0,3.2,0,4.9,0c0,1.1,0,2.2-0.1,3.3
		c-0.1,4.6-0.1,9.3,0.1,13.9c0.1,3.6,0.2,7.1,0.2,10.6c0,3.9-0.2,7.8,0,11.6c0,0.3,0,0.7,0,1c-0.1,1.5-0.1,3-0.1,4.5
		c0,3.6,0,7.3,0.1,10.9c0.1,1,0,2-0.1,2.9c-0.1,0.5-0.1,1.2-0.1,1.7c0.2,2.5,0.1,5,0.2,7.4c0.1,1.1,0.1,2.3,0,3.5
		c-0.2,2.3-0.2,4.6-0.2,6.9c0,5-0.2,10.1-0.3,15.1c0,2.5-0.1,4.9-0.1,7.4c0,1.2,0,2.3,0,3.5c0.1,2.3,0.1,4.6,0.1,6.9
		c0,3.6,0.1,7.1,0.1,10.7c0.1-0.9,0-1.9,0.2-2.8c0.2,0.2,0.2,0.5,0.2,0.8c0,0.6,0,1.2,0,1.7c0,1.7,0,3.3,0.1,5c0,0.3,0,0.8,0.1,0.7
		c0.1,0,0.1-0.5,0.2-0.8c0-0.7,0-1.5,0-2.2c0-1.7,0-3.5,0.1-5.2c0.1-1.9,0.2-3.8,0.2-5.6c0-0.2,0-0.5,0.2-0.5c0.1,1.1,0,2.3,0,3.4
		c0,1.2,0,2.5,0,3.7c0,1.2,0,2.3,0,3.5c0,1.2,0,2.4,0.1,3.6c0.1-1.1,0.1-2.2,0.2-3.4c0.1-2.4,0.2-4.8,0.2-7.2c-0.1-2.2,0-4.5,0-6.7
		c0-2,0.1-3.9,0.3-5.9c0.2-2.2,0.2-4.5,0-6.6c-0.1-1.3-0.1-2.4,0.1-3.6c0.3-1.7,0.3-3.5,0.1-5.3c-0.1-0.6-0.1-1.1-0.1-1.7
		c0-3.5,0.2-6.9,0-10.4c0-0.6,0-1.3,0-2c0-0.7,0-1.3,0-2c0-0.2-0.1-0.5-0.2-0.4c0,0-0.1,0.2-0.1,0.3c0,1.2,0,2.3,0,3.5
		c0,1.2,0,2.5,0,3.7c0,0.2-0.1,0.5-0.1,0.5c-0.2,0.1-0.2-0.4-0.2-0.6c0-1.3,0-2.6,0-4c0-0.7,0.1-1.3,0-2c-0.3-2.1-0.3-4.3-0.4-6.6
		c0-0.6-0.1-1.1-0.1-1.7c0-0.3-0.1-0.7-0.2-0.8c-0.3-0.4-0.3-1.3-0.3-2.1c0-1.6,0-3.1,0-4.7c0-0.3,0-0.7,0.1-0.7
		c0.2,0.8,0.1,1.9,0.3,2.9c0.3-2.5,0.2-5.1,0.2-7.7c0-0.7-0.1-1.5-0.3-2.2c-0.1,1.3,0,2.7-0.3,3.7c-0.1-0.9-0.1-1.7-0.1-2.5
		c0-0.5,0-1,0-1.5c-0.2-2.3-0.1-4.6-0.2-6.9c0-0.9,0.1-1.6,0.2-2.3c0.1-0.2,0.1-0.4,0.2-0.2c0.2,0.5,0.3,0.1,0.4-0.4
		c0.1-0.6,0.2-1.3,0.3-2.3c0.2,2.7,0.3,4.9,0.2,7.5c0.3-1,0.3-1.8,0.3-2.8c-0.1-1.1-0.1-2.3,0.1-3.4c0.1-0.3,0.1-0.7,0-1
		c-0.1-0.8,0-1.6,0-2.5c0.1-2.9,0.4-5.9,0.2-8.9c0-0.3,0-0.6,0.1-1c0-0.1,0-0.1,0.1-0.1c0,0,0.1,0,0.1,0.1c0.1,0.4,0.1,0.7,0.2,1.1
		c0.1,0.9,0.2,1.7,0,2.8c-0.2,0.9-0.1,2.1,0.1,3.1c0.2,1.2,0.2,2.4,0.2,3.6c-0.1,1.5-0.1,3,0.2,4.4c0.1,0.5,0.1,1.1,0,1.7
		c-0.4,1.8-0.3,3.8-0.2,5.7c0,0.6,0.1,1.1,0.4,1.2c0.3,0.1,0.4,0.7,0.4,1.4c0,2.2,0.2,4.4,0.4,6.6c0.1,1.1,0,2-0.3,2.8
		c-0.3,0.6-0.2,2,0.1,2.5c0.1,0.2,0.3,0.3,0.4,0.4c0.4,0.3,0.5,0.6,0.5,1.8c0,0.3,0,0.7,0,1c-0.2,1.4-0.1,2.9-0.1,4.4
		c0,0.4,0,0.8,0,1.2c0,0.2,0,0.3,0,0.5c0,0.1,0,0.2-0.1,0.1c0-0.1-0.1-0.2-0.1-0.2c0-1.7,0-3.4,0-5.2c-0.6-0.2-0.7,0.6-0.7,1.9
		c0,0.1,0,0.1-0.1,0.2c-0.2-0.8-0.2-1.7-0.3-2.5c0-0.1-0.1-0.3-0.1-0.3c0,0-0.1,0.2-0.1,0.3c0,1,0,2,0.1,3c0,0.7,0.1,1.5,0.1,2.2
		c0,0.4-0.1,0.8-0.2,0.8c-0.3,0-0.4,0-0.2,0.9c0.1,0.3,0.1,0.6,0.1,0.9c-0.1,1.2,0,2.3,0.1,3.4c0.2,2,0.1,4.1,0.3,6.1
		c0.1,1,0,1.9-0.3,2.6c0,0,0,0,0,0c0,0,0,0.1,0,0.1c0,0,0,0,0,0l0,0c0,0,0-0.1,0-0.1c0.1,3.2,0.2,6.4-0.1,9.6c0,0.4-0.1,0.8-0.1,1.2
		c0.1,1.9-0.1,3.8,0,5.7c0.1,4.1-0.3,8.2-0.2,12.3c-0.2,3.2,0.1,6.3,0.4,9.3c0.2,2.4,0.4,4.8,0.4,7.3c0,0.9,0,1.8,0,2.7
		c0,3.1-0.1,6.1-0.1,9.2c0,0.2,0,0.5,0.1,0.6c0.1,0.1,0.1-0.2,0.2-0.4c0.1-0.8,0.1-1.6,0.1-2.4c0-1.1,0-2.1,0.2-3.1
		c0.2-0.9,0.2-1.9,0.2-3.1c0-1.5,0-3.1,0.2-4.5c0.2,0.7,0.2,2,0.4,1.9c0.4,0,0.2-1.4,0.3-2c0-0.1,0-0.1,0.1-0.1
		c0.2,0.2,0.1,0.9,0.2,1.2c0.4,0.9,0.3,2,0.4,3.2c0.1,2.2,0.1,4.4,0.1,6.7c0,0.8,0,1.7,0,2.5c0.2-2.8,0.3-5.6,0.4-8.3
		c0.2-4.1,0.4-8.1,0.6-12.2c0.1-4.9,0.2-9.7,0.2-14.6c0-3.3-0.1-6.6,0-9.9c0-4.1,0.1-8.3,0-12.4c0-2.1-0.1-4.3-0.1-6.4
		c0-5.3-0.2-10.6-0.4-15.8c0-0.6-0.1-1.2,0-1.7c0.3-1.6,0.2-3.2,0.2-4.9c0-1.5-0.1-3-0.1-4.5c0-0.8,0-1.7,0.3-2.3
		c0.2-0.6,0.2-1.3,0.2-2c0-0.9,0-1.8-0.1-2.7c-0.1-1.1-0.1-2.1-0.1-3.2c0-2.5,0-5,0-7.4c0-0.7,0-1.3,0.2-1.9
		c0.1-0.2,0.1-0.2,0.2-0.1c0.1,0.2,0.2,0.7,0.3,0.7c0.2-0.4,0-1.5,0.2-1.5c0.3-0.1,0.2,1,0.3,1.4c0,0.2,0.1,0.1,0.1-0.1
		c0.1-0.5,0.1-0.8,0.2-0.1c0.1,0.5,0.1,1.4,0.2,1.5c0.4,0.4,0.4,1.3,0.3,2.2c0,1.5-0.1,3-0.1,4.5c0,1.5-0.1,3-0.1,4.5
		c0,0.8,0,1.5,0.2,2.1c0.3,1,0.3,2.2,0.5,3.4c0.1,1.4,0.3,2.9,0.3,4.4c0,0.8,0.1,1.4,0.4,2c-0.1-3.8-0.1-7.3,0-10.9
		c0.1-3.4,0-6.9,0.2-10.4c0.2-3.5,0.2-7,0.5-10.6c0.1,0.3,0.1,0.4,0.1,0.5c0.2,3.4,0.3,6.9,0.1,10.4c-0.1,1.2-0.1,2.4-0.1,3.7
		c0,0.7,0.1,1.3,0.3,1.6c0.2,0.2,0.3,0.6,0.3,1.1c0.1,0.6,0,0.9-0.2,1.1c-0.3,0.2-0.5,0.8-0.5,1.8c0,1.6,0,3.1,0,4.7
		c0,0.9,0.1,1.6-0.3,2c-0.1,0.2-0.1,0.7-0.1,1.1c0,1.2,0.1,2.3,0.3,3.4c0.1,0.5,0.1,1.1,0.2,1.7c0.1,1.3,0.1,2.6,0.1,4
		c0,1,0.1,2-0.2,2.8c-0.2,0.7-0.2,1.6-0.1,2.6c0.1,0.7,0.2,1.3,0.1,2.1c-0.4,0.1-0.7-0.5-0.8-1.7c0-0.6,0-1.4-0.2-1.8
		c-0.3-0.7-0.6-1.4-0.4-2.8c0-0.2-0.1-0.6-0.1-0.9c0-0.4-0.1-0.8-0.1-1.2c0-0.6,0.1-0.7,0.3-0.6c0,0,0.1-0.1,0.2-0.1
		c-0.1-1.2-0.3-2.3-0.2-3.6c0-0.3,0-0.7-0.1-0.9c-0.2-0.7-0.1-1.3-0.1-2.1c0.1-1.4,0.1-2.7-0.4-3.7c-0.1,0.5-0.1,1-0.1,1.5
		c0,1.8,0,3.6,0.1,5.5c0,1,0.1,2-0.2,2.7c-0.1,0.2-0.1,0.6-0.1,0.9c0,1,0,2,0.3,2.7c0.1,0.1,0.1,0.5,0.1,0.7c0,0.3-0.1,0.3-0.2,0.2
		c-0.2-0.2-0.4-0.4-0.6,0c-0.2,0.5-0.2,1.1-0.2,1.8c0,0.7,0,1.3,0,2c0,0.6,0,1.2-0.2,1.5c-0.3,0.5-0.3,1.3-0.3,2.1
		c0.1,1.9-0.1,3.8,0.4,5.5c0,0.1,0,0.2,0,0.2c0,1.4,0.2,2.6,0.2,3.9c0,0.5,0,1-0.1,1.3c-0.2,0.5-0.2,1.3-0.2,2c0,0.5,0,1,0,1.5
		c0,3.6,0.2,7.3,0,10.9c0,0.1,0,0.2,0,0.2c0,0.1,0.1,0.3,0.1,0.4c0.1-0.2,0.1-0.4,0.2-0.6c0.1,0.7,0.1,1.4,0.1,2.2
		c0,0.8,0,1.6-0.3,2.1c-0.2,0.3-0.4,1.1-0.4,1.8c0,2-0.1,4,0,5.9c0,0.4,0,0.9,0.2,1c0.3,0.3,0.3,1,0.3,1.8c0,2.5-0.1,4.9-0.2,7.4
		c0,1.5-0.1,3,0,4.5c0,1.1,0,2.1,0.1,3.2c0,0.7,0,1.5,0.1,2.4c0.1-0.6,0.2-1.1,0.4-2c0,1.5,0,2.4,0,3.4c0,1.2,0,2.5,0,3.7
		c0,1,0.1,1.6,0.5,1.8c0.2,0.1,0.3,0.5,0.3,1.1c0,0.7,0,1.5,0,2.2c0,0.4-0.1,0.8,0.1,1.2c0.1-2.1,0.3-3.9,0.5-5.7
		c0.2-1.2,0.2-2.3,0.3-3.6c0.1-2.7,0.1-5.4,0.2-8.2c0.1-5.8,0.3-11.5,0.4-17.3c0-1.2,0-2.3,0-3.5c-0.1-2.4,0.1-4.8,0.1-7.2
		c0-0.2,0-0.3,0.1-0.5c0-0.1,0.1-0.2,0.1-0.2c0,0,0.1,0.1,0.1,0.3c0.1,1.1,0.1,2.3,0,3.5c-0.1,4.5-0.2,8.9-0.1,13.4
		c0,1.9,0.1,3.8,0,5.7c-0.1,2.7,0,5.5-0.2,8.2c0,0.2,0,0.5,0.1,0.6c0,0,0.1-0.1,0.1-0.2c0.3-0.6,0.4-0.5,0.4,0.4c0,0.6,0,1.2,0,1.7
		c0,0.1,0.1,0.3,0.1,0.3c0,0,0.1-0.1,0.1-0.2c0.1-0.7,0.2-1.5,0.2-2.3c0.1-2.5,0.2-4.9,0.3-7.4c0-2,0.1-3.9,0.1-5.9
		c0-1.5,0-3.1,0.1-4.7c0.4-4.4,0.5-8.9,0.4-13.5c0-0.9-0.1-1.8-0.1-2.7c0-1.8,0.1-3.6-0.2-5.3c0-0.3,0-0.6,0-1c0-0.5,0.1-1,0-1.5
		c-0.2-1.8-0.1-3.6-0.2-5.4c-0.1-0.9-0.1-1.8,0-2.7c0.1-0.8,0.1-1.6,0-2.4c-0.1-1.3-0.1-2.6-0.2-3.9c-0.1-0.9-0.1-1.8-0.1-2.7
		c0.1-1.8,0-3.6-0.2-5.4c-0.1-0.9-0.2-2-0.1-2.9c0.2-1.6,0.1-3.3,0-4.9c-0.1-3.3-0.3-6.5-0.2-9.9c0-2.6,0.2-5.2,0.2-7.9
		c0-2.4,0.2-4.8,0.2-7.1c0.1-3.9,0-7.9,0-11.8c0-0.3,0.1-0.6,0.1-0.9c0.1-1.2,0.1-2.4,0.2-3.7c0-1.9,0-3.8,0-5.7c0-2.6,0-5.2,0-7.8
		c1.6,0,3.3,0,4.9,0.1c2.5,0,5.1,0,7.6-0.1c0.1,0,0.2,0,0.3,0c1.3,0.2,2.7,0.2,4.1,0.2c2.4,0,4.8,0,7.2,0.1c2.3,0,4.6,0.1,6.9,0.1
		c3.6,0.1,7.2,0.3,10.8,0.4c2.1,0.1,4.3,0.1,6.4,0c1.6-0.1,3.3-0.1,4.9-0.2c0.7,0,1.5,0,2.2,0c2.5-0.2,5.1-0.2,7.7-0.1
		c3.7,0.1,7.4,0,11.1,0.2c0.3,0,0.7,0,1,0c4.3,0,8.5,0.2,12.9,0.2c3.9,0,7.7,0.2,11.6,0.3c1.2,0,2.5,0.1,3.7,0.1
		c4.6,0,9.1,0.2,13.6,0.1c0.4,0,0.8,0,1.2,0c1.7,0,3.3,0,5,0c1.9,0,3.8,0,5.7,0c1.2,0,2.5,0,3.7,0c4.3,0,8.6-0.1,12.9-0.1
		c1.2,0,2.4,0,3.7,0c1.1,0,2.2,0.1,3.3,0.1c0.6,0,1.2,0.1,1.9,0.1c1.6,0.1,3.2,0.2,4.9,0.3c0,0.2,0,0.4,0,0.6
		c-0.1,4.6-0.1,9.3,0.1,13.9c0.1,3.6,0.2,7.1,0.2,10.6c0,3.9-0.2,7.8,0,11.6c0,0.3,0,0.7,0,1c-0.1,1.5-0.1,3-0.1,4.5
		c0,3.6,0,7.3,0.1,10.9c0.1,1,0,2-0.1,2.9c-0.1,0.5-0.1,1.2-0.1,1.7c0.2,2.5,0.1,5,0.2,7.4c0.1,1.1,0.1,2.3,0,3.5
		c-0.2,2.3-0.2,4.6-0.2,6.9c0,5-0.2,10.1-0.3,15.1c0,2.5-0.1,4.9-0.1,7.4c0,1.2,0,2.3,0,3.5c0.1,2.3,0.1,4.6,0.1,6.9
		c0,3.6,0.1,7.1,0.1,10.7c0.1-0.9,0-1.9,0.2-2.8c0.2,0.2,0.2,0.5,0.2,0.8c0,0.6,0,1.2,0,1.7c0,1.7,0,3.3,0.1,5c0,0.3,0,0.8,0.1,0.7
		c0.1,0,0.1-0.5,0.2-0.8c0-0.7,0-1.5,0-2.2c0-1.7,0-3.5,0.1-5.2c0.1-1.9,0.2-3.8,0.2-5.6c0-0.2,0-0.5,0.2-0.5c0.1,1.1,0,2.3,0,3.4
		c0,1.2,0,2.5,0,3.7c0,1.2,0,2.3,0,3.5c0,1.2,0,2.4,0.1,3.6c0.1-1.1,0.1-2.2,0.2-3.4c0.1-2.4,0.2-4.8,0.2-7.2c-0.1-2.2,0-4.5,0-6.7
		c0-2,0.1-3.9,0.3-5.9c0.2-2.2,0.2-4.5,0-6.6c-0.1-1.3-0.1-2.4,0.1-3.6c0.3-1.7,0.3-3.5,0.1-5.3c-0.1-0.6-0.1-1.1-0.1-1.7
		c0-3.5,0.2-6.9,0-10.4c0-0.6,0-1.3,0-2c0-0.7,0-1.3,0-2c0-0.2-0.1-0.5-0.2-0.4c0,0-0.1,0.2-0.1,0.3c0,1.2,0,2.3,0,3.5
		c0,1.2,0,2.5,0,3.7c0,0.2-0.1,0.5-0.1,0.5c-0.2,0.1-0.2-0.4-0.2-0.6c0-1.3,0-2.6,0-4c0-0.7,0.1-1.3,0-2c-0.3-2.1-0.3-4.3-0.4-6.6
		c0-0.6-0.1-1.1-0.1-1.7c0-0.3-0.1-0.7-0.2-0.8c-0.3-0.4-0.3-1.3-0.3-2.1c0-1.6,0-3.1,0-4.7c0-0.3,0-0.7,0.1-0.7
		c0.2,0.8,0.1,1.9,0.3,2.9c0.3-2.5,0.2-5.1,0.2-7.7c0-0.7-0.1-1.5-0.3-2.2c-0.1,1.3,0,2.7-0.3,3.7c-0.1-0.9-0.1-1.7-0.1-2.5
		c0-0.5,0-1,0-1.5c-0.2-2.3-0.1-4.6-0.2-6.9c0-0.9,0.1-1.6,0.2-2.3c0.1-0.2,0.1-0.4,0.2-0.2c0.2,0.5,0.3,0.1,0.4-0.4
		c0.1-0.6,0.2-1.3,0.3-2.3c0.2,2.7,0.3,4.9,0.2,7.5c0.3-1,0.3-1.8,0.3-2.8c-0.1-1.1-0.1-2.3,0.1-3.4c0.1-0.3,0.1-0.7,0-1
		c-0.1-0.8,0-1.6,0-2.5c0.1-2.9,0.4-5.9,0.2-8.9c0-0.3,0-0.6,0.1-1c0-0.1,0-0.1,0.1-0.1c0,0,0.1,0,0.1,0.1c0.1,0.4,0.1,0.7,0.2,1.1
		c0.1,0.9,0.2,1.7,0,2.8c-0.2,0.9-0.1,2.1,0.1,3.1c0.2,1.2,0.2,2.4,0.2,3.6c-0.1,1.5-0.1,3,0.2,4.4c0.1,0.5,0.1,1.1,0,1.7
		c-0.4,1.8-0.3,3.8-0.2,5.7c0,0.6,0.1,1.1,0.4,1.2c0.3,0.1,0.4,0.7,0.4,1.4c0,2.2,0.2,4.4,0.4,6.6c0.1,1.1,0,2-0.3,2.8
		c-0.3,0.6-0.2,2,0.1,2.5c0.1,0.2,0.3,0.3,0.4,0.4c0.4,0.3,0.5,0.6,0.5,1.8c0,0.3,0,0.7,0,1c-0.2,1.4-0.1,2.9-0.1,4.4
		c0,0.4,0,0.8,0,1.2c0,0.2,0,0.3,0,0.5c0,0.1,0,0.2-0.1,0.1c0-0.1-0.1-0.2-0.1-0.2c0-1.7,0-3.4,0-5.2c-0.6-0.2-0.7,0.6-0.7,1.9
		c0,0.1,0,0.1-0.1,0.2c-0.2-0.8-0.2-1.7-0.3-2.5c0-0.1-0.1-0.3-0.1-0.3c0,0-0.1,0.2-0.1,0.3c0,1,0,2,0.1,3c0,0.7,0.1,1.5,0.1,2.2
		c0,0.4-0.1,0.8-0.2,0.8c-0.3,0-0.4,0-0.2,0.9c0.1,0.3,0.1,0.6,0.1,0.9c-0.1,1.2,0,2.3,0.1,3.4c0.2,2,0.1,4.1,0.3,6.1
		c0.1,1,0,1.9-0.3,2.6c0,0,0,0,0,0c0,0,0,0.1,0,0.1c0,0,0,0,0,0l0,0c0,0,0-0.1,0-0.1c0.1,3.2,0.2,6.4-0.1,9.6c0,0.4-0.1,0.8-0.1,1.2
		c0.1,1.9-0.1,3.8,0,5.7c0.1,4.1-0.3,8.2-0.2,12.3c-0.2,3.2,0.1,6.3,0.4,9.3c0.2,2.4,0.4,4.8,0.4,7.3c0,0.9,0,1.8,0,2.7
		c0,3.1-0.1,6.1-0.1,9.2c0,0.2,0,0.5,0.1,0.6c0.1,0.1,0.1-0.2,0.2-0.4c0.1-0.8,0.1-1.6,0.1-2.4c0-1.1,0-2.1,0.2-3.1
		c0.2-0.9,0.2-1.9,0.2-3.1c0-1.5,0-3.1,0.2-4.5c0.2,0.7,0.2,2,0.4,1.9c0.4,0,0.2-1.4,0.3-2c0-0.1,0-0.1,0.1-0.1
		c0.2,0.2,0.1,0.9,0.2,1.2c0.4,0.9,0.3,2,0.4,3.2c0.1,2.2,0.1,4.4,0.1,6.7c0,0.8,0,1.7,0,2.5c0.2-2.8,0.3-5.6,0.4-8.3
		c0.2-4.1,0.4-8.1,0.6-12.2c0.1-4.9,0.2-9.7,0.2-14.6c0-3.3-0.1-6.6,0-9.9c0-4.1,0.1-8.3,0-12.4c0-2.1-0.1-4.3-0.1-6.4
		c0-5.3-0.2-10.6-0.4-15.8c0-0.6-0.1-1.2,0-1.7c0.3-1.6,0.2-3.2,0.2-4.9c0-1.5-0.1-3-0.1-4.5c0-0.8,0-1.7,0.3-2.3
		c0.2-0.6,0.2-1.3,0.2-2c0-0.9,0-1.8-0.1-2.7c-0.1-1.1-0.1-2.1-0.1-3.2c0-2.5,0-5,0-7.4c0-0.7,0-1.3,0.2-1.9
		c0.1-0.2,0.1-0.2,0.2-0.1c0.1,0.2,0.2,0.7,0.3,0.7c0.2-0.4,0-1.5,0.2-1.5c0.3-0.1,0.2,1,0.3,1.4c0,0.2,0.1,0.1,0.1-0.1
		c0.1-0.5,0.1-0.8,0.2-0.1c0.1,0.5,0.1,1.4,0.2,1.5c0.4,0.4,0.4,1.3,0.3,2.2c0,1.5-0.1,3-0.1,4.5c0,1.5-0.1,3-0.1,4.5
		c0,0.8,0,1.5,0.2,2.1c0.3,1,0.3,2.2,0.5,3.4c0.1,1.4,0.3,2.9,0.3,4.4c0,0.8,0.1,1.4,0.4,2c-0.1-3.8-0.1-7.3,0-10.9
		c0.1-3.4,0-6.9,0.2-10.4c0.2-3.5,0.2-7,0.5-10.6c0.1,0.3,0.1,0.4,0.1,0.5c0.2,3.4,0.3,6.9,0.1,10.4c-0.1,1.2-0.1,2.4-0.1,3.7
		c0,0.7,0.1,1.3,0.3,1.6c0.2,0.2,0.3,0.6,0.3,1.1c0.1,0.6,0,0.9-0.2,1.1c-0.3,0.2-0.5,0.8-0.5,1.8c0,1.6,0,3.1,0,4.7
		c0,0.9,0.1,1.6-0.3,2c-0.1,0.2-0.1,0.7-0.1,1.1c0,1.2,0.1,2.3,0.3,3.4c0.1,0.5,0.1,1.1,0.2,1.7c0.1,1.3,0.1,2.6,0.1,4
		c0,1,0.1,2-0.2,2.8c-0.2,0.7-0.2,1.6-0.1,2.6c0.1,0.7,0.2,1.3,0.1,2.1c-0.4,0.1-0.7-0.5-0.8-1.7c0-0.6,0-1.4-0.2-1.8
		c-0.3-0.7-0.6-1.4-0.4-2.8c0-0.2-0.1-0.6-0.1-0.9c0-0.4-0.1-0.8-0.1-1.2c0-0.6,0.1-0.7,0.3-0.6c0,0,0.1-0.1,0.2-0.1
		c-0.1-1.2-0.3-2.3-0.2-3.6c0-0.3,0-0.7-0.1-0.9c-0.2-0.7-0.1-1.3-0.1-2.1c0.1-1.4,0.1-2.7-0.4-3.7c-0.1,0.5-0.1,1-0.1,1.5
		c0,1.8,0,3.6,0.1,5.5c0,1,0.1,2-0.2,2.7c-0.1,0.2-0.1,0.6-0.1,0.9c0,1,0,2,0.3,2.7c0.1,0.1,0.1,0.5,0.1,0.7c0,0.3-0.1,0.3-0.2,0.2
		c-0.2-0.2-0.4-0.4-0.6,0c-0.2,0.5-0.2,1.1-0.2,1.8c0,0.7,0,1.3,0,2c0,0.6,0,1.2-0.2,1.5c-0.3,0.5-0.3,1.3-0.3,2.1
		c0.1,1.9-0.1,3.8,0.4,5.5c0,0.1,0,0.2,0,0.2c0,1.4,0.2,2.6,0.2,3.9c0,0.5,0,1-0.1,1.3c-0.2,0.5-0.2,1.3-0.2,2c0,0.5,0,1,0,1.5
		c0,3.6,0.2,7.3,0,10.9c0,0.1,0,0.2,0,0.2c0,0.1,0.1,0.3,0.1,0.4c0.1-0.2,0.1-0.4,0.2-0.6c0.1,0.7,0.1,1.4,0.1,2.2
		c0,0.8,0,1.6-0.3,2.1c-0.2,0.3-0.4,1.1-0.4,1.8c0,2-0.1,4,0,5.9c0,0.4,0,0.9,0.2,1c0.3,0.3,0.3,1,0.3,1.8c0,2.5-0.1,4.9-0.2,7.4
		c0,1.5-0.1,3,0,4.5c0,1.1,0,2.1,0.1,3.2c0,0.7,0,1.5,0.1,2.4c0.1-0.6,0.2-1.1,0.4-2c0,1.5,0,2.4,0,3.4c0,1.2,0,2.5,0,3.7
		c0,1,0.1,1.6,0.5,1.8c0.2,0.1,0.3,0.5,0.3,1.1c0,0.7,0,1.5,0,2.2c0,0.4-0.1,0.8,0.1,1.2c0.1-2.1,0.3-3.9,0.5-5.7
		c0.2-1.2,0.2-2.3,0.3-3.6c0.1-2.7,0.1-5.4,0.2-8.2c0.1-5.8,0.3-11.5,0.4-17.3c0-1.2,0-2.3,0-3.5c-0.1-2.4,0.1-4.8,0.1-7.2
		c0-0.2,0-0.3,0.1-0.5c0-0.1,0.1-0.2,0.1-0.2c0,0,0.1,0.1,0.1,0.3c0.1,1.1,0.1,2.3,0,3.5c-0.1,4.5-0.2,8.9-0.1,13.4
		c0,1.9,0.1,3.8,0,5.7c-0.1,2.7,0,5.5-0.2,8.2c0,0.2,0,0.5,0.1,0.6c0,0,0.1-0.1,0.1-0.2c0.3-0.6,0.4-0.5,0.4,0.4c0,0.6,0,1.2,0,1.7
		c0,0.1,0.1,0.3,0.1,0.3c0,0,0.1-0.1,0.1-0.2c0.1-0.7,0.2-1.5,0.2-2.3c0.1-2.5,0.2-4.9,0.3-7.4c0-2,0.1-3.9,0.1-5.9
		c0-1.5,0-3.1,0.1-4.7c0.4-4.4,0.5-8.9,0.4-13.5c0-0.9-0.1-1.8-0.1-2.7c0-1.8,0.1-3.6-0.2-5.3c0-0.3,0-0.6,0-1c0-0.5,0.1-1,0-1.5
		c-0.2-1.8-0.1-3.6-0.2-5.4c-0.1-0.9-0.1-1.8,0-2.7c0.1-0.8,0.1-1.6,0-2.4c-0.1-1.3-0.1-2.6-0.2-3.9c-0.1-0.9-0.1-1.8-0.1-2.7
		c0.1-1.8,0-3.6-0.2-5.4c-0.1-0.9-0.2-2-0.1-2.9c0.2-1.6,0.1-3.3,0-4.9c-0.1-3.3-0.3-6.5-0.2-9.9c0-2.6,0.2-5.2,0.2-7.9
		c0-2.4,0.2-4.8,0.2-7.1c0.1-3.9,0-7.9,0-11.8c0-0.3,0.1-0.6,0.1-0.9c0.1-1.2,0.1-2.4,0.2-3.7c0-1.9,0-3.8,0-5.7c0-1.6,0-3.2,0-4.9
		c1.1,0,2.2,0,3.3,0.1c4.6,0.1,9.3,0.1,13.9-0.1c3.6-0.1,7.1-0.2,10.6-0.2c3.9,0,7.8,0.2,11.6,0c0.3,0,0.7,0,1,0
		c1.5,0.1,3,0.1,4.5,0.1c3.6,0,7.3,0,10.9-0.1c1-0.1,2,0,2.9,0.1c0.5,0.1,1.2,0.1,1.7,0.1c2.5-0.2,5-0.1,7.4-0.2
		c1.1-0.1,2.3-0.1,3.5,0c2.3,0.2,4.6,0.2,6.9,0.2c5,0,10.1,0.2,15.1,0.3c2.5,0,4.9,0.1,7.4,0.1c1.2,0,2.3,0,3.5,0
		c2.3-0.1,4.6-0.1,6.9-0.1c3.6,0,7.1-0.1,10.7-0.1c-0.9-0.1-1.9,0-2.8-0.2c0.2-0.2,0.5-0.2,0.8-0.2c0.6,0,1.2,0,1.7,0
		c1.7,0,3.3,0,5-0.1c0.3,0,0.8,0,0.7-0.1c0-0.1-0.5-0.1-0.8-0.2c-0.7,0-1.5,0-2.2,0c-1.7,0-3.5,0-5.2-0.1c-1.9-0.1-3.8-0.2-5.6-0.2
		c-0.2,0-0.5,0-0.5-0.2c1.1-0.1,2.3,0,3.4,0c1.2,0,2.5,0,3.7,0c1.2,0,2.3,0,3.5,0c1.2,0,2.4,0,3.6-0.1c-1.1-0.1-2.2-0.1-3.4-0.2
		c-2.4-0.1-4.8-0.2-7.2-0.2c-2.2,0.1-4.5,0-6.7,0c-2,0-3.9-0.1-5.9-0.3c-2.2-0.2-4.5-0.2-6.6,0c-1.3,0.1-2.4,0.1-3.6-0.1
		c-1.7-0.3-3.5-0.3-5.3-0.1c-0.6,0.1-1.1,0.1-1.7,0.1c-3.5,0-6.9-0.2-10.4,0c-0.6,0-1.3,0-2,0c-0.7,0-1.3,0-2,0
		c-0.2,0-0.5,0.1-0.4,0.2c0,0,0.2,0.1,0.3,0.1c1.2,0,2.3,0,3.5,0c1.2,0,2.5,0,3.7,0c0.2,0,0.5,0.1,0.5,0.1c0.1,0.2-0.4,0.2-0.6,0.2
		c-1.3,0-2.6,0-4,0c-0.7,0-1.3-0.1-2,0c-2.1,0.3-4.3,0.3-6.6,0.4c-0.6,0-1.1,0.1-1.7,0.1c-0.3,0-0.7,0.1-0.8,0.2
		c-0.4,0.3-1.3,0.3-2.1,0.3c-1.6,0-3.1,0-4.7,0c-0.3,0-0.7,0-0.7-0.1c0.8-0.2,1.9-0.1,2.9-0.3c-2.5-0.3-5.1-0.2-7.7-0.2
		c-0.7,0-1.5,0.1-2.2,0.3c1.3,0.1,2.7,0,3.7,0.3c-0.9,0.1-1.7,0.1-2.5,0.1c-0.5,0-1,0-1.5,0c-2.3,0.2-4.6,0.1-6.9,0.2
		c-0.9,0-1.6-0.1-2.3-0.2c-0.2-0.1-0.4-0.1-0.2-0.2c0.5-0.2,0.1-0.3-0.4-0.4c-0.6-0.1-1.3-0.2-2.3-0.3c2.7-0.2,4.9-0.3,7.5-0.2
		c-1-0.3-1.8-0.3-2.8-0.3c-1.1,0.1-2.3,0.1-3.4-0.1c-0.3-0.1-0.7-0.1-1,0c-0.8,0.1-1.6,0-2.5,0c-2.9-0.1-5.9-0.4-8.9-0.2
		c-0.3,0-0.6,0-1-0.1c-0.1,0-0.1,0-0.1-0.1c0,0,0-0.1,0.1-0.1c0.4-0.1,0.7-0.1,1.1-0.2c0.9-0.1,1.7-0.2,2.8,0
		c0.9,0.2,2.1,0.1,3.1-0.1c1.2-0.2,2.4-0.2,3.6-0.2c1.5,0.1,3,0.1,4.4-0.2c0.5-0.1,1.1-0.1,1.7,0c1.8,0.4,3.8,0.3,5.7,0.2
		c0.6,0,1.1-0.1,1.2-0.4c0.1-0.3,0.7-0.4,1.4-0.4c2.2,0,4.4-0.2,6.6-0.4c1.1-0.1,2,0,2.8,0.3c0.6,0.3,2,0.2,2.5-0.1
		c0.2-0.1,0.3-0.3,0.4-0.4c0.3-0.4,0.6-0.5,1.8-0.5c0.3,0,0.7,0,1,0c1.4,0.2,2.9,0.1,4.4,0.1c0.4,0,0.8,0,1.2,0c0.2,0,0.3,0,0.5,0
		c0.1,0,0.2,0,0.1,0.1c-0.1,0-0.2,0.1-0.2,0.1c-1.7,0-3.4,0-5.2,0c-0.2,0.6,0.6,0.7,1.9,0.7c0.1,0,0.1,0,0.2,0.1
		c-0.8,0.2-1.7,0.2-2.5,0.3c-0.1,0-0.3,0.1-0.3,0.1c0,0,0.2,0.1,0.3,0.1c1,0,2,0,3-0.1c0.7,0,1.5-0.1,2.2-0.1c0.4,0,0.8,0.1,0.8,0.2
		c0,0.3,0,0.4,0.9,0.2c0.3-0.1,0.6-0.1,0.9-0.1c1.2,0.1,2.3,0,3.4-0.1c2-0.2,4.1-0.1,6.1-0.3c1-0.1,1.9,0,2.6,0.3c0,0,0,0,0,0
		c0,0,0.1,0,0.1,0c0,0,0,0,0,0l0,0c0,0-0.1,0-0.1,0c3.2-0.1,6.4-0.2,9.6,0.1c0.4,0,0.8,0.1,1.2,0.1c1.9-0.1,3.8,0.1,5.7,0
		c4.1-0.1,8.2,0.3,12.3,0.2c3.2,0.2,6.3-0.1,9.3-0.4c2.4-0.2,4.8-0.4,7.3-0.4c0.9,0,1.8,0,2.7,0c3.1,0,6.1,0.1,9.2,0.1
		c0.2,0,0.5,0,0.6-0.1c0.1-0.1-0.2-0.1-0.4-0.2c-0.8-0.1-1.6-0.1-2.4-0.1c-1.1,0-2.1,0-3.1-0.2c-0.9-0.2-1.9-0.2-3.1-0.2
		c-1.5,0-3.1,0-4.5-0.2c0.7-0.2,2-0.2,1.9-0.4c0-0.4-1.4-0.2-2-0.3c-0.1,0-0.1,0-0.1-0.1c0.2-0.2,0.9-0.1,1.2-0.2
		c0.9-0.4,2-0.3,3.2-0.4c2.2-0.1,4.4-0.1,6.7-0.1c0.8,0,1.7,0,2.5,0c-2.8-0.2-5.6-0.3-8.3-0.4c-4.1-0.2-8.1-0.4-12.2-0.6
		c-4.9-0.1-9.7-0.2-14.6-0.2c-3.3,0-6.6,0.1-9.9,0c-4.1,0-8.3-0.1-12.4,0c-2.1,0-4.3,0.1-6.4,0.1c-5.3,0-10.6,0.2-15.8,0.4
		c-0.6,0-1.2,0.1-1.7,0c-1.6-0.3-3.2-0.2-4.9-0.2c-1.5,0-3,0.1-4.5,0.1c-0.8,0-1.7,0-2.3-0.3c-0.6-0.2-1.3-0.2-2-0.2
		c-0.9,0-1.8,0-2.7,0.1c-1.1,0.1-2.1,0.1-3.2,0.1c-2.5,0-5,0-7.4,0c-0.7,0-1.3,0-1.9-0.2c-0.2-0.1-0.2-0.1-0.1-0.2
		c0.2-0.1,0.7-0.2,0.7-0.3c-0.4-0.2-1.5,0-1.5-0.2c-0.1-0.3,1-0.2,1.4-0.3c0.2,0,0.1-0.1-0.1-0.1c-0.5-0.1-0.8-0.1-0.1-0.2
		c0.5-0.1,1.4-0.1,1.5-0.2c0.4-0.4,1.3-0.4,2.2-0.3c1.5,0,3,0.1,4.5,0.1c1.5,0,3,0.1,4.5,0.1c0.8,0,1.5,0,2.1-0.2
		c1-0.3,2.2-0.3,3.4-0.5c1.4-0.1,2.9-0.3,4.4-0.3c0.8,0,1.4-0.1,2-0.4c-3.8,0.1-7.3,0.1-10.9,0c-3.4-0.1-6.9,0-10.4-0.2
		c-3.5-0.2-7-0.2-10.6-0.5c0.3-0.1,0.4-0.1,0.5-0.1c3.4-0.2,6.9-0.3,10.4-0.1c1.2,0.1,2.4,0.1,3.7,0.1c0.7,0,1.3-0.1,1.6-0.3
		c0.2-0.2,0.6-0.3,1.1-0.3c0.6-0.1,0.9,0,1.1,0.2c0.2,0.3,0.8,0.5,1.8,0.5c1.6,0,3.1,0,4.7,0c0.9,0,1.6-0.1,2,0.3
		c0.2,0.1,0.7,0.1,1.1,0.1c1.2,0,2.3-0.1,3.4-0.3c0.5-0.1,1.1-0.1,1.7-0.2c1.3-0.1,2.6-0.1,4-0.1c1,0,2-0.1,2.8,0.2
		c0.7,0.2,1.6,0.2,2.6,0.1c0.7-0.1,1.3-0.2,2.1-0.1c0.1,0.4-0.5,0.7-1.7,0.8c-0.6,0-1.4,0-1.8,0.2c-0.7,0.3-1.4,0.6-2.8,0.4
		c-0.2,0-0.6,0.1-0.9,0.1c-0.4,0-0.8,0.1-1.2,0.1c-0.6,0-0.7-0.1-0.6-0.3c0,0-0.1-0.1-0.1-0.2c-1.2,0.1-2.3,0.3-3.6,0.2
		c-0.3,0-0.7,0-0.9,0.1c-0.7,0.2-1.3,0.1-2.1,0.1c-1.4-0.1-2.7-0.1-3.7,0.4c0.5,0.1,1,0.1,1.5,0.1c1.8,0,3.6,0,5.5-0.1
		c1,0,2-0.1,2.7,0.2c0.2,0.1,0.6,0.1,0.9,0.1c1,0,2,0,2.7-0.3c0.1-0.1,0.5-0.1,0.7-0.1c0.3,0,0.3,0.1,0.2,0.2
		c-0.2,0.2-0.4,0.4,0,0.6c0.5,0.2,1.1,0.2,1.8,0.2c0.7,0,1.3,0,2,0c0.6,0,1.2,0,1.5,0.2c0.5,0.3,1.3,0.3,2.1,0.3
		c1.9-0.1,3.8,0.1,5.5-0.4c0.1,0,0.2,0,0.2,0c1.4,0,2.6-0.2,3.9-0.2c0.5,0,1,0,1.3,0.1c0.5,0.2,1.3,0.2,2,0.2c0.5,0,1,0,1.5,0
		c3.6,0,7.3-0.2,10.9,0c0.1,0,0.2,0,0.2,0c0.1,0,0.3-0.1,0.4-0.1c-0.2-0.1-0.4-0.1-0.6-0.2c0.7-0.1,1.4-0.1,2.2-0.1
		c0.8,0,1.6,0,2.1,0.3c0.3,0.2,1.1,0.4,1.8,0.4c2,0,4,0.1,5.9,0c0.4,0,0.9,0,1-0.2c0.3-0.3,1-0.3,1.8-0.3c2.5,0,4.9,0.1,7.4,0.2
		c1.5,0,3,0.1,4.5,0c1.1,0,2.1,0,3.2-0.1c0.7,0,1.5,0,2.4-0.1c-0.6-0.1-1.1-0.2-2-0.4c1.5,0,2.4,0,3.4,0c1.2,0,2.5,0,3.7,0
		c1,0,1.6-0.1,1.8-0.5c0.1-0.2,0.5-0.3,1.1-0.3c0.7,0,1.5,0,2.2,0c0.4,0,0.8,0.1,1.2-0.1c-2.1-0.1-3.9-0.3-5.7-0.5
		c-1.2-0.2-2.3-0.2-3.6-0.3c-2.7-0.1-5.4-0.1-8.2-0.2c-5.8-0.1-11.5-0.3-17.3-0.4c-1.2,0-2.3,0-3.5,0c-2.4,0.1-4.8-0.1-7.2-0.1
		c-0.2,0-0.3,0-0.5-0.1c-0.1,0-0.2-0.1-0.2-0.1c0,0,0.1-0.1,0.3-0.1c1.1-0.1,2.3-0.1,3.5,0c4.5,0.1,8.9,0.2,13.4,0.1
		c1.9,0,3.8-0.1,5.7,0c2.7,0.1,5.5,0,8.2,0.2c0.2,0,0.5,0,0.6-0.1c0,0-0.1-0.1-0.2-0.1c-0.6-0.3-0.5-0.4,0.4-0.4c0.6,0,1.2,0,1.7,0
		c0.1,0,0.3-0.1,0.3-0.1c0,0-0.1-0.1-0.2-0.1c-0.7-0.1-1.5-0.2-2.3-0.2c-2.5-0.1-4.9-0.2-7.4-0.3c-2,0-3.9-0.1-5.9-0.1
		c-1.5,0-3.1,0-4.7-0.1c-4.4-0.4-8.9-0.5-13.5-0.4c-0.9,0-1.8,0.1-2.7,0.1c-1.8,0-3.6-0.1-5.3,0.2c-0.3,0-0.6,0-1,0
		c-0.5,0-1-0.1-1.5,0c-1.8,0.2-3.6,0.1-5.4,0.2c-0.9,0.1-1.8,0.1-2.7,0c-0.8-0.1-1.6-0.1-2.4,0c-1.3,0.1-2.6,0.1-3.9,0.2
		c-0.9,0.1-1.8,0.1-2.7,0.1c-1.8-0.1-3.6,0-5.4,0.2c-0.9,0.1-2,0.2-2.9,0.1c-1.6-0.2-3.3-0.1-4.9,0c-3.3,0.1-6.5,0.3-9.9,0.2
		c-2.6,0-5.2-0.2-7.9-0.2c-2.4,0-4.8-0.2-7.1-0.2c-3.9-0.1-7.9,0-11.8,0c-0.3,0-0.6-0.1-0.9-0.1c-1.2-0.1-2.4-0.1-3.7-0.2
		c-1.9,0-3.8,0-5.7,0c-2.6,0-5.2,0-7.8,0c0-1.6,0-3.3,0.1-4.9c0-2.5,0-5.1-0.1-7.6c0-0.1,0-0.2,0-0.3c0.2-1.3,0.2-2.7,0.2-4.1
		c0-2.4,0-4.8,0.1-7.2c0-2.3,0.1-4.6,0.1-6.9c0.1-3.6,0.3-7.2,0.4-10.8c0.1-2.1,0.1-4.3,0-6.4c-0.1-1.6-0.1-3.3-0.2-4.9
		c0-0.7,0-1.5,0-2.2c-0.2-2.5-0.2-5.1-0.1-7.7c0.1-3.7,0-7.4,0.2-11.1c0-0.3,0-0.7,0-1c0-4.3,0.2-8.5,0.2-12.9
		c0-3.9,0.2-7.7,0.3-11.6c0-1.2,0.1-2.5,0.1-3.7c0-4.6,0.2-9.1,0.1-13.6c0-0.4,0-0.8,0-1.2c0-1.7,0-3.3,0-5c0-1.9,0-3.8,0-5.7
		c0-1.2,0-2.5,0-3.7c0-4.3-0.1-8.6-0.1-12.9c0-1.2,0-2.4,0-3.7c0-1.1,0.1-2.2,0.1-3.3c0-0.6,0.1-1.2,0.1-1.9
		c0.1-1.6,0.2-3.2,0.3-4.9c0.2,0,0.4,0,0.6,0c4.6,0.1,9.3,0.1,13.9-0.1c3.6-0.1,7.1-0.2,10.6-0.2c3.9,0,7.8,0.2,11.6,0
		c0.3,0,0.7,0,1,0c1.5,0.1,3,0.1,4.5,0.1c3.6,0,7.3,0,10.9-0.1c1-0.1,2,0,2.9,0.1c0.5,0.1,1.2,0.1,1.7,0.1c2.5-0.2,5-0.1,7.4-0.2
		c1.1-0.1,2.3-0.1,3.5,0c2.3,0.2,4.6,0.2,6.9,0.2c5,0,10.1,0.2,15.1,0.3c2.5,0,4.9,0.1,7.4,0.1c1.2,0,2.3,0,3.5,0
		c2.3-0.1,4.6-0.1,6.9-0.1c3.6,0,7.1-0.1,10.7-0.1c-0.9-0.1-1.9,0-2.8-0.2c0.2-0.2,0.5-0.2,0.8-0.2c0.6,0,1.2,0,1.7,0
		c1.7,0,3.3,0,5-0.1c0.3,0,0.8,0,0.7-0.1c0-0.1-0.5-0.1-0.8-0.2c-0.7,0-1.5,0-2.2,0c-1.7,0-3.5,0-5.2-0.1c-1.9-0.1-3.8-0.2-5.6-0.2
		c-0.2,0-0.5,0-0.5-0.2c1.1-0.1,2.3,0,3.4,0c1.2,0,2.5,0,3.7,0c1.2,0,2.3,0,3.5,0c1.2,0,2.4,0,3.6-0.1c-1.1-0.1-2.2-0.1-3.4-0.2
		c-2.4-0.1-4.8-0.2-7.2-0.2c-2.2,0.1-4.5,0-6.7,0c-2,0-3.9-0.1-5.9-0.3c-2.2-0.2-4.5-0.2-6.6,0c-1.3,0.1-2.4,0.1-3.6-0.1
		c-1.7-0.3-3.5-0.3-5.3-0.1c-0.6,0.1-1.1,0.1-1.7,0.1c-3.5,0-6.9-0.2-10.4,0c-0.6,0-1.3,0-2,0c-0.7,0-1.3,0-2,0
		c-0.2,0-0.5,0.1-0.4,0.2c0,0,0.2,0.1,0.3,0.1c1.2,0,2.3,0,3.5,0c1.2,0,2.5,0,3.7,0c0.2,0,0.5,0.1,0.5,0.1c0.1,0.2-0.4,0.2-0.6,0.2
		c-1.3,0-2.6,0-4,0c-0.7,0-1.3-0.1-2,0c-2.1,0.3-4.3,0.3-6.6,0.4c-0.6,0-1.1,0.1-1.7,0.1c-0.3,0-0.7,0.1-0.8,0.2
		c-0.4,0.3-1.3,0.3-2.1,0.3c-1.6,0-3.1,0-4.7,0c-0.3,0-0.7,0-0.7-0.1c0.8-0.2,1.9-0.1,2.9-0.3c-2.5-0.3-5.1-0.2-7.7-0.2
		c-0.7,0-1.5,0.1-2.2,0.3c1.3,0.1,2.7,0,3.7,0.3c-0.9,0.1-1.7,0.1-2.5,0.1c-0.5,0-1,0-1.5,0c-2.3,0.2-4.6,0.1-6.9,0.2
		c-0.9,0-1.6-0.1-2.3-0.2c-0.2-0.1-0.4-0.1-0.2-0.2c0.5-0.2,0.1-0.3-0.4-0.4c-0.6-0.1-1.3-0.2-2.3-0.3c2.7-0.2,4.9-0.3,7.5-0.2
		c-1-0.3-1.8-0.3-2.8-0.3c-1.1,0.1-2.3,0.1-3.4-0.1c-0.3-0.1-0.7-0.1-1,0c-0.8,0.1-1.6,0-2.5,0c-2.9-0.1-5.9-0.4-8.9-0.2
		c-0.3,0-0.6,0-1-0.1c-0.1,0-0.1,0-0.1-0.1c0,0,0-0.1,0.1-0.1c0.4-0.1,0.7-0.1,1.1-0.2c0.9-0.1,1.7-0.2,2.8,0
		c0.9,0.2,2.1,0.1,3.1-0.1c1.2-0.2,2.4-0.2,3.6-0.2c1.5,0.1,3,0.1,4.4-0.2c0.5-0.1,1.1-0.1,1.7,0c1.8,0.4,3.8,0.3,5.7,0.2
		c0.6,0,1.1-0.1,1.2-0.4c0.1-0.3,0.7-0.4,1.4-0.4c2.2,0,4.4-0.2,6.6-0.4c1.1-0.1,2,0,2.8,0.3c0.6,0.3,2,0.2,2.5-0.1
		c0.2-0.1,0.3-0.3,0.4-0.4c0.3-0.4,0.6-0.5,1.8-0.5c0.3,0,0.7,0,1,0c1.4,0.2,2.9,0.1,4.4,0.1c0.4,0,0.8,0,1.2,0c0.2,0,0.3,0,0.5,0
		c0.1,0,0.2,0,0.1,0.1c-0.1,0-0.2,0.1-0.2,0.1c-1.7,0-3.4,0-5.2,0c-0.2,0.6,0.6,0.7,1.9,0.7c0.1,0,0.1,0,0.2,0.1
		c-0.8,0.2-1.7,0.2-2.5,0.3c-0.1,0-0.3,0.1-0.3,0.1c0,0,0.2,0.1,0.3,0.1c1,0,2,0,3-0.1c0.7,0,1.5-0.1,2.2-0.1c0.4,0,0.8,0.1,0.8,0.2
		c0,0.3,0,0.4,0.9,0.2c0.3-0.1,0.6-0.1,0.9-0.1c1.2,0.1,2.3,0,3.4-0.1c2-0.2,4.1-0.1,6.1-0.3c1-0.1,1.9,0,2.6,0.3c0,0,0,0,0,0
		c0,0,0.1,0,0.1,0c0,0,0,0,0,0l0,0c0,0-0.1,0-0.1,0c3.2-0.1,6.4-0.2,9.6,0.1c0.4,0,0.8,0.1,1.2,0.1c1.9-0.1,3.8,0.1,5.7,0
		c4.1-0.1,8.2,0.3,12.3,0.2c3.2,0.2,6.3-0.1,9.3-0.4c2.4-0.2,4.8-0.4,7.3-0.4c0.9,0,1.8,0,2.7,0c3.1,0,6.1,0.1,9.2,0.1
		c0.2,0,0.5,0,0.6-0.1c0.1-0.1-0.2-0.1-0.4-0.2c-0.8-0.1-1.6-0.1-2.4-0.1c-1.1,0-2.1,0-3.1-0.2c-0.9-0.2-1.9-0.2-3.1-0.2
		c-1.5,0-3.1,0-4.5-0.2c0.7-0.2,2-0.2,1.9-0.4c0-0.4-1.4-0.2-2-0.3c-0.1,0-0.1,0-0.1-0.1c0.2-0.2,0.9-0.1,1.2-0.2
		c0.9-0.4,2-0.3,3.2-0.4c2.2-0.1,4.4-0.1,6.7-0.1c0.8,0,1.7,0,2.5,0c-2.8-0.2-5.6-0.3-8.3-0.4c-4.1-0.2-8.1-0.4-12.2-0.6
		c-4.9-0.1-9.7-0.2-14.6-0.2c-3.3,0-6.6,0.1-9.9,0c-4.1,0-8.3-0.1-12.4,0c-2.1,0-4.3,0.1-6.4,0.1c-5.3,0-10.6,0.2-15.8,0.4
		c-0.6,0-1.2,0.1-1.7,0c-1.6-0.3-3.2-0.2-4.9-0.2c-1.5,0-3,0.1-4.5,0.1c-0.8,0-1.7,0-2.3-0.3c-0.6-0.2-1.3-0.2-2-0.2
		c-0.9,0-1.8,0-2.7,0.1c-1.1,0.1-2.1,0.1-3.2,0.1c-2.5,0-5,0-7.4,0c-0.7,0-1.3,0-1.9-0.2c-0.2-0.1-0.2-0.1-0.1-0.2
		c0.2-0.1,0.7-0.2,0.7-0.3c-0.4-0.2-1.5,0-1.5-0.2c-0.1-0.3,1-0.2,1.4-0.3c0.2,0,0.1-0.1-0.1-0.1c-0.5-0.1-0.8-0.1-0.1-0.2
		c0.5-0.1,1.4-0.1,1.5-0.2c0.4-0.4,1.3-0.4,2.2-0.3c1.5,0,3,0.1,4.5,0.1c1.5,0,3,0.1,4.5,0.1c0.8,0,1.5,0,2.1-0.2
		c1-0.3,2.2-0.3,3.4-0.5c1.4-0.1,2.9-0.3,4.4-0.3c0.8,0,1.4-0.1,2-0.4c-3.8,0.1-7.3,0.1-10.9,0c-3.4-0.1-6.9,0-10.4-0.2
		c-3.5-0.2-7-0.2-10.6-0.5c0.3-0.1,0.4-0.1,0.5-0.1c3.4-0.2,6.9-0.3,10.4-0.1c1.2,0.1,2.4,0.1,3.7,0.1c0.7,0,1.3-0.1,1.6-0.3
		c0.2-0.2,0.6-0.3,1.1-0.3c0.6-0.1,0.9,0,1.1,0.2c0.2,0.3,0.8,0.5,1.8,0.5c1.6,0,3.1,0,4.7,0c0.9,0,1.6-0.1,2,0.3
		c0.2,0.1,0.7,0.1,1.1,0.1c1.2,0,2.3-0.1,3.4-0.3c0.5-0.1,1.1-0.1,1.7-0.2c1.3-0.1,2.6-0.1,4-0.1c1,0,2-0.1,2.8,0.2
		c0.7,0.2,1.6,0.2,2.6,0.1c0.7-0.1,1.3-0.2,2.1-0.1c0.1,0.4-0.5,0.7-1.7,0.8c-0.6,0-1.4,0-1.8,0.2c-0.7,0.3-1.4,0.6-2.8,0.4
		c-0.2,0-0.6,0.1-0.9,0.1c-0.4,0-0.8,0.1-1.2,0.1c-0.6,0-0.7-0.1-0.6-0.3c0,0-0.1-0.1-0.1-0.2c-1.2,0.1-2.3,0.3-3.6,0.2
		c-0.3,0-0.7,0-0.9,0.1c-0.7,0.2-1.3,0.1-2.1,0.1c-1.4-0.1-2.7-0.1-3.7,0.4c0.5,0.1,1,0.1,1.5,0.1c1.8,0,3.6,0,5.5-0.1
		c1,0,2-0.1,2.7,0.2c0.2,0.1,0.6,0.1,0.9,0.1c1,0,2,0,2.7-0.3c0.1-0.1,0.5-0.1,0.7-0.1c0.3,0,0.3,0.1,0.2,0.2
		c-0.2,0.2-0.4,0.4,0,0.6c0.5,0.2,1.1,0.2,1.8,0.2c0.7,0,1.3,0,2,0c0.6,0,1.2,0,1.5,0.2c0.5,0.3,1.3,0.3,2.1,0.3
		c1.9-0.1,3.8,0.1,5.5-0.4c0.1,0,0.2,0,0.2,0c1.4,0,2.6-0.2,3.9-0.2c0.5,0,1,0,1.3,0.1c0.5,0.2,1.3,0.2,2,0.2c0.5,0,1,0,1.5,0
		c3.6,0,7.3-0.2,10.9,0c0.1,0,0.2,0,0.2,0c0.1,0,0.3-0.1,0.4-0.1c-0.2-0.1-0.4-0.1-0.6-0.2c0.7-0.1,1.4-0.1,2.2-0.1
		c0.8,0,1.6,0,2.1,0.3c0.3,0.2,1.1,0.4,1.8,0.4c2,0,4,0.1,5.9,0c0.4,0,0.9,0,1-0.2c0.3-0.3,1-0.3,1.8-0.3c2.5,0,4.9,0.1,7.4,0.2
		c1.5,0,3,0.1,4.5,0c1.1,0,2.1,0,3.2-0.1c0.7,0,1.5,0,2.4-0.1c-0.6-0.1-1.1-0.2-2-0.4c1.5,0,2.4,0,3.4,0c1.2,0,2.5,0,3.7,0
		c1,0,1.6-0.1,1.8-0.5c0.1-0.2,0.5-0.3,1.1-0.3c0.7,0,1.5,0,2.2,0c0.4,0,0.8,0.1,1.2-0.1c-2.1-0.1-3.9-0.3-5.7-0.5
		c-1.2-0.2-2.3-0.2-3.6-0.3c-2.7-0.1-5.4-0.1-8.2-0.2c-5.8-0.1-11.5-0.3-17.3-0.4c-1.2,0-2.3,0-3.5,0c-2.4,0.1-4.8-0.1-7.2-0.1
		c-0.2,0-0.3,0-0.5-0.1c-0.1,0-0.2-0.1-0.2-0.1c0,0,0.1-0.1,0.3-0.1c1.1-0.1,2.3-0.1,3.5,0c4.5,0.1,8.9,0.2,13.4,0.1
		c1.9,0,3.8-0.1,5.7,0c2.7,0.1,5.5,0,8.2,0.2c0.2,0,0.5,0,0.6-0.1c0,0-0.1-0.1-0.2-0.1c-0.6-0.3-0.5-0.4,0.4-0.4c0.6,0,1.2,0,1.7,0
		c0.1,0,0.3-0.1,0.3-0.1c0,0-0.1-0.1-0.2-0.1c-0.7-0.1-1.5-0.2-2.3-0.2c-2.5-0.1-4.9-0.2-7.4-0.3c-2,0-3.9-0.1-5.9-0.1
		c-1.5,0-3.1,0-4.7-0.1c-4.4-0.4-8.9-0.5-13.5-0.4c-0.9,0-1.8,0.1-2.7,0.1c-1.8,0-3.6-0.1-5.3,0.2c-0.3,0-0.6,0-1,0
		c-0.5,0-1-0.1-1.5,0c-1.8,0.2-3.6,0.1-5.4,0.2c-0.9,0.1-1.8,0.1-2.7,0c-0.8-0.1-1.6-0.1-2.4,0c-1.3,0.1-2.6,0.1-3.9,0.2
		c-0.9,0.1-1.8,0.1-2.7,0.1c-1.8-0.1-3.6,0-5.4,0.2c-0.9,0.1-2,0.2-2.9,0.1c-1.6-0.2-3.3-0.1-4.9,0c-3.3,0.1-6.5,0.3-9.9,0.2
		c-2.6,0-5.2-0.2-7.9-0.2c-2.4,0-4.8-0.2-7.1-0.2c-3.9-0.1-7.9,0-11.8,0c-0.3,0-0.6-0.1-0.9-0.1c-1.2-0.1-2.4-0.1-3.7-0.2
		c-1.9,0-3.8,0-5.7,0c-1.6,0-3.2,0-4.9,0c0-1.1,0-2.2,0.1-3.3c0.1-4.6,0.1-9.3-0.1-13.9c-0.1-3.6-0.2-7.1-0.2-10.6
		c0-3.9,0.2-7.8,0-11.6c0-0.3,0-0.7,0-1c0.1-1.5,0.1-3,0.1-4.5c0-3.6,0-7.3-0.1-10.9c-0.1-1,0-2,0.1-2.9c0.1-0.5,0.1-1.2,0.1-1.7
		c-0.2-2.5-0.1-5-0.2-7.4c-0.1-1.1-0.1-2.3,0-3.5c0.2-2.3,0.2-4.6,0.2-6.9c0-5,0.2-10.1,0.3-15.1c0-2.5,0.1-4.9,0.1-7.4
		c0-1.2,0-2.3,0-3.5c-0.1-2.3-0.1-4.6-0.1-6.9c0-3.6-0.1-7.1-0.1-10.7c-0.1,0.9,0,1.9-0.2,2.8c-0.2-0.2-0.2-0.5-0.2-0.8
		c0-0.6,0-1.2,0-1.7c0-1.7,0-3.3-0.1-5c0-0.3,0-0.8-0.1-0.7c-0.1,0-0.1,0.5-0.2,0.8c0,0.7,0,1.5,0,2.2c0,1.7,0,3.5-0.1,5.2
		c-0.1,1.9-0.2,3.8-0.2,5.6c0,0.2,0,0.5-0.2,0.5c-0.1-1.1,0-2.3,0-3.4c0-1.2,0-2.5,0-3.7c0-1.2,0-2.3,0-3.5c0-1.2,0-2.4-0.1-3.6
		c-0.1,1.1-0.1,2.2-0.2,3.4c-0.1,2.4-0.2,4.8-0.2,7.2c0.1,2.2,0,4.5,0,6.7c0,2-0.1,3.9-0.3,5.9c-0.2,2.2-0.2,4.5,0,6.6
		c0.1,1.3,0.1,2.4-0.1,3.6c-0.3,1.7-0.3,3.5-0.1,5.3c0.1,0.6,0.1,1.1,0.1,1.7c0,3.5-0.2,6.9,0,10.4c0,0.6,0,1.3,0,2c0,0.7,0,1.3,0,2
		c0,0.2,0.1,0.5,0.2,0.4c0,0,0.1-0.2,0.1-0.3c0-1.2,0-2.3,0-3.5c0-1.2,0-2.5,0-3.7c0-0.2,0.1-0.5,0.1-0.5c0.2-0.1,0.2,0.4,0.2,0.6
		c0,1.3,0,2.6,0,4c0,0.7-0.1,1.3,0,2c0.3,2.1,0.3,4.3,0.4,6.6c0,0.6,0.1,1.1,0.1,1.7c0,0.3,0.1,0.7,0.2,0.8c0.3,0.4,0.3,1.3,0.3,2.1
		c0,1.6,0,3.1,0,4.7c0,0.3,0,0.7-0.1,0.7c-0.2-0.8-0.1-1.9-0.3-2.9c-0.3,2.5-0.2,5.1-0.2,7.7c0,0.7,0.1,1.5,0.3,2.2
		c0.1-1.3,0-2.7,0.3-3.7c0.1,0.9,0.1,1.7,0.1,2.5c0,0.5,0,1,0,1.5c0.2,2.3,0.1,4.6,0.2,6.9c0,0.9-0.1,1.6-0.2,2.3
		c-0.1,0.2-0.1,0.4-0.2,0.2c-0.2-0.5-0.3-0.1-0.4,0.4c-0.1,0.6-0.2,1.3-0.3,2.3c-0.2-2.7-0.3-4.9-0.2-7.5c-0.3,1-0.3,1.8-0.3,2.8
		c0.1,1.1,0.1,2.3-0.1,3.4c-0.1,0.3-0.1,0.7,0,1c0.1,0.8,0,1.6,0,2.5c-0.1,2.9-0.4,5.9-0.2,8.9c0,0.3,0,0.6-0.1,1
		c0,0.1,0,0.1-0.1,0.1c0,0-0.1,0-0.1-0.1c-0.1-0.4-0.1-0.7-0.2-1.1c-0.1-0.9-0.2-1.7,0-2.8c0.2-0.9,0.1-2.1-0.1-3.1
		c-0.2-1.2-0.2-2.4-0.2-3.6c0.1-1.5,0.1-3-0.2-4.4c-0.1-0.5-0.1-1.1,0-1.7c0.4-1.8,0.3-3.8,0.2-5.7c0-0.6-0.1-1.1-0.4-1.2
		c-0.3-0.1-0.4-0.7-0.4-1.4c0-2.2-0.2-4.4-0.4-6.6c-0.1-1.1,0-2,0.3-2.8c0.3-0.6,0.2-2-0.1-2.5c-0.1-0.2-0.3-0.3-0.4-0.4
		c-0.4-0.3-0.5-0.6-0.5-1.8c0-0.3,0-0.7,0-1c0.2-1.4,0.1-2.9,0.1-4.4c0-0.4,0-0.8,0-1.2c0-0.2,0-0.3,0-0.5c0-0.1,0-0.2,0.1-0.1
		c0,0.1,0.1,0.2,0.1,0.2c0,1.7,0,3.4,0,5.2c0.6,0.2,0.7-0.6,0.7-1.9c0-0.1,0-0.1,0.1-0.2c0.2,0.8,0.2,1.7,0.3,2.5
		c0,0.1,0.1,0.3,0.1,0.3c0,0,0.1-0.2,0.1-0.3c0-1,0-2-0.1-3c0-0.7-0.1-1.5-0.1-2.2c0-0.4,0.1-0.8,0.2-0.8c0.3,0,0.4,0,0.2-0.9
		c-0.1-0.3-0.1-0.6-0.1-0.9c0.1-1.2,0-2.3-0.1-3.4c-0.2-2-0.1-4.1-0.3-6.1c-0.1-1,0-1.9,0.3-2.6c0,0,0,0,0,0c0,0,0-0.1,0-0.1
		c0,0,0,0,0,0l0,0c0,0,0,0.1,0,0.1c-0.1-3.2-0.2-6.4,0.1-9.6c0-0.4,0.1-0.8,0.1-1.2c-0.1-1.9,0.1-3.8,0-5.7
		c-0.1-4.1,0.3-8.2,0.2-12.3c0.2-3.2-0.1-6.3-0.4-9.3c-0.2-2.4-0.4-4.8-0.4-7.3c0-0.9,0-1.8,0-2.7c0-3.1,0.1-6.1,0.1-9.2
		c0-0.2,0-0.5-0.1-0.6c-0.1-0.1-0.1,0.2-0.2,0.4c-0.1,0.8-0.1,1.6-0.1,2.4c0,1.1,0,2.1-0.2,3.1c-0.2,0.9-0.2,1.9-0.2,3.1
		c0,1.5,0,3.1-0.2,4.5c-0.2-0.7-0.2-2-0.4-1.9c-0.4,0-0.2,1.4-0.3,2c0,0.1,0,0.1-0.1,0.1c-0.2-0.2-0.1-0.9-0.2-1.2
		c-0.4-0.9-0.3-2-0.4-3.2c-0.1-2.2-0.1-4.4-0.1-6.7c0-0.8,0-1.7,0-2.5c-0.2,2.8-0.3,5.6-0.4,8.3c-0.2,4.1-0.4,8.1-0.6,12.2
		c-0.1,4.9-0.2,9.7-0.2,14.6c0,3.3,0.1,6.6,0,9.9c0,4.1-0.1,8.3,0,12.4c0,2.1,0.1,4.3,0.1,6.4c0,5.3,0.2,10.6,0.4,15.8
		c0,0.6,0.1,1.2,0,1.7c-0.3,1.6-0.2,3.2-0.2,4.9c0,1.5,0.1,3,0.1,4.5c0,0.8,0,1.7-0.3,2.3c-0.2,0.6-0.2,1.3-0.2,2
		c0,0.9,0,1.8,0.1,2.7c0.1,1.1,0.1,2.1,0.1,3.2c0,2.5,0,5,0,7.4c0,0.7,0,1.3-0.2,1.9c-0.1,0.2-0.1,0.2-0.2,0.1
		c-0.1-0.2-0.2-0.7-0.3-0.7c-0.2,0.4,0,1.5-0.2,1.5c-0.3,0.1-0.2-1-0.3-1.4c0-0.2-0.1-0.1-0.1,0.1c-0.1,0.5-0.1,0.8-0.2,0.1
		c-0.1-0.5-0.1-1.4-0.2-1.5c-0.4-0.4-0.4-1.3-0.3-2.2c0-1.5,0.1-3,0.1-4.5c0-1.5,0.1-3,0.1-4.5c0-0.8,0-1.5-0.2-2.1
		c-0.3-1-0.3-2.2-0.5-3.4c-0.1-1.4-0.3-2.9-0.3-4.4c0-0.8-0.1-1.4-0.4-2c0.1,3.8,0.1,7.3,0,10.9c-0.1,3.4,0,6.9-0.2,10.4
		c-0.2,3.5-0.2,7-0.5,10.6c-0.1-0.3-0.1-0.4-0.1-0.5c-0.2-3.4-0.3-6.9-0.1-10.4c0.1-1.2,0.1-2.4,0.1-3.7c0-0.7-0.1-1.3-0.3-1.6
		c-0.2-0.2-0.3-0.6-0.3-1.1c-0.1-0.6,0-0.9,0.2-1.1c0.3-0.2,0.5-0.8,0.5-1.8c0-1.6,0-3.1,0-4.7c0-0.9-0.1-1.6,0.3-2
		c0.1-0.2,0.1-0.7,0.1-1.1c0-1.2-0.1-2.3-0.3-3.4c-0.1-0.5-0.1-1.1-0.2-1.7c-0.1-1.3-0.1-2.6-0.1-4c0-1-0.1-2,0.2-2.8
		c0.2-0.7,0.2-1.6,0.1-2.6c-0.1-0.7-0.2-1.3-0.1-2.1c0.4-0.1,0.7,0.5,0.8,1.7c0,0.6,0,1.4,0.2,1.8c0.3,0.7,0.6,1.4,0.4,2.8
		c0,0.2,0.1,0.6,0.1,0.9c0,0.4,0.1,0.8,0.1,1.2c0,0.6-0.1,0.7-0.3,0.6c0,0-0.1,0.1-0.2,0.1c0.1,1.2,0.3,2.3,0.2,3.6
		c0,0.3,0,0.7,0.1,0.9c0.2,0.7,0.1,1.3,0.1,2.1c-0.1,1.4-0.1,2.7,0.4,3.7c0.1-0.5,0.1-1,0.1-1.5c0-1.8,0-3.6-0.1-5.5
		c0-1-0.1-2,0.2-2.7c0.1-0.2,0.1-0.6,0.1-0.9c0-1,0-2-0.3-2.7c-0.1-0.1-0.1-0.5-0.1-0.7c0-0.3,0.1-0.3,0.2-0.2
		c0.2,0.2,0.4,0.4,0.6,0c0.2-0.5,0.2-1.1,0.2-1.8c0-0.7,0-1.3,0-2c0-0.6,0-1.2,0.2-1.5c0.3-0.5,0.3-1.3,0.3-2.1
		c-0.1-1.9,0.1-3.8-0.4-5.5c0-0.1,0-0.2,0-0.2c0-1.4-0.2-2.6-0.2-3.9c0-0.5,0-1,0.1-1.3c0.2-0.5,0.2-1.3,0.2-2c0-0.5,0-1,0-1.5
		c0-3.6-0.2-7.3,0-10.9c0-0.1,0-0.2,0-0.2c0-0.1-0.1-0.3-0.1-0.4c-0.1,0.2-0.1,0.4-0.2,0.6c-0.1-0.7-0.1-1.4-0.1-2.2
		c0-0.8,0-1.6,0.3-2.1c0.2-0.3,0.4-1.1,0.4-1.8c0-2,0.1-4,0-5.9c0-0.4,0-0.9-0.2-1c-0.3-0.3-0.3-1-0.3-1.8c0-2.5,0.1-4.9,0.2-7.4
		c0-1.5,0.1-3,0-4.5c0-1.1,0-2.1-0.1-3.2c0-0.7,0-1.5-0.1-2.4c-0.1,0.6-0.2,1.1-0.4,2c0-1.5,0-2.4,0-3.4c0-1.2,0-2.5,0-3.7
		c0-1-0.1-1.6-0.5-1.8c-0.2-0.1-0.3-0.5-0.3-1.1c0-0.7,0-1.5,0-2.2c0-0.4,0.1-0.8-0.1-1.2c-0.1,2.1-0.3,3.9-0.5,5.7
		c-0.2,1.2-0.2,2.3-0.3,3.6c-0.1,2.7-0.1,5.4-0.2,8.2c-0.1,5.8-0.3,11.5-0.4,17.3c0,1.2,0,2.3,0,3.5c0.1,2.4-0.1,4.8-0.1,7.2
		c0,0.2,0,0.3-0.1,0.5c0,0.1-0.1,0.2-0.1,0.2c0,0-0.1-0.1-0.1-0.3c-0.1-1.1-0.1-2.3,0-3.5c0.1-4.5,0.2-8.9,0.1-13.4
		c0-1.9-0.1-3.8,0-5.7c0.1-2.7,0-5.5,0.2-8.2c0-0.2,0-0.5-0.1-0.6c0,0-0.1,0.1-0.1,0.2c-0.3,0.6-0.4,0.5-0.4-0.4c0-0.6,0-1.2,0-1.7
		c0-0.1-0.1-0.3-0.1-0.3c0,0-0.1,0.1-0.1,0.2c-0.1,0.7-0.2,1.5-0.2,2.3c-0.1,2.5-0.2,4.9-0.3,7.4c0,2-0.1,3.9-0.1,5.9
		c0,1.5,0,3.1-0.1,4.7c-0.4,4.4-0.5,8.9-0.4,13.5c0,0.9,0.1,1.8,0.1,2.7c0,1.8-0.1,3.6,0.2,5.3c0,0.3,0,0.6,0,1c0,0.5-0.1,1,0,1.5
		c0.2,1.8,0.1,3.6,0.2,5.4c0.1,0.9,0.1,1.8,0,2.7c-0.1,0.8-0.1,1.6,0,2.4c0.1,1.3,0.1,2.6,0.2,3.9c0.1,0.9,0.1,1.8,0.1,2.7
		c-0.1,1.8,0,3.6,0.2,5.4c0.1,0.9,0.2,2,0.1,2.9c-0.2,1.6-0.1,3.3,0,4.9c0.1,3.3,0.3,6.5,0.2,9.9c0,2.6-0.2,5.2-0.2,7.9
		c0,2.4-0.2,4.8-0.2,7.1c-0.1,3.9,0,7.9,0,11.8c0,0.3-0.1,0.6-0.1,0.9c-0.1,1.2-0.1,2.4-0.2,3.7c0,1.9,0,3.8,0,5.7
		c0,2.6,0,5.2,0,7.8c-1.6,0-3.3,0-4.9-0.1c-2.5,0-5.1,0-7.6,0.1c-0.1,0-0.2,0-0.3,0c-1.3-0.2-2.7-0.2-4.1-0.2c-2.4,0-4.8,0-7.2-0.1
		c-2.3,0-4.6-0.1-6.9-0.1c-3.6-0.1-7.2-0.3-10.8-0.4c-2.1-0.1-4.3-0.1-6.4,0c-1.6,0.1-3.3,0.1-4.9,0.2c-0.7,0-1.5,0-2.2,0
		c-2.5,0.2-5.1,0.2-7.7,0.1c-3.7-0.1-7.4,0-11.1-0.2c-0.3,0-0.7,0-1,0c-4.3,0-8.5-0.2-12.9-0.2c-3.9,0-7.7-0.2-11.6-0.3
		c-1.2,0-2.5-0.1-3.7-0.1c-4.6,0-9.1-0.2-13.6-0.1c-0.4,0-0.8,0-1.2,0c-1.7,0-3.3,0-5,0c-1.9,0-3.8,0-5.7,0c-1.2,0-2.5,0-3.7,0
		c-4.3,0-8.6,0.1-12.9,0.1c-1.2,0-2.4,0-3.7,0c-1.1,0-2.2-0.1-3.3-0.1c-0.6,0-1.2-0.1-1.9-0.1c-1.6-0.1-3.2-0.2-4.9-0.3
		c0-0.2,0-0.4,0-0.6c0.1-4.6,0.1-9.3-0.1-13.9c-0.1-3.6-0.2-7.1-0.2-10.6c0-3.9,0.2-7.8,0-11.6c0-0.3,0-0.7,0-1
		c0.1-1.5,0.1-3,0.1-4.5c0-3.6,0-7.3-0.1-10.9c-0.1-1,0-2,0.1-2.9c0.1-0.5,0.1-1.2,0.1-1.7c-0.2-2.5-0.1-5-0.2-7.4
		c-0.1-1.1-0.1-2.3,0-3.5c0.2-2.3,0.2-4.6,0.2-6.9c0-5,0.2-10.1,0.3-15.1c0-2.5,0.1-4.9,0.1-7.4c0-1.2,0-2.3,0-3.5
		c-0.1-2.3-0.1-4.6-0.1-6.9c0-3.6-0.1-7.1-0.1-10.7c-0.1,0.9,0,1.9-0.2,2.8c-0.2-0.2-0.2-0.5-0.2-0.8c0-0.6,0-1.2,0-1.7
		c0-1.7,0-3.3-0.1-5c0-0.3,0-0.8-0.1-0.7c-0.1,0-0.1,0.5-0.2,0.8c0,0.7,0,1.5,0,2.2c0,1.7,0,3.5-0.1,5.2c-0.1,1.9-0.2,3.8-0.2,5.6
		c0,0.2,0,0.5-0.2,0.5c-0.1-1.1,0-2.3,0-3.4c0-1.2,0-2.5,0-3.7c0-1.2,0-2.3,0-3.5c0-1.2,0-2.4-0.1-3.6c-0.1,1.1-0.1,2.2-0.2,3.4
		c-0.1,2.4-0.2,4.8-0.2,7.2c0.1,2.2,0,4.5,0,6.7c0,2-0.1,3.9-0.3,5.9c-0.2,2.2-0.2,4.5,0,6.6c0.1,1.3,0.1,2.4-0.1,3.6
		c-0.3,1.7-0.3,3.5-0.1,5.3c0.1,0.6,0.1,1.1,0.1,1.7c0,3.5-0.2,6.9,0,10.4c0,0.6,0,1.3,0,2c0,0.7,0,1.3,0,2c0,0.2,0.1,0.5,0.2,0.4
		c0,0,0.1-0.2,0.1-0.3c0-1.2,0-2.3,0-3.5c0-1.2,0-2.5,0-3.7c0-0.2,0.1-0.5,0.1-0.5c0.2-0.1,0.2,0.4,0.2,0.6c0,1.3,0,2.6,0,4
		c0,0.7-0.1,1.3,0,2c0.3,2.1,0.3,4.3,0.4,6.6c0,0.6,0.1,1.1,0.1,1.7c0,0.3,0.1,0.7,0.2,0.8c0.3,0.4,0.3,1.3,0.3,2.1
		c0,1.6,0,3.1,0,4.7c0,0.3,0,0.7-0.1,0.7c-0.2-0.8-0.1-1.9-0.3-2.9c-0.3,2.5-0.2,5.1-0.2,7.7c0,0.7,0.1,1.5,0.3,2.2
		c0.1-1.3,0-2.7,0.3-3.7c0.1,0.9,0.1,1.7,0.1,2.5c0,0.5,0,1,0,1.5c0.2,2.3,0.1,4.6,0.2,6.9c0,0.9-0.1,1.6-0.2,2.3
		c-0.1,0.2-0.1,0.4-0.2,0.2c-0.2-0.5-0.3-0.1-0.4,0.4c-0.1,0.6-0.2,1.3-0.3,2.3c-0.2-2.7-0.3-4.9-0.2-7.5c-0.3,1-0.3,1.8-0.3,2.8
		c0.1,1.1,0.1,2.3-0.1,3.4c-0.1,0.3-0.1,0.7,0,1c0.1,0.8,0,1.6,0,2.5c-0.1,2.9-0.4,5.9-0.2,8.9c0,0.3,0,0.6-0.1,1
		c0,0.1,0,0.1-0.1,0.1c0,0-0.1,0-0.1-0.1c-0.1-0.4-0.1-0.7-0.2-1.1c-0.1-0.9-0.2-1.7,0-2.8c0.2-0.9,0.1-2.1-0.1-3.1
		c-0.2-1.2-0.2-2.4-0.2-3.6c0.1-1.5,0.1-3-0.2-4.4c-0.1-0.5-0.1-1.1,0-1.7c0.4-1.8,0.3-3.8,0.2-5.7c0-0.6-0.1-1.1-0.4-1.2
		c-0.3-0.1-0.4-0.7-0.4-1.4c0-2.2-0.2-4.4-0.4-6.6c-0.1-1.1,0-2,0.3-2.8c0.3-0.6,0.2-2-0.1-2.5c-0.1-0.2-0.3-0.3-0.4-0.4
		c-0.4-0.3-0.5-0.6-0.5-1.8c0-0.3,0-0.7,0-1c0.2-1.4,0.1-2.9,0.1-4.4c0-0.4,0-0.8,0-1.2c0-0.2,0-0.3,0-0.5c0-0.1,0-0.2,0.1-0.1
		c0,0.1,0.1,0.2,0.1,0.2c0,1.7,0,3.4,0,5.2c0.6,0.2,0.7-0.6,0.7-1.9c0-0.1,0-0.1,0.1-0.2c0.2,0.8,0.2,1.7,0.3,2.5
		c0,0.1,0.1,0.3,0.1,0.3c0,0,0.1-0.2,0.1-0.3c0-1,0-2-0.1-3c0-0.7-0.1-1.5-0.1-2.2c0-0.4,0.1-0.8,0.2-0.8c0.3,0,0.4,0,0.2-0.9
		c-0.1-0.3-0.1-0.6-0.1-0.9c0.1-1.2,0-2.3-0.1-3.4c-0.2-2-0.1-4.1-0.3-6.1c-0.1-1,0-1.9,0.3-2.6c0,0,0,0,0,0c0,0,0-0.1,0-0.1
		c0,0,0,0,0,0l0,0c0,0,0,0.1,0,0.1c-0.1-3.2-0.2-6.4,0.1-9.6c0-0.4,0.1-0.8,0.1-1.2c-0.1-1.9,0.1-3.8,0-5.7
		c-0.1-4.1,0.3-8.2,0.2-12.3c0.2-3.2-0.1-6.3-0.4-9.3c-0.2-2.4-0.4-4.8-0.4-7.3c0-0.9,0-1.8,0-2.7c0-3.1,0.1-6.1,0.1-9.2
		C168.6,16.2,168.6,15.9,168.5,15.8z M163.8,84.5c0,0.1,0,0.1,0,0.2C163.7,84.6,163.7,84.5,163.8,84.5c-0.1-0.1,0-0.1,0-0.2
		C163.8,84.3,163.8,84.4,163.8,84.5z M163.8,80.7c0,0.2,0,0.4-0.1,0.9C163.7,81.1,163.7,80.9,163.8,80.7c-0.1-0.2-0.1-0.4-0.1-0.5
		C163.8,80.3,163.8,80.6,163.8,80.7z M163,71.2c0,0.5,0.1,0.9,0,1.3c-0.1-0.4-0.1-0.9-0.1-1.3c0-0.1,0-0.1,0.1-0.1
		C163,71.1,163,71.1,163,71.2z M159.6,72.5c0-0.1,0-0.3,0.1-0.4c0.1-0.1,0.1,0.1,0.2,0.4c0,0.9,0.1,1.8-0.1,2.7
		C159.7,74.3,159.7,73.4,159.6,72.5z M160.8,84.8c-0.2-1.2-0.4-2.5-0.2-3.8c0.1-0.8,0.1-1.6,0.1-2.4c-0.1-1.2,0-2.3,0-3.4
		c0.1-1.7,0-3.5,0.1-5.2c0-0.7,0-1.3,0-2c0-0.4,0.1-0.7,0.2-0.7c0.1,0,0.2,0.2,0.3,0.5c0.2,0.6,0.2,1.2,0.2,1.9c0,1.7,0,3.3,0,5
		c0,3.1-0.1,6.1-0.1,9.2c0,0.3,0,0.7-0.1,1c0,0.2-0.1,0.4-0.2,0.4C161,85.2,160.8,85.1,160.8,84.8z M160.7,111.6
		c-0.1-1.2-0.2-2.5,0-3.9c0.3,1.6,0.4,2.7,0.3,3.9c0,0.1-0.1,0.2-0.1,0.2C160.7,111.9,160.7,111.7,160.7,111.6z M160.4,124.5
		c0-0.1,0-0.1,0-0.2c0,0,0.1,0,0.1,0c0,0.2,0,0.3,0,0.3C160.5,124.7,160.5,124.6,160.4,124.5z M81.5,160.7c-0.1,0-0.1,0-0.2,0
		c0,0-0.1,0-0.1,0c0.1,0,0.1,0,0.2,0C81.4,160.6,81.5,160.6,81.5,160.7z M74.9,160.6C74.9,160.5,74.9,160.5,74.9,160.6
		c0.9-0.1,2-0.1,3-0.1c0.2,0,0.5,0,0.4,0.1c-0.1,0-0.4,0.1-0.6,0.1C76.8,160.7,75.9,160.6,74.9,160.6z M32,161
		c-0.2,0-0.4-0.1-0.6-0.1c0.2,0,0.4,0,0.5-0.1c0.2,0,0.3,0,0.4,0c0.1,0,0.2,0,0.3,0.1c-0.1,0-0.2,0.1-0.4,0.1
		C32.2,161,32.1,161,32,161z M81.3,161c0.6-0.1,1.2-0.1,2,0C82.6,161.1,81.9,161,81.3,161z M80.1,164.7c0.1-0.1,0.3-0.1,0.5-0.1
		c0.2,0,0.4,0,0.9,0.1c-0.5,0-0.7,0-1,0C80.4,164.7,80.3,164.7,80.1,164.7z M84.2,164.7c0.1,0,0.1,0,0.2,0c0.1,0,0.1,0,0.2,0
		c-0.1,0-0.1,0-0.2,0C84.3,164.7,84.2,164.7,84.2,164.7z M71.1,165.5c-0.1,0-0.1,0-0.1-0.1c0,0,0.1-0.1,0.1-0.1c0.5,0,0.9-0.1,1.3,0
		C72,165.6,71.6,165.5,71.1,165.5z M80.9,167.8c-0.8-0.1-1.6-0.1-2.4-0.1c-1.2,0.1-2.3,0-3.4,0c-1.7-0.1-3.5,0-5.2-0.1
		c-0.7,0-1.3,0-2,0c-0.4,0-0.7-0.1-0.7-0.2c0-0.1,0.2-0.2,0.5-0.3c0.6-0.2,1.2-0.2,1.9-0.2c1.7,0,3.3,0,5,0c3.1,0,6.1,0.1,9.2,0.1
		c0.3,0,0.7,0,1,0.1c0.2,0,0.4,0.1,0.4,0.2c0.1,0.1,0,0.2-0.3,0.3C83.4,167.8,82.2,168,80.9,167.8z M107.6,167.8
		c1.6-0.3,2.7-0.4,3.9-0.3c0.1,0,0.2,0.1,0.2,0.1c0,0-0.1,0.1-0.3,0.1C110.3,167.9,109,167.9,107.6,167.8z M75.1,168.7
		c-0.9,0.1-1.8,0.1-2.7,0.1c-0.1,0-0.3,0-0.4-0.1c-0.1-0.1,0.1-0.1,0.4-0.2C73.3,168.5,74.2,168.5,75.1,168.7z M82.4,332.3
		c-0.1,0-0.1,0-0.2,0c0,0-0.1,0-0.1,0c0.1,0,0.1,0,0.2,0C82.3,332.3,82.3,332.3,82.4,332.3z M75.8,332.2
		C75.7,332.2,75.7,332.1,75.8,332.2c0.9-0.1,2-0.1,3-0.1c0.2,0,0.5,0,0.4,0.1c-0.1,0-0.4,0.1-0.6,0.1
		C77.7,332.3,76.7,332.2,75.8,332.2z M32.9,332.7c-0.2,0-0.4-0.1-0.6-0.1c0.2,0,0.4,0,0.5-0.1c0.2,0,0.3,0,0.4,0
		c0.1,0,0.2,0,0.3,0.1c-0.1,0-0.2,0.1-0.4,0.1C33.1,332.7,32.9,332.7,32.9,332.7z M82.1,332.6c0.6-0.1,1.2-0.1,2,0
		C83.4,332.7,82.8,332.7,82.1,332.6z M81,336.3c0.1-0.1,0.3-0.1,0.5-0.1c0.2,0,0.4,0,0.9,0.1c-0.5,0-0.7,0-1,0
		C81.3,336.4,81.1,336.3,81,336.3z M85,336.3c0.1,0,0.1,0,0.2,0c0.1,0,0.1,0,0.2,0c-0.1,0-0.1,0-0.2,0
		C85.1,336.3,85.1,336.3,85,336.3z M71.9,337.1c-0.1,0-0.1,0-0.1-0.1c0,0,0.1-0.1,0.1-0.1c0.5,0,0.9-0.1,1.3,0
		C72.9,337.2,72.4,337.2,71.9,337.1z M81.7,339.5c-0.8-0.1-1.6-0.1-2.4-0.1c-1.2,0.1-2.3,0-3.4,0c-1.7-0.1-3.5,0-5.2-0.1
		c-0.7,0-1.3,0-2,0c-0.4,0-0.7-0.1-0.7-0.2c0-0.1,0.2-0.2,0.5-0.3c0.6-0.2,1.2-0.2,1.9-0.2c1.7,0,3.3,0,5,0c3.1,0,6.1,0.1,9.2,0.1
		c0.3,0,0.7,0,1,0.1c0.2,0,0.4,0.1,0.4,0.2c0.1,0.1,0,0.2-0.3,0.3C84.3,339.5,83,339.7,81.7,339.5z M108.5,339.4
		c1.6-0.3,2.7-0.4,3.9-0.3c0.1,0,0.2,0.1,0.2,0.1c0,0-0.1,0.1-0.3,0.1C111.1,339.5,109.9,339.5,108.5,339.4z M75.9,340.3
		c-0.9,0.1-1.8,0.1-2.7,0.1c-0.1,0-0.3,0-0.4-0.1c-0.1-0.1,0.1-0.1,0.4-0.2C74.1,340.2,75,340.1,75.9,340.3z M161.8,467.8
		c0,0.1,0,0.2,0,0.2c0,0.2-0.1,0.4-0.1,0.6c0-0.2,0-0.4-0.1-0.5c0-0.2,0-0.3,0-0.4c0-0.1,0-0.2,0.1-0.3
		C161.7,467.5,161.8,467.6,161.8,467.8z M161.4,421.7c0,0.1,0.1,0.4,0.1,0.6c0,1-0.1,1.9-0.1,2.8c0,0-0.1,0.1-0.1,0.1
		c0-1,0-2.1,0-3.1C161.2,421.9,161.3,421.6,161.4,421.7z M161.4,418.7c0,0,0-0.1,0-0.1C161.4,418.6,161.4,418.6,161.4,418.7
		c0.1,0.1,0.1,0.1,0,0.2C161.4,418.8,161.4,418.7,161.4,418.7z M161.8,418.8c-0.1-0.6-0.1-1.2,0-2
		C161.8,417.5,161.8,418.1,161.8,418.8z M163.3,407.4c0,0.1,0,0.3-0.1,0.4c0-0.1-0.1-0.1-0.1-0.2c-0.1-0.5-0.1-1.1-0.1-1.9
		C163.2,406.3,163.3,406.8,163.3,407.4z M163.4,400.9c0,0,0,0.2,0,0.2c0,0.1,0,0.1,0,0.2c0-0.1,0-0.1,0-0.2
		C163.3,400.9,163.3,400.8,163.4,400.9z M162.1,399.4c-0.1-2.6-0.1-5.2-0.2-7.8C162.2,394.2,162.3,396.9,162.1,399.4z M160.8,386.9
		c0,0.1-0.1,0.3-0.1,0.3c-0.1-0.1-0.1-0.3-0.1-0.5c0-0.1,0.1-0.3,0.1-0.2C160.7,386.4,160.8,386.6,160.8,386.9z M165.4,370.9
		c0,0.1,0,0.1,0,0.2c0,0,0,0-0.1,0C165.3,371,165.3,370.9,165.4,370.9C165.4,370.7,165.4,370.7,165.4,370.9z M164.6,368.7
		c0,0.1,0,0.3,0,0.4c0-0.1-0.1-0.2-0.1-0.3c0-0.1,0-0.2,0.1-0.3C164.6,368.6,164.6,368.6,164.6,368.7z M165.4,415.7
		c0-0.1,0-0.1,0-0.2C165.5,415.6,165.5,415.6,165.4,415.7c0.1,0.1,0,0.1,0,0.2C165.4,415.8,165.4,415.7,165.4,415.7z M165.4,419.4
		c0-0.2,0-0.4,0.1-0.9C165.5,419.1,165.5,419.3,165.4,419.4c0.1,0.2,0.1,0.4,0.1,0.5C165.4,419.9,165.4,419.6,165.4,419.4z
		 M166.1,429c0-0.5-0.1-0.9,0-1.3c0.1,0.4,0.1,0.9,0.1,1.3c0,0.1,0,0.1-0.1,0.1C166.2,429.1,166.1,429,166.1,429z M169.5,427.6
		c0,0.1,0,0.3-0.1,0.4c-0.1,0.1-0.1-0.1-0.2-0.4c0-0.9-0.1-1.8,0.1-2.7C169.5,425.8,169.5,426.7,169.5,427.6z M168.4,415.4
		c0.2,1.2,0.4,2.5,0.2,3.8c-0.1,0.8-0.1,1.6-0.1,2.4c0.1,1.2,0,2.3,0,3.4c-0.1,1.7,0,3.5-0.1,5.2c0,0.7,0,1.3,0,2
		c0,0.4-0.1,0.7-0.2,0.7c-0.1,0-0.2-0.2-0.3-0.5c-0.2-0.6-0.2-1.2-0.2-1.9c0-1.7,0-3.3,0-5c0-3.1,0.1-6.1,0.1-9.2c0-0.3,0-0.7,0.1-1
		c0-0.2,0.1-0.4,0.2-0.4C168.2,415,168.4,415.1,168.4,415.4z M168.5,388.5c0.1,1.2,0.2,2.5,0,3.9c-0.3-1.6-0.4-2.7-0.3-3.9
		c0-0.1,0.1-0.2,0.1-0.2C168.4,388.3,168.5,388.4,168.5,388.5z M168.7,375.6c0,0.1,0,0.1,0,0.2c0,0-0.1,0-0.1,0c0-0.2,0-0.3,0-0.3
		C168.7,375.5,168.7,375.6,168.7,375.6z M159.6,363.5c0-0.9,0-1.8,0-2.7c0-0.6,0.1-1.3,0.1-1.9c0,0,0.1,0,0.1-0.1
		c0.1,1.5,0.1,3,0.2,4.6c0,0.3,0,0.7-0.2,0.7C159.7,364.2,159.6,363.8,159.6,363.5z M164.2,355.5c0,0.5,0.1,1,0.1,1.6
		c0,0.4,0.1,0.8,0.1,1.2c-0.1,2.2,0,4.4,0,6.7c0,0.1,0,0.3-0.1,0.7c-0.2-2.1-0.3-4.8-0.3-10.4c0,0,0,0,0,0
		C164,355,164.1,355.3,164.2,355.5z M159.8,354.6c-0.1-0.3-0.1-0.5-0.1-0.8c0,0,0.1,0,0.1,0C159.8,354.1,159.8,354.3,159.8,354.6z
		 M333.4,466.9c0,0.1,0,0.2,0,0.2c0,0.2-0.1,0.4-0.1,0.6c0-0.2,0-0.4-0.1-0.5c0-0.2,0-0.3,0-0.4c0-0.1,0-0.2,0.1-0.3
		C333.4,466.7,333.4,466.8,333.4,466.9z M333,420.8c0,0.1,0.1,0.4,0.1,0.6c0,1-0.1,1.9-0.1,2.8c0,0-0.1,0.1-0.1,0.1c0-1,0-2.1,0-3.1
		C332.9,421,332.9,420.7,333,420.8z M333,417.8c0,0,0-0.1,0-0.1C333,417.7,333.1,417.8,333,417.8c0.1,0.1,0.1,0.1,0,0.2
		C333,417.9,333,417.9,333,417.8z M333.4,417.9c-0.1-0.6-0.1-1.2,0-2C333.5,416.7,333.4,417.3,333.4,417.9z M334.9,406.6
		c0,0.1,0,0.3-0.1,0.4c0-0.1-0.1-0.1-0.1-0.2c-0.1-0.5-0.1-1.1-0.1-1.9C334.8,405.5,334.9,406,334.9,406.6z M335,400.1
		c0,0,0,0.2,0,0.2c0,0.1,0,0.1,0,0.2c0-0.1,0-0.1,0-0.2C334.9,400,334.9,399.9,335,400.1z M333.7,398.6c-0.1-2.6-0.1-5.2-0.2-7.8
		C333.8,393.4,333.9,396,333.7,398.6z M332.4,386c0,0.1-0.1,0.3-0.1,0.3c-0.1-0.1-0.1-0.3-0.1-0.5c0-0.1,0.1-0.3,0.1-0.2
		C332.4,385.5,332.4,385.8,332.4,386z M337,370.1c0,0.1,0,0.1,0,0.2c0,0,0,0-0.1,0C337,370.2,337,370.1,337,370.1
		C337,369.9,337,369.9,337,370.1z M336.2,367.8c0,0.1,0,0.3,0,0.4c0-0.1-0.1-0.2-0.1-0.3c0-0.1,0-0.2,0.1-0.3
		C336.2,367.7,336.2,367.8,336.2,367.8z M337,414.8c0-0.1,0-0.1,0-0.2C337.1,414.7,337.1,414.8,337,414.8c0.1,0.1,0,0.1,0,0.2
		C337,415,337,414.9,337,414.8z M337,418.6c0-0.2,0-0.4,0.1-0.9C337.1,418.2,337.1,418.4,337,418.6c0.1,0.2,0.1,0.4,0.1,0.5
		C337,419,337,418.8,337,418.6z M337.8,428.1c0-0.5-0.1-0.9,0-1.3c0.1,0.4,0.1,0.9,0.1,1.3c0,0.1,0,0.1-0.1,0.1
		C337.8,428.3,337.8,428.2,337.8,428.1z M341.2,426.8c0,0.1,0,0.3-0.1,0.4c-0.1,0.1-0.1-0.1-0.2-0.4c0-0.9-0.1-1.8,0.1-2.7
		C341.1,425,341.1,425.9,341.2,426.8z M340,414.5c0.2,1.2,0.4,2.5,0.2,3.8c-0.1,0.8-0.1,1.6-0.1,2.4c0.1,1.2,0,2.3,0,3.4
		c-0.1,1.7,0,3.5-0.1,5.2c0,0.7,0,1.3,0,2c0,0.4-0.1,0.7-0.2,0.7c-0.1,0-0.2-0.2-0.3-0.5c-0.2-0.6-0.2-1.2-0.2-1.9c0-1.7,0-3.3,0-5
		c0-3.1,0.1-6.1,0.1-9.2c0-0.3,0-0.7,0.1-1c0-0.2,0.1-0.4,0.2-0.4C339.9,414.1,340,414.2,340,414.5z M340.1,387.7
		c0.1,1.2,0.2,2.5,0,3.9c-0.3-1.6-0.4-2.7-0.3-3.9c0-0.1,0.1-0.2,0.1-0.2C340.1,387.4,340.1,387.6,340.1,387.7z M340.4,374.8
		c0,0.1,0,0.1,0,0.2c0,0-0.1,0-0.1,0c0-0.2,0-0.3,0-0.3C340.3,374.7,340.3,374.7,340.4,374.8z M331.3,362.7c0-0.9,0-1.8,0-2.7
		c0-0.6,0.1-1.3,0.1-1.9c0,0,0.1,0,0.1-0.1c0.1,1.5,0.1,3,0.2,4.6c0,0.3,0,0.7-0.2,0.7C331.3,363.3,331.3,363,331.3,362.7z
		 M335.8,354.6c0,0.5,0.1,1,0.1,1.6c0,0.4,0.1,0.8,0.1,1.2c-0.1,2.2,0,4.4,0,6.7c0,0.1,0,0.3-0.1,0.7c-0.2-2.1-0.3-4.8-0.3-10.4
		c0,0,0,0,0,0C335.6,354.1,335.7,354.4,335.8,354.6z M331.4,353.8c-0.1-0.3-0.1-0.5-0.1-0.8c0,0,0.1,0,0.1,0
		C331.4,353.2,331.4,353.5,331.4,353.8z M419.3,338.6c0.1,0,0.1,0,0.2,0c0,0,0.1,0,0.1,0c-0.1,0-0.1,0-0.2,0
		C419.4,338.7,419.3,338.7,419.3,338.6z M425.9,338.7C425.9,338.8,425.9,338.8,425.9,338.7c-0.9,0.1-2,0.1-3,0.1
		c-0.2,0-0.5,0-0.4-0.1c0.1,0,0.4-0.1,0.6-0.1C424,338.6,424.9,338.7,425.9,338.7z M468.8,338.3c0.2,0,0.4,0.1,0.6,0.1
		c-0.2,0-0.4,0-0.5,0.1c-0.2,0-0.3,0-0.4,0c-0.1,0-0.2,0-0.3-0.1c0.1,0,0.2-0.1,0.4-0.1C468.6,338.3,468.7,338.3,468.8,338.3z
		 M419.5,338.3c-0.6,0.1-1.2,0.1-2,0C418.3,338.2,418.9,338.3,419.5,338.3z M420.7,334.6c-0.1,0.1-0.3,0.1-0.5,0.1
		c-0.2,0-0.4,0-0.9-0.1c0.5,0,0.7,0,1,0C420.4,334.6,420.5,334.6,420.7,334.6z M416.6,334.6c-0.1,0-0.1,0-0.2,0c-0.1,0-0.1,0-0.2,0
		c0.1,0,0.1,0,0.2,0C416.5,334.6,416.6,334.6,416.6,334.6z M429.7,333.8c0.1,0,0.1,0,0.1,0.1c0,0-0.1,0.1-0.1,0.1
		c-0.5,0-0.9,0.1-1.3,0C428.8,333.7,429.2,333.8,429.7,333.8z M419.9,331.5c0.8,0.1,1.6,0.1,2.4,0.1c1.2-0.1,2.3,0,3.4,0
		c1.7,0.1,3.5,0,5.2,0.1c0.7,0,1.3,0,2,0c0.4,0,0.7,0.1,0.7,0.2c0,0.1-0.2,0.2-0.5,0.3c-0.6,0.2-1.2,0.2-1.9,0.2c-1.7,0-3.3,0-5,0
		c-3.1,0-6.1-0.1-9.2-0.1c-0.3,0-0.7,0-1-0.1c-0.2,0-0.4-0.1-0.4-0.2c-0.1-0.1,0-0.2,0.3-0.3C417.4,331.5,418.6,331.3,419.9,331.5z
		 M393.2,331.5c-1.6,0.3-2.7,0.4-3.9,0.3c-0.1,0-0.2-0.1-0.2-0.1c0,0,0.1-0.1,0.3-0.1C390.5,331.5,391.8,331.4,393.2,331.5z
		 M425.7,330.7c0.9-0.1,1.8-0.1,2.7-0.1c0.1,0,0.3,0,0.4,0.1c0.1,0.1-0.1,0.1-0.4,0.2C427.5,330.8,426.6,330.8,425.7,330.7z
		 M418.4,167c0.1,0,0.1,0,0.2,0c0,0,0.1,0,0.1,0c-0.1,0-0.1,0-0.2,0C418.5,167.1,418.5,167,418.4,167z M425,167.1
		C425.1,167.1,425.1,167.2,425,167.1c-0.9,0.1-2,0.1-3,0.1c-0.2,0-0.5,0-0.4-0.1c0.1,0,0.4-0.1,0.6-0.1
		C423.1,167,424.1,167.1,425,167.1z M467.9,166.6c0.2,0,0.4,0.1,0.6,0.1c-0.2,0-0.4,0-0.5,0.1c-0.2,0-0.3,0-0.4,0
		c-0.1,0-0.2,0-0.3-0.1c0.1,0,0.2-0.1,0.4-0.1C467.8,166.6,467.9,166.6,467.9,166.6z M418.7,166.7c-0.6,0.1-1.2,0.1-2,0
		C417.4,166.6,418,166.6,418.7,166.7z M419.8,163c-0.1,0.1-0.3,0.1-0.5,0.1c-0.2,0-0.4,0-0.9-0.1c0.5,0,0.7,0,1,0
		C419.5,162.9,419.7,163,419.8,163z M415.8,163c-0.1,0-0.1,0-0.2,0c-0.1,0-0.1,0-0.2,0c0.1,0,0.1,0,0.2,0
		C415.7,163,415.7,163,415.8,163z M428.9,162.2c0.1,0,0.1,0,0.1,0.1c0,0-0.1,0.1-0.1,0.1c-0.5,0-0.9,0.1-1.3,0
		C427.9,162.1,428.4,162.1,428.9,162.2z M419.1,159.8c0.8,0.1,1.6,0.1,2.4,0.1c1.2-0.1,2.3,0,3.4,0c1.7,0.1,3.5,0,5.2,0.1
		c0.7,0,1.3,0,2,0c0.4,0,0.7,0.1,0.7,0.2c0,0.1-0.2,0.2-0.5,0.3c-0.6,0.2-1.2,0.2-1.9,0.2c-1.7,0-3.3,0-5,0c-3.1,0-6.1-0.1-9.2-0.1
		c-0.3,0-0.7,0-1-0.1c-0.2,0-0.4-0.1-0.4-0.2c-0.1-0.1,0-0.2,0.3-0.3C416.5,159.8,417.8,159.6,419.1,159.8z M392.3,159.9
		c-1.6,0.3-2.7,0.4-3.9,0.3c-0.1,0-0.2-0.1-0.2-0.1c0,0,0.1-0.1,0.3-0.1C389.7,159.8,390.9,159.8,392.3,159.9z M424.9,159
		c0.9-0.1,1.8-0.1,2.7-0.1c0.1,0,0.3,0,0.4,0.1c0.1,0.1-0.1,0.1-0.4,0.2C426.7,159.1,425.8,159.2,424.9,159z M339,31.5
		c0-0.1,0-0.2,0-0.2c0-0.2,0.1-0.4,0.1-0.6c0,0.2,0,0.4,0.1,0.5c0,0.2,0,0.3,0,0.4c0,0.1,0,0.2-0.1,0.3
		C339.1,31.8,339,31.7,339,31.5z M339.4,77.6c0-0.1-0.1-0.4-0.1-0.6c0-1,0.1-1.9,0.1-2.8c0,0,0.1-0.1,0.1-0.1c0,1,0,2.1,0,3.1
		C339.6,77.4,339.5,77.7,339.4,77.6z M339.4,80.6c0,0,0,0.1,0,0.1C339.4,80.7,339.4,80.7,339.4,80.6c-0.1-0.1-0.1-0.1,0-0.2
		C339.4,80.5,339.4,80.6,339.4,80.6z M339,80.5c0.1,0.6,0.1,1.2,0,2C339,81.8,339,81.2,339,80.5z M337.5,91.9c0-0.1,0-0.3,0.1-0.4
		c0,0.1,0.1,0.1,0.1,0.2c0.1,0.5,0.1,1.1,0.1,1.9C337.6,93,337.5,92.5,337.5,91.9z M337.4,98.4c0,0,0-0.2,0-0.2c0-0.1,0-0.1,0-0.2
		c0,0.1,0,0.1,0,0.2C337.5,98.4,337.5,98.5,337.4,98.4z M338.7,99.9c0.1,2.6,0.1,5.2,0.2,7.8C338.6,105.1,338.6,102.5,338.7,99.9z
		 M340.1,112.5c0-0.1,0.1-0.3,0.1-0.3c0.1,0.1,0.1,0.3,0.1,0.5c0,0.1-0.1,0.3-0.1,0.2C340.1,112.9,340,112.7,340.1,112.5z
		 M335.4,128.4c0-0.1,0-0.1,0-0.2c0,0,0,0,0.1,0C335.5,128.3,335.5,128.4,335.4,128.4C335.4,128.6,335.4,128.6,335.4,128.4z
		 M336.2,130.6c0-0.1,0-0.3,0-0.4c0,0.1,0.1,0.2,0.1,0.3c0,0.1,0,0.2-0.1,0.3C336.2,130.7,336.2,130.7,336.2,130.6z M335.4,83.6
		c0,0.1,0,0.1,0,0.2C335.4,83.7,335.3,83.7,335.4,83.6c-0.1-0.1,0-0.1,0-0.2C335.4,83.5,335.4,83.6,335.4,83.6z M335.4,79.9
		c0,0.2,0,0.4-0.1,0.9C335.3,80.3,335.3,80,335.4,79.9c-0.1-0.2-0.1-0.4-0.1-0.5C335.4,79.5,335.4,79.7,335.4,79.9z M334.7,70.3
		c0,0.5,0.1,0.9,0,1.3c-0.1-0.4-0.1-0.9-0.1-1.3c0-0.1,0-0.1,0.1-0.1C334.6,70.2,334.7,70.3,334.7,70.3z M331.3,71.7
		c0-0.1,0-0.3,0.1-0.4c0.1-0.1,0.1,0.1,0.2,0.4c0,0.9,0.1,1.8-0.1,2.7C331.4,73.5,331.3,72.6,331.3,71.7z M332.4,83.9
		c-0.2-1.2-0.4-2.5-0.2-3.8c0.1-0.8,0.1-1.6,0.1-2.4c-0.1-1.2,0-2.3,0-3.4c0.1-1.7,0-3.5,0.1-5.2c0-0.7,0-1.3,0-2
		c0-0.4,0.1-0.7,0.2-0.7c0.1,0,0.2,0.2,0.3,0.5c0.2,0.6,0.2,1.2,0.2,1.9c0,1.7,0,3.3,0,5c0,3.1-0.1,6.1-0.1,9.2c0,0.3,0,0.7-0.1,1
		c0,0.2-0.1,0.4-0.2,0.4C332.6,84.3,332.4,84.2,332.4,83.9z M332.3,110.8c-0.1-1.2-0.2-2.5,0-3.9c0.3,1.6,0.4,2.7,0.3,3.9
		c0,0.1-0.1,0.2-0.1,0.2C332.4,111,332.3,110.9,332.3,110.8z M332.1,123.7c0-0.1,0-0.1,0-0.2c0,0,0.1,0,0.1,0c0,0.2,0,0.3,0,0.3
		C332.1,123.8,332.1,123.7,332.1,123.7z M341.2,135.8c0,0.9,0,1.8,0,2.7c0,0.6-0.1,1.3-0.1,1.9c0,0-0.1,0-0.1,0.1
		c-0.1-1.5-0.1-3-0.2-4.6c0-0.3,0-0.7,0.2-0.7C341.1,135.1,341.2,135.5,341.2,135.8z M336.6,143.8c0-0.5-0.1-1-0.1-1.6
		c0-0.4-0.1-0.8-0.1-1.2c0.1-2.2,0-4.4,0-6.7c0-0.1,0-0.3,0.1-0.7c0.2,2.1,0.3,4.8,0.3,10.4c0,0,0,0,0,0
		C336.8,144.3,336.7,144,336.6,143.8z M341,144.7c0.1,0.3,0.1,0.5,0.1,0.8c0,0-0.1,0-0.1,0C341,145.3,341,145,341,144.7z
		 M146.2,159.1c-0.2,0-0.5,0-0.8,0c0.3-0.1,0.5-0.1,0.8-0.1C146.2,159,146.2,159,146.2,159.1z M135.9,159.1c0-0.1,0.3-0.2,0.6-0.2
		c0.9,0,1.8,0,2.7,0c0.6,0,1.3,0.1,1.9,0.1c0,0,0,0.1,0.1,0.1c-1.5,0.1-3,0.1-4.6,0.2C136.3,159.3,136,159.2,135.9,159.1z
		 M113.2,160c-0.1,0-0.3-0.1-0.3-0.1c0.1-0.1,0.3-0.1,0.5-0.1c0.1,0,0.3,0.1,0.2,0.1C113.7,160,113.4,160,113.2,160z M100.6,161.4
		c2.6-0.1,5.2-0.1,7.8-0.2C105.8,161.5,103.2,161.5,100.6,161.4z M316.2,161.2C316.3,161.2,316.3,161.2,316.2,161.2
		c0.3,0,0.6,0,0.5,0.1c0,0-0.2,0.1-0.4,0.1c-1.5,0.1-3,0.2-4.4,0.2c-3.9,0-7.8,0-11.6-0.2c-0.9,0-1.9,0-3-0.1
		c0.4-0.2,0.7-0.1,1.1-0.1c3.6,0,7.2,0,10.8,0C311.6,161.2,313.9,161.2,316.2,161.2z M236.4,160.8c-0.2,0-0.4,0-0.7,0
		c0,0-0.1,0-0.1,0c-0.5,0-1-0.1-1.4-0.1c-1.4-0.1-2.9-0.1-4.4-0.1c-2.7,0-5.3-0.1-7.9-0.2c-1.3,0-2.6-0.1-4-0.1
		c-4.8,0-9.6-0.1-14.4-0.1c-0.8,0-1.7,0-2.4-0.1c-0.3,0-0.6-0.1-0.5-0.2c0,0,0.1,0,0.2-0.1c3.1,0,6.2,0.3,9.3,0.4
		c2.2,0.1,4.4,0.1,6.7,0c0.8-0.1,1.7-0.1,2.5,0c2.7,0.1,5.4,0.1,8.1,0c0.2,0,0.4,0,0.6,0c0.2,0,0.3,0,0.5,0
		c3.8-0.1,7.6,0.2,11.3,0.3c2.6,0.1,5.2,0.2,7.9,0c0.7-0.1,1.5,0,2.2,0c0.1,0,0.2,0,0.3,0c0.9,0,1.8,0.1,2.8,0.1
		c2.9,0.1,5.9,0.2,9,0.2c0,0,0,0,0,0c-0.3,0.2-0.7,0.2-1,0.2c-1.7,0-3.5,0-5.2,0c-2.5,0-5.1,0.1-7.6,0.2c0,0,0,0-0.1,0
		c-0.2,0-0.3,0-0.5,0c-0.8,0-1.6-0.1-2.4-0.1c-0.3,0-0.7-0.1-1.1,0C241.5,160.8,239,160.7,236.4,160.8z M183.7,166.5
		C183.7,166.5,183.7,166.5,183.7,166.5c-0.3,0-0.6,0-0.5-0.1c0,0,0.2-0.1,0.4-0.1c1.5-0.1,3-0.2,4.4-0.2c3.9,0,7.8,0,11.6,0.2
		c0.9,0,1.9,0,3,0.1c-0.4,0.2-0.7,0.1-1.1,0.1c-3.6,0-7.2,0-10.8,0C188.4,166.4,186.1,166.4,183.7,166.5z M263.5,166.9
		c0.2,0,0.4,0,0.7,0c0,0,0.1,0,0.1,0c0.5,0,1,0.1,1.4,0.1c1.4,0.1,2.9,0.1,4.4,0.1c2.7,0,5.3,0.1,7.9,0.2c1.3,0,2.6,0.1,4,0.1
		c4.8,0,9.6,0.1,14.4,0.1c0.8,0,1.7,0,2.4,0.1c0.3,0,0.6,0.1,0.5,0.2c0,0-0.1,0-0.2,0.1c-3.1,0-6.2-0.3-9.3-0.4
		c-2.2-0.1-4.4-0.1-6.7,0c-0.8,0.1-1.7,0.1-2.5,0c-2.7-0.1-5.4-0.1-8.1,0c-0.2,0-0.4,0-0.6,0c-0.2,0-0.3,0-0.5,0
		c-3.8,0.1-7.6-0.2-11.3-0.3c-2.6-0.1-5.2-0.2-7.9,0c-0.7,0.1-1.5,0-2.2,0c-0.1,0-0.2,0-0.3,0c-0.9,0-1.8-0.1-2.8-0.1
		c-2.9-0.1-5.9-0.2-9-0.2c0,0,0,0,0,0c0.3-0.2,0.7-0.2,1-0.2c1.7,0,3.5,0,5.2,0c2.5,0,5.1-0.1,7.6-0.2c0,0,0,0,0.1,0
		c0.2,0,0.3,0,0.5,0c0.8,0,1.6,0.1,2.4,0.1c0.3,0,0.7,0.1,1.1,0C258.4,166.9,261,167,263.5,166.9z M184.9,168.7c1,0,2.1-0.1,3.1,0
		c5.3,0,10.6-0.1,15.8,0.1c1.8,0.1,3.7,0.1,5.6,0.1c-1.2,0.2-2.5,0.1-3.8,0.1c-6.1-0.1-12.2-0.3-18.3-0.2
		C186.5,168.8,185.7,168.8,184.9,168.7z M92.2,162.5c0.1,0,0.1-0.1,0.2-0.1c0.5-0.1,1.1-0.1,1.9-0.1c-0.6,0.2-1.1,0.3-1.7,0.3
		C92.5,162.5,92.4,162.5,92.2,162.5z M98.9,162.6c-0.1,0-0.1,0-0.2,0C98.8,162.6,98.9,162.6,98.9,162.6c0.3-0.1,0.4-0.1,0.2,0
		C99.1,162.6,99,162.6,98.9,162.6z M141.8,163.6c-2.2-0.1-4.4,0-6.7,0c-0.1,0-0.3,0-0.7-0.1c2.1-0.2,4.8-0.3,10.4-0.3c0,0,0,0,0,0
		c0.2,0.1,0,0.2-0.3,0.3c-0.5,0-1,0.1-1.6,0.1C142.6,163.5,142.2,163.6,141.8,163.6z M131,163.8c0.1,0,0.2-0.1,0.3-0.1
		c0.1,0,0.2,0,0.3,0.1c-0.1,0-0.1,0-0.2,0C131.3,163.8,131.1,163.8,131,163.8z M128.9,164.7C129,164.6,128.9,164.6,128.9,164.7
		c0.1-0.1,0.2-0.1,0.2-0.1c0.2,0,0.2,0.1,0,0.1C129.1,164.7,129,164.7,128.9,164.7z M124.3,168C124.2,167.9,124.2,167.9,124.3,168
		c0.2-0.1,0.3-0.1,0.3,0c0,0-0.1,0-0.1,0C124.4,168,124.3,168,124.3,168z M161.9,183.8c0-0.2,0-0.5,0.1-0.4c0,0,0.1,0.2,0.1,0.4
		c0.1,1.5,0.2,3,0.2,4.4c0,3.9,0,7.8-0.2,11.6c0,0.9,0,1.9-0.1,3c-0.2-0.4-0.1-0.7-0.1-1.1c0-3.6,0-7.2,0-10.8
		C162,188.5,162,186.2,161.9,183.8C161.9,183.8,161.9,183.8,161.9,183.8z M159.4,205.7c0.1-6.1,0.3-12.2,0.2-18.3c0-0.8,0-1.6,0-2.4
		c0,1,0.1,2.1,0,3.1c0,5.3,0.1,10.6-0.1,15.8c-0.1,1.8-0.1,3.7-0.1,5.6C159.3,208.3,159.4,207,159.4,205.7z M167.6,235.9
		c0,0,0-0.1,0-0.1c0-0.5,0.1-1,0.1-1.4c0.1-1.4,0.1-2.9,0.1-4.4c0-2.7,0.1-5.3,0.2-7.9c0-1.3,0.1-2.6,0.1-4c0-4.8,0.1-9.6,0.1-14.4
		c0-0.8,0-1.7,0.1-2.4c0-0.3,0.1-0.6,0.2-0.5c0,0,0,0.1,0.1,0.2c0,3.1-0.3,6.2-0.4,9.3c-0.1,2.2-0.1,4.4,0,6.7
		c0.1,0.8,0.1,1.7,0,2.5c-0.1,2.7-0.1,5.4,0,8.1c0,0.2,0,0.4,0,0.6c0,0.2,0,0.3,0,0.5c0.1,3.8-0.2,7.6-0.3,11.3
		c-0.1,2.6-0.2,5.2,0,7.9c0.1,0.7,0,1.5,0,2.2c0,0.1,0,0.2,0,0.3c0,0.9-0.1,1.8-0.1,2.8c-0.1,2.9-0.2,5.9-0.2,9c0,0,0,0,0,0
		c-0.2-0.3-0.2-0.7-0.2-1c0-1.7,0-3.5,0-5.2c0-2.5-0.1-5.1-0.2-7.6c0,0,0,0,0-0.1c0-0.2,0-0.3,0-0.5c0-0.8,0.1-1.6,0.1-2.4
		c0-0.3,0.1-0.7,0-1.1c0.1-2.5,0.2-5.1,0.1-7.6C167.6,236.3,167.6,236.1,167.6,235.9z M160.6,299.4c0,0,0-0.1-0.1-0.2
		c0-3.1,0.3-6.2,0.4-9.3c0.1-2.2,0.1-4.4,0-6.7c-0.1-0.8-0.1-1.7,0-2.5c0.1-2.7,0.1-5.4,0-8.1c0-0.2,0-0.4,0-0.6c0-0.2,0-0.3,0-0.5
		c-0.1-3.8,0.2-7.6,0.3-11.3c0.1-2.6,0.2-5.2,0-7.9c-0.1-0.7,0-1.5,0-2.2c0-0.1,0-0.2,0-0.3c0-0.9,0.1-1.8,0.1-2.8
		c0.1-2.9,0.2-5.9,0.2-9c0,0,0,0,0,0c0.2,0.3,0.2,0.7,0.2,1c0,1.7,0,3.5,0,5.2c0,2.5,0.1,5.1,0.2,7.6c0,0,0,0,0,0.1
		c0,0.2,0,0.3,0,0.5c0,0.8-0.1,1.6-0.1,2.4c0,0.3-0.1,0.7,0,1.1c-0.1,2.5-0.2,5.1-0.1,7.6c0,0.2,0,0.4,0,0.7c0,0,0,0.1,0,0.1
		c0,0.5-0.1,1-0.1,1.4c-0.1,1.4-0.1,2.9-0.1,4.4c0,2.7-0.1,5.3-0.2,7.9c0,1.3-0.1,2.6-0.1,4c0,4.8-0.1,9.6-0.1,14.4
		c0,0.8,0,1.7-0.1,2.4C160.8,299.2,160.8,299.5,160.6,299.4z M169.7,290.6c0.2,1.2,0.1,2.5,0.1,3.8c-0.1,6.1-0.3,12.2-0.2,18.3
		c0,0.8,0,1.6,0,2.4c0-1-0.1-2.1,0-3.1c0-5.3-0.1-10.6,0.1-15.8C169.7,294.3,169.7,292.5,169.7,290.6z M167.1,316.8
		c0,0-0.1-0.2-0.1-0.4c-0.1-1.5-0.2-3-0.2-4.4c0-3.9,0-7.8,0.2-11.6c0-0.9,0-1.9,0.1-3c0.2,0.4,0.1,0.7,0.1,1.1c0,3.6,0,7.2,0,10.8
		c-0.1,2.3-0.1,4.7,0,7c0,0,0,0,0,0.1C167.3,316.6,167.2,316.9,167.1,316.8z M147.1,330.7c-0.2,0-0.5,0-0.8,0
		c0.3-0.1,0.5-0.1,0.8-0.1C147.1,330.6,147.1,330.6,147.1,330.7z M136.8,330.7c0-0.1,0.3-0.2,0.6-0.2c0.9,0,1.8,0,2.7,0
		c0.6,0,1.3,0.1,1.9,0.1c0,0,0,0.1,0.1,0.1c-1.5,0.1-3,0.1-4.6,0.2C137.1,330.9,136.8,330.8,136.8,330.7z M114,331.6
		c-0.1,0-0.3-0.1-0.3-0.1c0.1-0.1,0.3-0.1,0.5-0.1c0.1,0,0.3,0.1,0.2,0.1C114.5,331.6,114.3,331.7,114,331.6z M184.6,338.1
		C184.5,338.1,184.5,338.1,184.6,338.1c-0.3,0-0.6,0-0.5-0.1c0,0,0.2-0.1,0.4-0.1c1.5-0.1,3-0.2,4.4-0.2c3.9,0,7.8,0,11.6,0.2
		c0.9,0,1.9,0,3,0.1c-0.4,0.2-0.7,0.1-1.1,0.1c-3.6,0-7.2,0-10.8,0C189.2,338.1,186.9,338.1,184.6,338.1z M264.4,338.5
		c0.2,0,0.4,0,0.7,0c0,0,0.1,0,0.1,0c0.5,0,1,0.1,1.4,0.1c1.4,0.1,2.9,0.1,4.4,0.1c2.7,0,5.3,0.1,7.9,0.2c1.3,0,2.6,0.1,4,0.1
		c4.8,0,9.6,0.1,14.4,0.1c0.8,0,1.7,0,2.4,0.1c0.3,0,0.6,0.1,0.5,0.2c0,0-0.1,0-0.2,0.1c-3.1,0-6.2-0.3-9.3-0.4
		c-2.2-0.1-4.4-0.1-6.7,0c-0.8,0.1-1.7,0.1-2.5,0c-2.7-0.1-5.4-0.1-8.1,0c-0.2,0-0.4,0-0.6,0c-0.2,0-0.3,0-0.5,0
		c-3.8,0.1-7.6-0.2-11.3-0.3c-2.6-0.1-5.2-0.2-7.9,0c-0.7,0.1-1.5,0-2.2,0c-0.1,0-0.2,0-0.3,0c-0.9,0-1.8-0.1-2.8-0.1
		c-2.9-0.1-5.9-0.2-9-0.2c0,0,0,0,0,0c0.3-0.2,0.7-0.2,1-0.2c1.7,0,3.5,0,5.2,0c2.5,0,5.1-0.1,7.6-0.2c0,0,0,0,0.1,0
		c0.2,0,0.3,0,0.5,0c0.8,0,1.6,0.1,2.4,0.1c0.3,0,0.7,0.1,1.1,0C259.3,338.5,261.8,338.6,264.4,338.5z M317.1,332.8
		C317.1,332.8,317.1,332.8,317.1,332.8c0.3,0,0.6,0,0.5,0.1c0,0-0.2,0.1-0.4,0.1c-1.5,0.1-3,0.2-4.4,0.2c-3.9,0-7.8,0-11.6-0.2
		c-0.9,0-1.9,0-3-0.1c0.4-0.2,0.7-0.1,1.1-0.1c3.6,0,7.2,0,10.8,0C312.4,332.9,314.7,332.9,317.1,332.8z M237.3,332.4
		c-0.2,0-0.4,0-0.7,0c0,0-0.1,0-0.1,0c-0.5,0-1-0.1-1.4-0.1c-1.4-0.1-2.9-0.1-4.4-0.1c-2.7,0-5.3-0.1-7.9-0.2c-1.3,0-2.6-0.1-4-0.1
		c-4.8,0-9.6-0.1-14.4-0.1c-0.8,0-1.7,0-2.4-0.1c-0.3,0-0.6-0.1-0.5-0.2c0,0,0.1,0,0.2-0.1c3.1,0,6.2,0.3,9.3,0.4
		c2.2,0.1,4.4,0.1,6.7,0c0.8-0.1,1.7-0.1,2.5,0c2.7,0.1,5.4,0.1,8.1,0c0.2,0,0.4,0,0.6,0c0.2,0,0.3,0,0.5,0
		c3.8-0.1,7.6,0.2,11.3,0.3c2.6,0.1,5.2,0.2,7.9,0c0.7-0.1,1.5,0,2.2,0c0.1,0,0.2,0,0.3,0c0.9,0,1.8,0.1,2.8,0.1
		c2.9,0.1,5.9,0.2,9,0.2c0,0,0,0,0,0c-0.3,0.2-0.7,0.2-1,0.2c-1.7,0-3.5,0-5.2,0c-2.5,0-5.1,0.1-7.6,0.2c0,0,0,0-0.1,0
		c-0.2,0-0.3,0-0.5,0c-0.8,0-1.6-0.1-2.4-0.1c-0.3,0-0.7-0.1-1.1,0C242.4,332.4,239.8,332.3,237.3,332.4z M315.9,330.6
		c-1,0-2.1,0.1-3.1,0c-5.3,0-10.6,0.1-15.8-0.1c-1.8-0.1-3.7-0.1-5.6-0.1c1.2-0.2,2.5-0.1,3.8-0.1c6.1,0.1,12.2,0.3,18.3,0.2
		C314.3,330.5,315.1,330.5,315.9,330.6z M101.5,333c2.6-0.1,5.2-0.1,7.8-0.2C106.7,333.1,104,333.1,101.5,333z M93.1,334.1
		c0.1,0,0.1-0.1,0.2-0.1c0.5-0.1,1.1-0.1,1.9-0.1c-0.6,0.2-1.1,0.3-1.7,0.3C93.4,334.2,93.2,334.1,93.1,334.1z M99.8,334.3
		c-0.1,0-0.1,0-0.2,0C99.6,334.2,99.7,334.2,99.8,334.3c0.3-0.1,0.4-0.1,0.2,0C100,334.3,99.8,334.3,99.8,334.3z M142.6,335.2
		c-2.2-0.1-4.4,0-6.7,0c-0.1,0-0.3,0-0.7-0.1c2.1-0.2,4.8-0.3,10.4-0.3c0,0,0,0,0,0c0.2,0.1,0,0.2-0.3,0.3c-0.5,0-1,0.1-1.6,0.1
		C143.4,335.1,143,335.2,142.6,335.2z M131.8,335.4c0.1,0,0.2-0.1,0.3-0.1c0.1,0,0.2,0,0.3,0.1c-0.1,0-0.1,0-0.2,0
		C132.1,335.5,132,335.5,131.8,335.4z M129.8,336.3C129.8,336.3,129.8,336.2,129.8,336.3c0.1-0.1,0.2-0.1,0.2-0.1
		c0.2,0,0.2,0.1,0,0.1C129.9,336.3,129.9,336.3,129.8,336.3z M125.1,339.6C125.1,339.6,125.1,339.5,125.1,339.6
		c0.2-0.1,0.3-0.1,0.3,0c0,0-0.1,0-0.1,0C125.2,339.6,125.1,339.6,125.1,339.6z M206.5,340.6c-6.1-0.1-12.2-0.3-18.3-0.2
		c-0.8,0-1.6,0-2.4,0c1,0,2.1-0.1,3.1,0c5.3,0,10.6-0.1,15.8,0.1c1.8,0.1,3.7,0.1,5.6,0.1C209.1,340.7,207.7,340.6,206.5,340.6z
		 M354.6,340.3c0.2,0,0.5,0,0.8,0c-0.3,0.1-0.5,0.1-0.8,0.1C354.6,340.3,354.6,340.3,354.6,340.3z M364.9,340.2
		c0,0.1-0.3,0.2-0.6,0.2c-0.9,0-1.8,0-2.7,0c-0.6,0-1.3-0.1-1.9-0.1c0,0,0-0.1-0.1-0.1c1.5-0.1,3-0.1,4.6-0.2
		C364.5,340,364.8,340.1,364.9,340.2z M387.6,339.3c0.1,0,0.3,0.1,0.3,0.1c-0.1,0.1-0.3,0.1-0.5,0.1c-0.1,0-0.3-0.1-0.2-0.1
		C387.1,339.3,387.4,339.3,387.6,339.3z M400.2,337.9c-2.6,0.1-5.2,0.1-7.8,0.2C395,337.9,397.6,337.8,400.2,337.9z M408.6,336.8
		c-0.1,0-0.1,0.1-0.2,0.1c-0.5,0.1-1.1,0.1-1.9,0.1c0.6-0.2,1.1-0.3,1.7-0.3C408.3,336.8,408.4,336.8,408.6,336.8z M401.9,336.7
		c0.1,0,0.1,0,0.2,0C402,336.7,401.9,336.8,401.9,336.7c-0.3,0.1-0.4,0.1-0.2,0C401.7,336.7,401.8,336.7,401.9,336.7z M359,335.8
		c2.2,0.1,4.4,0,6.7,0c0.1,0,0.3,0,0.7,0.1c-2.1,0.2-4.8,0.3-10.4,0.3c0,0,0,0,0,0c-0.2-0.1,0-0.2,0.3-0.3c0.5,0,1-0.1,1.6-0.1
		C358.2,335.8,358.6,335.7,359,335.8z M369.8,335.5c-0.1,0-0.2,0.1-0.3,0.1c-0.1,0-0.2,0-0.3-0.1c0.1,0,0.1,0,0.2,0
		C369.5,335.5,369.7,335.5,369.8,335.5z M371.9,334.7C371.8,334.7,371.9,334.7,371.9,334.7c-0.1,0.1-0.2,0.1-0.2,0.1
		c-0.2,0-0.2-0.1,0-0.1C371.7,334.6,371.8,334.6,371.9,334.7z M376.5,331.4C376.6,331.4,376.6,331.4,376.5,331.4
		c-0.2,0.1-0.3,0.1-0.3,0c0,0,0.1,0,0.1,0C376.4,331.3,376.5,331.3,376.5,331.4z M338.9,315.6c0,0.2,0,0.5-0.1,0.4
		c0,0-0.1-0.2-0.1-0.4c-0.1-1.5-0.2-3-0.2-4.4c0-3.9,0-7.8,0.2-11.6c0-0.9,0-1.9,0.1-3c0.2,0.4,0.1,0.7,0.1,1.1c0,3.6,0,7.2,0,10.8
		C338.8,310.8,338.8,313.2,338.9,315.6C338.9,315.5,338.9,315.5,338.9,315.6z M341.4,293.6c-0.1,6.1-0.3,12.2-0.2,18.3
		c0,0.8,0,1.6,0,2.4c0-1-0.1-2.1,0-3.1c0-5.3-0.1-10.6,0.1-15.8c0.1-1.8,0.1-3.7,0.1-5.6C341.5,291,341.4,292.3,341.4,293.6z
		 M333.2,263.5c0,0,0,0.1,0,0.1c0,0.5-0.1,1-0.1,1.4c-0.1,1.4-0.1,2.9-0.1,4.4c0,2.7-0.1,5.3-0.2,7.9c0,1.3-0.1,2.6-0.1,4
		c0,4.8-0.1,9.6-0.1,14.4c0,0.8,0,1.7-0.1,2.4c0,0.3-0.1,0.6-0.2,0.5c0,0,0-0.1-0.1-0.2c0-3.1,0.3-6.2,0.4-9.3
		c0.1-2.2,0.1-4.4,0-6.7c-0.1-0.8-0.1-1.7,0-2.5c0.1-2.7,0.1-5.4,0-8.1c0-0.2,0-0.4,0-0.6c0-0.2,0-0.3,0-0.5
		c-0.1-3.8,0.2-7.6,0.3-11.3c0.1-2.6,0.2-5.2,0-7.9c-0.1-0.7,0-1.5,0-2.2c0-0.1,0-0.2,0-0.3c0-0.9,0.1-1.8,0.1-2.8
		c0.1-2.9,0.2-5.9,0.2-9c0,0,0,0,0,0c0.2,0.3,0.2,0.7,0.2,1c0,1.7,0,3.5,0,5.2c0,2.5,0.1,5.1,0.2,7.6c0,0,0,0,0,0.1
		c0,0.2,0,0.3,0,0.5c0,0.8-0.1,1.6-0.1,2.4c0,0.3-0.1,0.7,0,1.1c-0.1,2.5-0.2,5.1-0.1,7.6C333.2,263,333.2,263.2,333.2,263.5z
		 M340.2,199.9c0,0,0,0.1,0.1,0.2c0,3.1-0.3,6.2-0.4,9.3c-0.1,2.2-0.1,4.4,0,6.7c0.1,0.8,0.1,1.7,0,2.5c-0.1,2.7-0.1,5.4,0,8.1
		c0,0.2,0,0.4,0,0.6c0,0.2,0,0.3,0,0.5c0.1,3.8-0.2,7.6-0.3,11.3c-0.1,2.6-0.2,5.2,0,7.9c0.1,0.7,0,1.5,0,2.2c0,0.1,0,0.2,0,0.3
		c0,0.9-0.1,1.8-0.1,2.8c-0.1,2.9-0.2,5.9-0.2,9c0,0,0,0,0,0c-0.2-0.3-0.2-0.7-0.2-1c0-1.7,0-3.5,0-5.2c0-2.5-0.1-5.1-0.2-7.6
		c0,0,0,0,0-0.1c0-0.2,0-0.3,0-0.5c0-0.8,0.1-1.6,0.1-2.4c0-0.3,0.1-0.7,0-1.1c0.1-2.5,0.2-5.1,0.1-7.6c0-0.2,0-0.4,0-0.7
		c0,0,0-0.1,0-0.1c0-0.5,0.1-1,0.1-1.4c0.1-1.4,0.1-2.9,0.1-4.4c0-2.7,0.1-5.3,0.2-7.9c0-1.3,0.1-2.6,0.1-4c0-4.8,0.1-9.6,0.1-14.4
		c0-0.8,0-1.7,0.1-2.4C340,200.1,340.1,199.8,340.2,199.9z M331.1,208.7c-0.2-1.2-0.1-2.5-0.1-3.8c0.1-6.1,0.3-12.2,0.2-18.3
		c0-0.8,0-1.6,0-2.4c0,1,0.1,2.1,0,3.1c0,5.3,0.1,10.6-0.1,15.8C331.2,205,331.2,206.8,331.1,208.7z M333.7,182.5
		c0,0,0.1,0.2,0.1,0.4c0.1,1.5,0.2,3,0.2,4.4c0,3.9,0,7.8-0.2,11.6c0,0.9,0,1.9-0.1,3c-0.2-0.4-0.1-0.7-0.1-1.1c0-3.6,0-7.2,0-10.8
		c0.1-2.3,0.1-4.7,0-7c0,0,0,0,0-0.1C333.6,182.7,333.6,182.4,333.7,182.5z M331.2,180.6c0,0.1,0,0.2,0,0.3
		c-0.2,1.3-0.2,2.7-0.2,4.1c0,2.4,0,4.8-0.1,7.2c0,2.3-0.1,4.6-0.1,6.9c-0.1,3.6-0.3,7.2-0.4,10.8c-0.1,2.1-0.1,4.3,0,6.4
		c0.1,1.6,0.1,3.3,0.2,4.9c0,0.7,0,1.5,0,2.2c0.2,2.5,0.2,5.1,0.1,7.7c-0.1,3.7,0,7.4-0.2,11.1c0,0.3,0,0.7,0,1
		c0,4.3-0.2,8.5-0.2,12.9c0,3.9-0.2,7.7-0.3,11.6c0,1.2-0.1,2.5-0.1,3.7c0,4.6-0.2,9.1-0.1,13.6c0,0.4,0,0.8,0,1.2c0,1.7,0,3.3,0,5
		c0,1.9,0,3.8,0,5.7c0,1.2,0,2.5,0,3.7c0,4.3,0.1,8.6,0.1,12.9c0,1.2,0,2.4,0,3.7c0,1.1-0.1,2.2-0.1,3.3c0,0.6-0.1,1.2-0.1,1.9
		c-0.2,2.6-0.3,5.2-0.4,7.8c-0.7,0-1.4,0-2.1,0c-2.5,0-5.1,0-7.6,0.1c-0.1,0-0.2,0-0.3,0c-1.3-0.2-2.7-0.2-4.1-0.2
		c-2.4,0-4.8,0-7.2-0.1c-2.3,0-4.6-0.1-6.9-0.1c-3.6-0.1-7.2-0.3-10.8-0.4c-2.1-0.1-4.3-0.1-6.4,0c-1.6,0.1-3.3,0.1-4.9,0.2
		c-0.7,0-1.5,0-2.2,0c-2.5,0.2-5.1,0.2-7.7,0.1c-3.7-0.1-7.4,0-11.1-0.2c-0.3,0-0.7,0-1,0c-4.3,0-8.5-0.2-12.9-0.2
		c-3.9,0-7.7-0.2-11.6-0.3c-1.2,0-2.5-0.1-3.7-0.1c-4.6,0-9.1-0.2-13.6-0.1c-0.4,0-0.8,0-1.2,0c-1.7,0-3.3,0-5,0c-1.9,0-3.8,0-5.7,0
		c-1.2,0-2.5,0-3.7,0c-4.3,0-8.6,0.1-12.9,0.1c-1.2,0-2.4,0-3.7,0c-1.1,0-2.2-0.1-3.3-0.1c-0.6,0-1.2-0.1-1.9-0.1
		c-2.6-0.2-5.2-0.3-7.8-0.4c0-0.7,0-1.4,0-2.1c0-2.5,0-5.1-0.1-7.6c0-0.1,0-0.2,0-0.3c0.2-1.3,0.2-2.7,0.2-4.1c0-2.4,0-4.8,0.1-7.2
		c0-2.3,0.1-4.6,0.1-6.9c0.1-3.6,0.3-7.2,0.4-10.8c0.1-2.1,0.1-4.3,0-6.4c-0.1-1.6-0.1-3.3-0.2-4.9c0-0.7,0-1.5,0-2.2
		c-0.2-2.5-0.2-5.1-0.1-7.7c0.1-3.7,0-7.4,0.2-11.1c0-0.3,0-0.7,0-1c0-4.3,0.2-8.5,0.2-12.9c0-3.9,0.2-7.7,0.3-11.6
		c0-1.2,0.1-2.5,0.1-3.7c0-4.6,0.2-9.1,0.1-13.6c0-0.4,0-0.8,0-1.2c0-1.7,0-3.3,0-5c0-1.9,0-3.8,0-5.7c0-1.2,0-2.5,0-3.7
		c0-4.3-0.1-8.6-0.1-12.9c0-1.2,0-2.4,0-3.7c0-1.1,0.1-2.2,0.1-3.3c0-0.6,0.1-1.2,0.1-1.9c0.2-2.6,0.3-5.2,0.4-7.8
		c0.7,0,1.4,0,2.1,0c2.5,0,5.1,0,7.6-0.1c0.1,0,0.2,0,0.3,0c1.3,0.2,2.7,0.2,4.1,0.2c2.4,0,4.8,0,7.2,0.1c2.3,0,4.6,0.1,6.9,0.1
		c3.6,0.1,7.2,0.3,10.8,0.4c2.1,0.1,4.3,0.1,6.4,0c1.6-0.1,3.3-0.1,4.9-0.2c0.7,0,1.5,0,2.2,0c2.5-0.2,5.1-0.2,7.7-0.1
		c3.7,0.1,7.4,0,11.1,0.2c0.3,0,0.7,0,1,0c4.3,0,8.5,0.2,12.9,0.2c3.9,0,7.7,0.2,11.6,0.3c1.2,0,2.5,0.1,3.7,0.1
		c4.6,0,9.1,0.2,13.6,0.1c0.4,0,0.8,0,1.2,0c1.7,0,3.3,0,5,0c1.9,0,3.8,0,5.7,0c1.2,0,2.5,0,3.7,0c4.3,0,8.6-0.1,12.9-0.1
		c1.2,0,2.4,0,3.7,0c1.1,0,2.2,0.1,3.3,0.1c0.6,0,1.2,0.1,1.9,0.1c2.6,0.2,5.2,0.3,7.8,0.4c0,0.7,0,1.4,0,2.1
		C331,175.5,331,178.1,331.2,180.6z M353.7,168.6c0.2,0,0.5,0,0.8,0c-0.3,0.1-0.5,0.1-0.8,0.1C353.7,168.7,353.7,168.7,353.7,168.6z
		 M364,168.6c0,0.1-0.3,0.2-0.6,0.2c-0.9,0-1.8,0-2.7,0c-0.6,0-1.3-0.1-1.9-0.1c0,0,0-0.1-0.1-0.1c1.5-0.1,3-0.1,4.6-0.2
		C363.7,168.4,364,168.5,364,168.6z M386.8,167.7c0.1,0,0.3,0.1,0.3,0.1c-0.1,0.1-0.3,0.1-0.5,0.1c-0.1,0-0.3-0.1-0.2-0.1
		C386.3,167.7,386.5,167.7,386.8,167.7z M399.3,166.3c-2.6,0.1-5.2,0.1-7.8,0.2C394.1,166.2,396.8,166.2,399.3,166.3z M407.7,165.2
		c-0.1,0-0.1,0.1-0.2,0.1c-0.5,0.1-1.1,0.1-1.9,0.1c0.6-0.2,1.1-0.3,1.7-0.3C407.4,165.1,407.6,165.2,407.7,165.2z M401,165.1
		c0.1,0,0.1,0,0.2,0C401.2,165.1,401.1,165.1,401,165.1c-0.3,0.1-0.4,0.1-0.2,0C400.8,165,401,165,401,165.1z M358.2,164.1
		c2.2,0.1,4.4,0,6.7,0c0.1,0,0.3,0,0.7,0.1c-2.1,0.2-4.8,0.3-10.4,0.3c0,0,0,0,0,0c-0.2-0.1,0-0.2,0.3-0.3c0.5,0,1-0.1,1.6-0.1
		C357.4,164.2,357.8,164.1,358.2,164.1z M369,163.9c-0.1,0-0.2,0.1-0.3,0.1c-0.1,0-0.2,0-0.3-0.1c0.1,0,0.1,0,0.2,0
		C368.7,163.8,368.8,163.9,369,163.9z M371,163C371,163,371,163.1,371,163c-0.1,0.1-0.2,0.1-0.2,0.1c-0.2,0-0.2-0.1,0-0.1
		C370.9,163,371,163,371,163z M375.7,159.7C375.7,159.7,375.7,159.8,375.7,159.7c-0.2,0.1-0.3,0.1-0.3,0c0,0,0.1,0,0.1,0
		C375.6,159.7,375.7,159.7,375.7,159.7z M294.3,158.7c6.1,0.1,12.2,0.3,18.3,0.2c0.8,0,1.6,0,2.4,0c-1,0-2.1,0.1-3.1,0
		c-5.3,0-10.6,0.1-15.8-0.1c-1.8-0.1-3.7-0.1-5.6-0.1C291.8,158.6,293.1,158.7,294.3,158.7z M169.5,146.3c0,0-0.1,0-0.1,0
		c0-0.2,0-0.5,0-0.8C169.5,145.8,169.5,146.1,169.5,146.3z M169.5,136.7c0,0.9,0,1.8,0,2.7c0,0.6-0.1,1.3-0.1,1.9c0,0-0.1,0-0.1,0.1
		c-0.1-1.5-0.1-3-0.2-4.6c0-0.3,0-0.7,0.2-0.7C169.5,136,169.5,136.3,169.5,136.7z M165.3,144.9
		C165.3,144.9,165.3,144.9,165.3,144.9c-0.1,0.3-0.2,0-0.3-0.2c0-0.5-0.1-1-0.1-1.6c0-0.4-0.1-0.8-0.1-1.2c0.1-2.2,0-4.4,0-6.7
		c0-0.1,0-0.3,0.1-0.7C165.2,136.6,165.3,139.3,165.3,144.9z M164.7,131.4c0,0.1,0,0.2-0.1,0.3c0-0.1,0-0.1,0-0.2c0-0.1,0-0.3,0-0.4
		C164.6,131.2,164.7,131.3,164.7,131.4z M163.8,129.1c0,0,0,0.1,0,0.2c0,0.2-0.1,0.2-0.1,0C163.8,129.2,163.8,129.1,163.8,129.1
		C163.8,129.1,163.8,129,163.8,129.1z M168.6,113.6c0,0.1-0.1,0.3-0.1,0.2c-0.1-0.1-0.1-0.3-0.1-0.5c0-0.1,0.1-0.3,0.1-0.3
		C168.6,113.1,168.6,113.3,168.6,113.6z M167.3,108.5c-0.3-2.6-0.4-5.2-0.2-7.8C167.1,103.3,167.2,105.9,167.3,108.5z M165.9,99
		c0,0.2,0,0.3-0.1,0.2C165.8,99.2,165.8,99.1,165.9,99c-0.1-0.1-0.1-0.1,0-0.2C165.9,98.9,165.9,99,165.9,99z M166.1,92.5
		c0.1,0.5,0.1,1.1,0.1,1.9c-0.2-0.6-0.3-1.1-0.3-1.7c0-0.1,0-0.3,0.1-0.4C166,92.4,166.1,92.4,166.1,92.5z M167.4,83.4
		c-0.1-0.8,0-1.4,0-2C167.5,82,167.5,82.6,167.4,83.4z M167.8,81.5c0,0,0,0.1,0,0.1C167.8,81.6,167.7,81.5,167.8,81.5
		c-0.1-0.1-0.1-0.1,0-0.2C167.8,81.4,167.8,81.4,167.8,81.5z M167.9,78c0,0.2,0,0.5-0.1,0.4c0-0.1-0.1-0.4-0.1-0.6
		c0-1,0.1-1.9,0.1-2.8c0,0,0.1-0.1,0.1-0.1C167.9,76,168,77,167.9,78z M167.5,32c0,0.2,0,0.3,0,0.4c0,0.1,0,0.2-0.1,0.3
		c0-0.1-0.1-0.2-0.1-0.4c0-0.1,0-0.2,0-0.2c0-0.2,0.1-0.4,0.1-0.6C167.5,31.7,167.5,31.9,167.5,32z"/>
	<path class="st0" d="M160.6,22c-0.3,0.7-0.1,1.7-0.2,2.6c-0.1,0.7-0.1,1.4-0.1,2.2c0,0.4,0,0.8,0.2,1.1c0.1-1.1,0.2-2.2,0.2-3.3
		C160.6,23.7,160.7,22.8,160.6,22z"/>
	<path class="st0" d="M169.9,105.5c-0.1-2.8,0.2-5.5-0.1-8.1c0,2.6,0,5.1,0,7.7C169.8,105.2,169.9,105.4,169.9,105.5z"/>
	<path class="st0" d="M168.9,5.4c-0.3,1.3-0.2,2.5-0.2,3.7C168.8,8,169,6.9,168.9,5.4z"/>
	<path class="st0" d="M168.9,75.8c0.1,0.1,0.2-0.3,0.2-0.8c0-0.6-0.1-1-0.2-1.3c0,0.4-0.1,0.9-0.1,1.3
		C168.7,75.3,168.7,75.7,168.9,75.8z"/>
	<path class="st0" d="M161.7,94.6c-0.1,0.3-0.1,0.6,0,0.9c0,0.3,0,0.6,0.1,0.9c0,0.2,0,0.6,0.2,0.7
		C161.7,96.2,161.9,95.3,161.7,94.6z"/>
	<path class="st0" d="M170.7,116.3c0.1,0.1,0.2-0.2,0.2-0.7c0-0.1,0-0.3-0.1-0.4c-0.1-0.1-0.2,0.3-0.3,0.8
		C170.6,116.1,170.7,116.3,170.7,116.3z"/>
	<path class="st0" d="M172,20.3c0,0.6,0,1.1,0,1.7C172,21.4,172.1,20.8,172,20.3z"/>
	<path class="st0" d="M169.9,110.6c0,0.1,0.1,0,0.1-0.2c0-0.3,0-0.6-0.1-0.9c0,0.4,0,0.7,0,1C169.9,110.5,169.9,110.6,169.9,110.6z"
		/>
	<path class="st0" d="M164.5,37.6c0-0.2,0-0.3,0-0.5c0-0.1,0-0.3-0.1-0.5c0,0.2,0,0.3,0,0.5C164.5,37.2,164.4,37.5,164.5,37.6z"/>
	<path class="st0" d="M169.7,93.6c0,0,0-0.3,0-0.5c0-0.2,0-0.4-0.1-0.6c0,0.2-0.1,0.4-0.1,0.6C169.6,93.4,169.6,93.7,169.7,93.6z"/>
	<path class="st0" d="M168.6,12.8c0.1,0,0.1-0.2,0.1-0.4c0-0.1,0-0.3-0.1-0.4c0,0.1,0,0.3-0.1,0.4C168.5,12.5,168.6,12.8,168.6,12.8
		z"/>
	<polygon class="st0" points="157.2,342.9 157.1,343.1 157.2,343.1 	"/>
	<path class="st0" d="M163.4,8.6c0,0.1,0.1,0.2,0.1,0.4c0-0.1,0-0.2,0-0.2C163.5,8.7,163.4,8.7,163.4,8.6z"/>
	<path class="st0" d="M163.4,8.1c0,0.1,0,0.3,0,0.4l0,0c0,0,0,0,0,0c0,0,0,0,0,0C163.4,8.4,163.4,8.3,163.4,8.1z"/>
	<path class="st0" d="M168.8,475.6c0.1-0.7,0.1-1.4,0.1-2.2c0-0.4,0-0.8-0.2-1.1c-0.1,1.1-0.2,2.2-0.2,3.3c0,0.9-0.1,1.8,0.1,2.6
		C169,477.5,168.8,476.5,168.8,475.6z"/>
	<path class="st0" d="M159.3,394.6c0.1,2.8-0.2,5.5,0.1,8.1c0-2.6,0-5.1,0-7.7C159.3,394.9,159.3,394.8,159.3,394.6z"/>
	<path class="st0" d="M160.3,494.7c0.3-1.3,0.2-2.5,0.2-3.7C160.4,492.1,160.2,493.2,160.3,494.7z"/>
	<path class="st0" d="M160.3,424.3c-0.1-0.1-0.2,0.3-0.2,0.8c0,0.6,0.1,1,0.2,1.3c0-0.4,0.1-0.9,0.1-1.3
		C160.4,424.8,160.4,424.5,160.3,424.3z"/>
	<path class="st0" d="M167.5,405.6c0.1-0.3,0.1-0.6,0-0.9c0-0.3,0-0.6-0.1-0.9c0-0.2,0-0.6-0.2-0.7
		C167.4,403.9,167.2,404.9,167.5,405.6z"/>
	<path class="st0" d="M158.5,383.8c-0.1-0.1-0.2,0.2-0.2,0.7c0,0.1,0,0.3,0.1,0.4c0.1,0.1,0.2-0.3,0.3-0.8
		C158.5,384.1,158.5,383.9,158.5,383.8z"/>
	<path class="st0" d="M157.2,479.9c0-0.6,0-1.1,0-1.7C157.2,478.8,157.1,479.3,157.2,479.9z"/>
	<path class="st0" d="M159.3,389.6c0-0.1-0.1,0-0.1,0.2c0,0.3,0,0.6,0.1,0.9c0-0.4,0-0.7,0-1C159.3,389.7,159.3,389.6,159.3,389.6z"
		/>
	<path class="st0" d="M164.7,462.6c0,0.2,0,0.3,0,0.5c0,0.1,0,0.3,0.1,0.5c0-0.2,0-0.3,0-0.5C164.7,462.9,164.8,462.7,164.7,462.6z"
		/>
	<path class="st0" d="M159.5,406.5c0,0,0,0.3,0,0.5c0,0.2,0,0.4,0.1,0.6c0-0.2,0.1-0.4,0.1-0.6C159.5,406.8,159.6,406.5,159.5,406.5
		z"/>
	<path class="st0" d="M160.5,487.7c0,0.1,0,0.3,0.1,0.4c0-0.1,0-0.3,0.1-0.4c0-0.1,0-0.4,0-0.4C160.5,487.3,160.5,487.6,160.5,487.7
		z"/>
	<path class="st0" d="M165.7,491.4c0,0.1,0.1,0.1,0.1,0.2c0-0.1-0.1-0.2-0.1-0.4C165.6,491.3,165.6,491.4,165.7,491.4z"/>
	<path class="st0" d="M165.8,491.6C165.8,491.6,165.8,491.6,165.8,491.6c0,0.2,0,0.3,0,0.5C165.8,491.9,165.8,491.7,165.8,491.6
		L165.8,491.6C165.8,491.6,165.8,491.6,165.8,491.6z"/>
	<path class="st0" d="M332,23.7c-0.1,0.7-0.1,1.4-0.1,2.2c0,0.4,0,0.8,0.2,1.1c0.1-1.1,0.2-2.2,0.2-3.3c0-0.9,0.1-1.8-0.1-2.6
		C331.8,21.8,332,22.8,332,23.7z"/>
	<path class="st0" d="M341.5,104.7c-0.1-2.8,0.2-5.5-0.1-8.1c0,2.6,0,5.1,0,7.7C341.5,104.4,341.5,104.5,341.5,104.7z"/>
	<path class="st0" d="M340.4,8.3c0.1-1.1,0.2-2.2,0.2-3.7C340.3,6,340.3,7.1,340.4,8.3z"/>
	<path class="st0" d="M340.5,75c0.1,0.1,0.2-0.3,0.2-0.8c0-0.6-0.1-1-0.2-1.3c0,0.4-0.1,0.9-0.1,1.3C340.4,74.5,340.4,74.8,340.5,75
		z"/>
	<path class="st0" d="M333.3,93.7c-0.1,0.3-0.1,0.6,0,0.9c0,0.3,0,0.6,0.1,0.9c0,0.2,0,0.6,0.2,0.7
		C333.4,95.4,333.6,94.4,333.3,93.7z"/>
	<path class="st0" d="M342.3,115.5c0.1,0.1,0.2-0.2,0.2-0.7c0-0.1,0-0.3-0.1-0.4c-0.1-0.1-0.2,0.3-0.3,0.8
		C342.3,115.2,342.3,115.4,342.3,115.5z"/>
	<path class="st0" d="M343.6,19.4c0,0.6,0,1.1,0,1.7C343.7,20.5,343.7,20,343.6,19.4z"/>
	<path class="st0" d="M341.5,109.8c0,0.1,0.1,0,0.1-0.2c0-0.3,0-0.6-0.1-0.9c0,0.4,0,0.7,0,1C341.5,109.6,341.5,109.7,341.5,109.8z"
		/>
	<path class="st0" d="M336.2,36.8c0-0.2,0-0.3,0-0.5c0-0.1,0-0.3-0.1-0.5c0,0.2,0,0.3,0,0.5C336.1,36.4,336.1,36.6,336.2,36.8z"/>
	<path class="st0" d="M341.3,92.8c0,0,0-0.3,0-0.5c0-0.2,0-0.4-0.1-0.6c0,0.2-0.1,0.4-0.1,0.6C341.3,92.5,341.2,92.8,341.3,92.8z"/>
	<path class="st0" d="M340.2,12c0.1,0,0.1-0.2,0.1-0.4c0-0.1,0-0.3-0.1-0.4c0,0.1,0,0.3-0.1,0.4C340.2,11.7,340.2,12,340.2,12z"/>
	<path class="st0" d="M335.2,7.9c0-0.1-0.1-0.1-0.1-0.2c0,0.1,0.1,0.2,0.1,0.4C335.2,8.1,335.2,7.9,335.2,7.9z"/>
	<path class="st0" d="M335,7.8C335,7.7,335,7.7,335,7.8c0-0.2,0-0.3,0-0.5C335,7.4,335,7.6,335,7.8L335,7.8C335,7.7,335,7.7,335,7.8
		z"/>
	<path class="st0" d="M340.2,477.4c0.3-0.7,0.1-1.7,0.2-2.6c0.1-0.7,0.1-1.4,0.1-2.2c0-0.4,0-0.8-0.2-1.1c-0.1,1.1-0.2,2.2-0.2,3.3
		C340.2,475.6,340.1,476.5,340.2,477.4z"/>
	<path class="st0" d="M330.9,393.8c0.1,2.8-0.2,5.5,0.1,8.1c0-2.6,0-5.1,0-7.7C331,394.1,330.9,393.9,330.9,393.8z"/>
	<path class="st0" d="M331.9,493.9c0.3-1.3,0.2-2.5,0.2-3.7C332,491.3,331.8,492.4,331.9,493.9z"/>
	<path class="st0" d="M331.9,423.5c-0.1-0.1-0.2,0.3-0.2,0.8c0,0.6,0.1,1,0.2,1.3c0-0.4,0.1-0.9,0.1-1.3
		C332.1,424,332.1,423.7,331.9,423.5z"/>
	<path class="st0" d="M339.1,404.8c0.1-0.3,0.1-0.6,0-0.9c0-0.3,0-0.6-0.1-0.9c0-0.2,0-0.6-0.2-0.7
		C339.1,403.1,338.9,404,339.1,404.8z"/>
	<path class="st0" d="M330.1,383c-0.1-0.1-0.2,0.2-0.2,0.7c0,0.1,0,0.3,0.1,0.4c0.1,0.1,0.2-0.3,0.3-0.8
		C330.2,383.2,330.1,383,330.1,383z"/>
	<path class="st0" d="M328.8,479c0-0.6,0-1.1,0-1.7C328.8,477.9,328.7,478.5,328.8,479z"/>
	<path class="st0" d="M330.9,388.7c0-0.1-0.1,0-0.1,0.2c0,0.3,0,0.6,0.1,0.9c0-0.4,0-0.7,0-1C330.9,388.8,330.9,388.7,330.9,388.7z"
		/>
	<path class="st0" d="M336.3,461.7c0,0.2,0,0.3,0,0.5c0,0.1,0,0.3,0.1,0.5c0-0.2,0-0.3,0-0.5C336.3,462.1,336.4,461.8,336.3,461.7z"
		/>
	<path class="st0" d="M331.1,405.7c0,0,0,0.3,0,0.5c0,0.2,0,0.4,0.1,0.6c0-0.2,0.1-0.4,0.1-0.6C331.2,405.9,331.2,405.7,331.1,405.7
		z"/>
	<path class="st0" d="M332.2,486.9c0,0.1,0,0.3,0.1,0.4c0-0.1,0-0.3,0.1-0.4c0-0.1,0-0.4,0-0.4C332.1,486.5,332.2,486.7,332.2,486.9
		z"/>
	<polygon class="st0" points="343.6,156.4 343.7,156.2 343.6,156.2 	"/>
	<path class="st0" d="M337.4,490.7c0-0.1-0.1-0.2-0.1-0.4c0,0.1,0,0.2,0,0.2C337.3,490.6,337.4,490.7,337.4,490.7z"/>
	<path class="st0" d="M337.4,491.2c0-0.1,0-0.3,0-0.4l0,0c0,0,0,0,0,0c0,0,0,0,0,0C337.4,490.9,337.4,491,337.4,491.2z"/>
	<path class="st0" d="M25.3,339.4c-0.9,0-1.8-0.1-2.6,0.1c0.7,0.3,1.7,0.1,2.6,0.2c0.7,0.1,1.4,0.1,2.2,0.1c0.4,0,0.8,0,1.1-0.2
		C27.5,339.5,26.4,339.4,25.3,339.4z"/>
	<path class="st0" d="M98.1,330.2c2.6,0,5.1,0,7.7,0c0.2,0,0.3,0,0.5-0.1C103.5,330.2,100.8,329.9,98.1,330.2z"/>
	<path class="st0" d="M6.2,331.1c1.3,0.3,2.5,0.2,3.7,0.2C8.8,331.3,7.7,331.1,6.2,331.1z"/>
	<path class="st0" d="M76.6,331.2c0.1-0.1-0.3-0.2-0.8-0.2c-0.6,0-1,0.1-1.3,0.2c0.4,0,0.9,0.1,1.3,0.1
		C76.1,331.3,76.4,331.3,76.6,331.2z"/>
	<path class="st0" d="M95.3,338.4c0.3,0.1,0.6,0.1,0.9,0c0.3,0,0.6,0,0.9-0.1c0.2,0,0.6,0,0.7-0.2C97,338.3,96,338.1,95.3,338.4z"/>
	<path class="st0" d="M116.3,329.1c-0.1,0-0.3,0-0.4,0.1c-0.1,0.1,0.3,0.2,0.8,0.3c0.1,0,0.3,0,0.4-0.1
		C117.2,329.2,116.8,329.1,116.3,329.1z"/>
	<path class="st0" d="M21,328.1c0.6,0,1.1,0,1.7,0C22.1,328,21.6,327.9,21,328.1z"/>
	<path class="st0" d="M111.1,330.2c0.1,0,0.2,0,0.2,0c0.1,0,0-0.1-0.2-0.1c-0.3,0-0.6,0-0.9,0.1
		C110.5,330.2,110.8,330.2,111.1,330.2z"/>
	<path class="st0" d="M37.8,335.5c-0.1,0-0.3,0-0.5,0.1c0.2,0,0.3,0,0.5,0c0.2,0,0.5,0,0.6-0.1C38.2,335.5,38,335.5,37.8,335.5z"/>
	<path class="st0" d="M94.4,330.3c0,0-0.3,0-0.5,0c-0.2,0-0.4,0-0.6,0.1c0.2,0,0.4,0.1,0.6,0.1C94.1,330.4,94.4,330.5,94.4,330.3z"
		/>
	<path class="st0" d="M13.2,331.4c-0.1,0-0.3,0-0.4,0.1c0.1,0,0.3,0,0.4,0.1c0.1,0,0.4,0,0.4,0C13.6,331.4,13.3,331.4,13.2,331.4z"
		/>
	<polygon class="st0" points="343.7,342.9 343.9,342.9 343.8,342.8 	"/>
	<path class="st0" d="M9.5,336.5c-0.1,0-0.1,0.1-0.2,0.1c0.1,0,0.2-0.1,0.4-0.1C9.6,336.5,9.5,336.5,9.5,336.5z"/>
	<path class="st0" d="M9.3,336.7C9.3,336.7,9.3,336.7,9.3,336.7c-0.2,0-0.3,0-0.5,0C9,336.7,9.2,336.7,9.3,336.7L9.3,336.7
		C9.3,336.7,9.3,336.7,9.3,336.7z"/>
	<path class="st0" d="M476.3,331.5c0.9,0,1.8,0.1,2.6-0.1c-0.7-0.3-1.7-0.1-2.6-0.2c-0.7-0.1-1.4-0.1-2.2-0.1c-0.4,0-0.8,0-1.1,0.2
		C474.2,331.4,475.2,331.5,476.3,331.5z"/>
	<path class="st0" d="M403.5,340.7c-2.6,0-5.1,0-7.7,0c-0.2,0-0.3,0-0.5,0.1C398.1,340.7,400.9,341,403.5,340.7z"/>
	<path class="st0" d="M495.5,339.8c-1.3-0.3-2.5-0.2-3.7-0.2C492.9,339.7,494,339.8,495.5,339.8z"/>
	<path class="st0" d="M425.1,339.7c-0.1,0.1,0.3,0.2,0.8,0.2c0.6,0,1-0.1,1.3-0.2c-0.4,0-0.9-0.1-1.3-0.1
		C425.6,339.6,425.2,339.6,425.1,339.7z"/>
	<path class="st0" d="M406.3,332.6c-0.3-0.1-0.6-0.1-0.9,0c-0.3,0-0.6,0-0.9,0.1c-0.2,0-0.6,0-0.7,0.2
		C404.7,332.6,405.6,332.8,406.3,332.6z"/>
	<path class="st0" d="M385.3,341.8c0.1,0,0.3,0,0.4-0.1c0.1-0.1-0.3-0.2-0.8-0.3c-0.1,0-0.3,0-0.4,0.1
		C384.4,341.7,384.8,341.8,385.3,341.8z"/>
	<path class="st0" d="M480.6,342.8c-0.6,0-1.1,0-1.7,0C479.5,342.9,480.1,343,480.6,342.8z"/>
	<path class="st0" d="M390.5,340.8c-0.1,0-0.2,0-0.2,0c-0.1,0,0,0.1,0.2,0.1c0.3,0,0.6,0,0.9-0.1
		C391.1,340.8,390.8,340.8,390.5,340.8z"/>
	<path class="st0" d="M463.8,335.4c0.1,0,0.3,0,0.5-0.1c-0.2,0-0.3,0-0.5,0c-0.2,0-0.5,0-0.6,0.1
		C463.5,335.4,463.6,335.4,463.8,335.4z"/>
	<path class="st0" d="M407.3,340.6c0,0,0.3,0,0.5,0c0.2,0,0.4,0,0.6-0.1c-0.2,0-0.4-0.1-0.6-0.1
		C407.5,340.5,407.2,340.5,407.3,340.6z"/>
	<path class="st0" d="M488.5,339.5c0.1,0,0.3,0,0.4-0.1c-0.1,0-0.3,0-0.4-0.1c-0.1,0-0.4,0-0.4,0C488,339.6,488.3,339.5,488.5,339.5
		z"/>
	<path class="st0" d="M492.1,334.4c0.1,0,0.1-0.1,0.2-0.1c-0.1,0-0.2,0.1-0.4,0.1C492,334.4,492.1,334.4,492.1,334.4z"/>
	<path class="st0" d="M492.3,334.3C492.3,334.3,492.3,334.3,492.3,334.3c0.2,0,0.3,0,0.5,0C492.6,334.3,492.5,334.3,492.3,334.3
		L492.3,334.3C492.3,334.3,492.3,334.3,492.3,334.3z"/>
	<path class="st0" d="M24.5,167.8c-0.9,0-1.8-0.1-2.6,0.1c0.7,0.3,1.7,0.1,2.6,0.2c0.7,0.1,1.4,0.1,2.2,0.1c0.4,0,0.8,0,1.1-0.2
		C26.6,167.9,25.6,167.8,24.5,167.8z"/>
	<path class="st0" d="M97.3,158.6c2.6,0,5.1,0,7.7,0c0.2,0,0.3,0,0.5-0.1C102.7,158.6,99.9,158.3,97.3,158.6z"/>
	<path class="st0" d="M5.4,159.5c1.3,0.3,2.5,0.2,3.7,0.2C7.9,159.6,6.8,159.5,5.4,159.5z"/>
	<path class="st0" d="M75.7,159.6c0.1-0.1-0.3-0.2-0.8-0.2c-0.6,0-1,0.1-1.3,0.2c0.4,0,0.9,0.1,1.3,0.1
		C75.2,159.7,75.6,159.7,75.7,159.6z"/>
	<path class="st0" d="M94.5,166.8c0.3,0.1,0.6,0.1,0.9,0c0.3,0,0.6,0,0.9-0.1c0.2,0,0.6,0,0.7-0.2C96.1,166.7,95.2,166.5,94.5,166.8
		z"/>
	<path class="st0" d="M115.5,157.5c-0.1,0-0.3,0-0.4,0.1c-0.1,0.1,0.3,0.2,0.8,0.3c0.1,0,0.3,0,0.4-0.1
		C116.4,157.6,116,157.5,115.5,157.5z"/>
	<path class="st0" d="M20.2,156.5c0.6,0,1.1,0,1.7,0C21.3,156.4,20.7,156.3,20.2,156.5z"/>
	<path class="st0" d="M110.3,158.5c0.1,0,0.2,0,0.2,0c0.1,0,0-0.1-0.2-0.1c-0.3,0-0.6,0-0.9,0.1C109.7,158.5,110,158.5,110.3,158.5z
		"/>
	<path class="st0" d="M37,163.9c-0.1,0-0.3,0-0.5,0.1c0.2,0,0.3,0,0.5,0c0.2,0,0.5,0,0.6-0.1C37.3,163.9,37.2,163.9,37,163.9z"/>
	<path class="st0" d="M93.5,158.7c0,0-0.3,0-0.5,0c-0.2,0-0.4,0-0.6,0.1c0.2,0,0.4,0.1,0.6,0.1C93.3,158.8,93.6,158.8,93.5,158.7z"
		/>
	<path class="st0" d="M12.3,159.8c-0.1,0-0.3,0-0.4,0.1c0.1,0,0.3,0,0.4,0.1c0.1,0,0.4,0,0.4,0C12.8,159.7,12.5,159.8,12.3,159.8z"
		/>
	<path class="st0" d="M8.7,164.9c-0.1,0-0.1,0.1-0.2,0.1c0.1,0,0.2-0.1,0.4-0.1C8.8,164.9,8.7,164.9,8.7,164.9z"/>
	<path class="st0" d="M8.5,165C8.5,165,8.5,165,8.5,165c-0.2,0-0.3,0-0.5,0C8.2,165,8.3,165,8.5,165L8.5,165
		C8.5,165,8.5,165,8.5,165z"/>
	<path class="st0" d="M475.5,159.9c0.9,0,1.8,0.1,2.6-0.1c-0.7-0.3-1.7-0.1-2.6-0.2c-0.7-0.1-1.4-0.1-2.2-0.1c-0.4,0-0.8,0-1.1,0.2
		C473.3,159.8,474.4,159.9,475.5,159.9z"/>
	<path class="st0" d="M402.7,169.1c-2.6,0-5.1,0-7.7,0c-0.2,0-0.3,0-0.5,0.1C397.3,169.1,400,169.4,402.7,169.1z"/>
	<path class="st0" d="M494.6,168.2c-1.3-0.3-2.5-0.2-3.7-0.2C492,168.1,493.1,168.2,494.6,168.2z"/>
	<path class="st0" d="M424.2,168.1c-0.1,0.1,0.3,0.2,0.8,0.2c0.6,0,1-0.1,1.3-0.2c-0.4,0-0.9-0.1-1.3-0.1
		C424.7,168,424.4,168,424.2,168.1z"/>
	<path class="st0" d="M405.5,160.9c-0.3-0.1-0.6-0.1-0.9,0c-0.3,0-0.6,0-0.9,0.1c-0.2,0-0.6,0-0.7,0.2
		C403.8,161,404.8,161.2,405.5,160.9z"/>
	<path class="st0" d="M384.5,170.2c0.1,0,0.3,0,0.4-0.1c0.1-0.1-0.3-0.2-0.8-0.3c-0.1,0-0.3,0-0.4,0.1
		C383.6,170.1,384,170.2,384.5,170.2z"/>
	<path class="st0" d="M479.8,171.2c-0.6,0-1.1,0-1.7,0C478.7,171.3,479.2,171.4,479.8,171.2z"/>
	<path class="st0" d="M389.7,169.1c-0.1,0-0.2,0-0.2,0c-0.1,0,0,0.1,0.2,0.1c0.3,0,0.6,0,0.9-0.1C390.3,169.2,390,169.1,389.7,169.1
		z"/>
	<path class="st0" d="M463,163.8c0.1,0,0.3,0,0.5-0.1c-0.2,0-0.3,0-0.5,0c-0.2,0-0.5,0-0.6,0.1C462.6,163.8,462.8,163.8,463,163.8z"
		/>
	<path class="st0" d="M406.4,169c0,0,0.3,0,0.5,0c0.2,0,0.4,0,0.6-0.1c-0.2,0-0.4-0.1-0.6-0.1C406.7,168.9,406.4,168.9,406.4,169z"
		/>
	<path class="st0" d="M487.7,167.9c0.1,0,0.3,0,0.4-0.1c-0.1,0-0.3,0-0.4-0.1c-0.1,0-0.4,0-0.4,0
		C487.2,167.9,487.5,167.9,487.7,167.9z"/>
	<polygon class="st0" points="157.1,156.4 156.9,156.4 157,156.5 	"/>
	<path class="st0" d="M491.3,162.8c0.1,0,0.1-0.1,0.2-0.1c-0.1,0-0.2,0.1-0.4,0.1C491.2,162.8,491.3,162.8,491.3,162.8z"/>
	<path class="st0" d="M491.5,162.6C491.5,162.6,491.5,162.6,491.5,162.6c0.2,0,0.3,0,0.5,0C491.8,162.6,491.6,162.6,491.5,162.6
		L491.5,162.6C491.5,162.6,491.5,162.6,491.5,162.6z"/>
</g>
</svg>
