<?xml version="1.0" encoding="utf-8"?>
<!-- Generator: Adobe Illustrator 24.1.2, SVG Export Plug-In . SVG Version: 6.00 Build 0)  -->
<svg version="1.1" id="Warstwa_1" xmlns="http://www.w3.org/2000/svg" xmlns:xlink="http://www.w3.org/1999/xlink" x="0px" y="0px"
	 viewBox="0 0 500 500" style="enable-background:new 0 0 500 500;" xml:space="preserve">
<style type="text/css">
	.st0{fill:#222222;}
</style>
<path class="st0" d="M63.2,26.4l1.1-1.5L64,25.4l0,0l0,0L63.2,26.4l1,0.8l0.2,1.2c0,0.2,0.1,0.7,0.4,1.2c0.2,0.3,0.9,0.9,1.7,1
	l0.8,0.1c-0.3,0.4-0.5,1-0.4,1.9l1.9-0.1h0l0,0l0,0h0L67,32.5l0,0c0.2,1.9,1.4,3,2.1,3.7c0.9,0.8,1.2,1.4,1.2,2.2
	c0.1,1.8,0.9,3.4,2.5,4.7c0.4,0.3,0.8,0.7,1.1,1c-0.4,0.1-0.9,0.3-1.3,0.8c-0.6,0.6-1.1,1.4-0.9,2.4c-0.3,0-0.5-0.2-1-0.6
	c-0.3-0.2-0.6-0.5-0.9-0.7c-1.5-1-2.7-2.4-4-3.8c-0.5-0.5-0.9-1-1.4-1.5c-0.5-0.5-1-1-1.5-1.5L52.1,28.4l7.1,12.4
	c1.3,2.3,2.8,4.5,4.2,6.6c0.5,0.7,1,1.4,1.5,2.1c1.1,1.6,2.1,3.2,3.1,4.9c1.5,2.5,3.2,5.1,5,7.5l-3.1-0.9c-0.4-0.3-0.7-0.6-1.1-1
	c-0.3-0.3-0.6-0.5-0.9-0.8l-0.3-0.3c-0.6-0.6-1.4-1.4-2.9-1.8l-2.6-0.7l0.1,0.7L62,56.9c-0.8-0.8-1.5-1.5-2.2-2.3
	c-1.5-1.6-3.4-1.7-5.3-0.4c-0.2-0.2-0.4-0.4-0.6-0.7c-0.3-0.3-0.5-0.6-0.8-0.9c-0.8-1.1-1.9-1.5-3.3-1.1l-2.6,0.8l1.7,2.2
	c1.2,1.5,2,3.4,2.6,6.1c0.4,2,1.3,3.5,2.1,4.8c1,1.6,2.2,3,3.4,4.4c-0.6,0-1.1,0.2-1.6,0.6c-0.3,0.2-0.5,0.5-0.6,0.8
	c-0.2-0.2-0.4-0.4-0.7-0.6c-0.3-0.3-0.7-0.4-1.1-0.4l-0.5-0.9c-0.2-0.3-0.3-0.6-0.4-0.9c-0.5-1-1-2.2-1.9-3.1
	c-0.1-0.1-0.3-0.3-0.4-0.5c-0.5-0.7-1.4-1.9-3.1-2.1L45,62.6L44.5,64c-0.9,2.4,0.6,3.7,1.2,4.3c0.1,0.1,0.3,0.2,0.3,0.2
	c0.5,1,1.2,1.8,1.7,2.6c0.7,1,1.6,1.3,2.4,1.2c-0.1,0.3-0.1,0.6,0,0.9c0.2,1.2,0.5,2.5,1.4,3.7c0.7,1,1.4,1.9,2.1,2.9
	c1,1.5,2.1,3,3.2,4.5c0.5,0.7,1,1.3,1.6,2c1,1.2,1.9,2.5,2.9,3.7c0.4,0.5,0.8,0.9,1.2,1.3c0.8,0.9,1.6,1.7,2,2.7
	c2.2,5,5.5,9.6,10.1,13.9c0.3,0.3,0.7,0.6,1,0.9c0.5,0.4,0.9,0.7,1.2,1.1l0.3,0.4c1.3,1.6,2.8,3.6,5.6,4.2l0.1,0.2
	c0.1,0.1,0.1,0.2,0.2,0.3c0.3,0.5,0.7,1.3,1.5,1.7c0.8,0.4,1.5,1.1,2.3,1.8c0.8,0.7,1.7,1.6,2.8,2.2c0.6,0.4,1,0.8,1.2,1.4
	c0.5,1.7,1.8,2.7,2.6,3.3l0.9,0.6c1,0.7,2.1,1.4,3.3,2.1c1,0.5,1.6,1,2,1.5c1.7,2.3,3.7,3.8,6.1,4.6c0.7,0.3,1.4,0.6,1.5,0.9
	c0.6,2.5,2.4,3.8,3.9,4.8c0.3,0.2,0.5,0.4,0.8,0.6l1.1,0.8c2.8,2.1,5.5,4.1,7.6,6.7c0.9,1.1,1.7,2.3,2.6,3.5c1,1.4,2,2.8,3.1,4.2
	c1,1.2,1.9,2.5,2.9,3.9c0.7,1,1.5,2.1,2.2,3.1c2.3,2.9,4.9,5.4,7.5,7.9c0.8,0.7,1.6,1.5,2.3,2.2c0.1,0.3,0.3,0.7,0.5,1
	c0.7,1.3,1.6,2.7,2.7,4c0.8,0.9,1.6,1.7,2.4,2.4c0.9,0.8,1.7,1.6,2.4,2.5c2.6,3.1,5.5,5.8,8.3,8.2c1.1,1,2.3,2.1,3.2,3.3
	c2.1,3,4.6,5.8,6.6,8.1c2.2,2.5,4.4,4.5,6.6,6.1c0.5,2.1,1.7,3.5,2.8,4.7l0.2,0.2c0.6,0.7,1.3,1.4,1.9,2c1.3,1.4,2.6,2.8,3.8,4.3
	c1.8,2.2,3.5,4.4,5.3,6.5c1.7,2.1,3.3,4.5,4.8,6.7c0.9,1.4,1.8,2.7,2.7,4c1.9,2.7,3.8,4.6,6,6c1.6,1,3,2.3,4.1,3.3
	c-1.1,1-2.3,2-3.4,3c-2.3,1.9-4.7,3.9-6.7,6.2c-0.1,0.1-0.3,0.2-0.4,0.3c-0.2,0.2-0.4,0.3-0.6,0.5l-0.7,0.6
	c-1.3,1.1-2.6,2.3-3.8,3.4c-1.7,1.6-3.4,3.1-5,4.7c-1.1,1-2.2,2.1-3.3,3.2c-1.2,1.2-2.3,2.4-3.4,3.6c-2.4,2.5-4.8,5.1-7.4,7.5
	c-1.1,1-2.1,2-3.1,2.8c-1.1,0.8-2.1,1.6-3.1,2.3c-0.5,0.3-1.2,0.7-1.8,1c-4.2,1.9-7.9,4.6-11.4,8.3c-1.1,0.6-2.1,1.3-3,2
	c-0.7,0.5-1.3,1-2,1.6c-1.4,1.1-2.7,2.2-4.1,3.2c-4.4,3.3-8.4,7.3-12.1,12.3c-2.3,3.1-5.1,6.2-8.4,9.3c-1.1,1-2.3,2-3.4,3
	c-2.4,2.1-5,4.2-7,6.9c0,0-0.1,0.1-0.3,0.3c-1.9,1.1-3.3,2.6-4.5,3.8c-1,1-1.9,2-2.9,2.9c-2.2,2.1-4.4,4.3-6.2,6.9
	c-0.4,0.6-1.1,1.1-2,1.4l-0.2,0.1c-0.8,0.3-1.9,0.7-2.6,1.8c-0.7,1.3-1.8,2.4-2.9,3.5c-1,1-1.9,2-2.8,3.3c-0.8,1.1-1.4,1.9-2.3,2.3
	c-2.7,1.4-4.8,3.2-7.2,5.3c-3.7,3.3-7.6,6.5-11.4,9.5l-2.6,2.1c-1.9,1.5-3.6,3.1-5.3,4.7l-1.5,1.3c-0.2,0.2-0.5,0.4-0.7,0.6
	c-0.9,0.8-1.8,1.6-2.6,2.6c-1.1,1.6-2.5,3-4,4.5c-0.5,0.5-1,0.9-1.5,1.4c-2.1,2.1-4.2,4.3-6.3,6.5l-7.2,7.5l4.2-1.1
	c-0.7,0.7-1.4,1.4-2,2.1c-0.2,0.2-0.9,0.9-0.9,1.9c0,0.5,0.2,1.2,0.9,1.9c0.3,0.2,1.1,0.8,2.2,0.6l-1.1,3.8l3.6-1.5
	c1.1-0.4,2-1,2.9-1.5c0.3-0.2,0.7-0.4,1-0.6c1.7-1,3.2-2,4.5-3.1c-1.1,1.7-1.9,3.6-2.7,5.3l-0.1,0.2c-1.3,3-2.8,5.1-4.6,6.7
	c-0.4,0.4-0.8,0.7-1.3,1c-0.4,0.4-0.9,0.7-1.3,1.1c-2.8,2.4-5.6,4.8-8.4,7.3c-0.6,0.5-0.9,1.3-0.8,2.1l-0.8,0.5c-0.1,0-0.3,0-0.4,0
	c-0.6,0-1.2,0.3-1.6,0.9c-0.2,0.2-0.3,0.5-0.4,0.7l-2.3,1.4c-0.3,0.2-0.6,0.3-1,0.5c-1,0.5-2.3,1.1-3.4,2.4l-2.7,3.4l4.3-0.4
	c2.9-0.2,4.2-1.9,5.2-3.2l-1.5-1.2l1.5,1.1l0.8-1l1.2-0.2c0.2,0,0.7-0.1,1.2-0.4c0.4-0.3,0.9-0.9,1-1.7l0.1-0.8
	c0.4,0.3,1.1,0.5,1.9,0.3c1.9-0.2,3-1.4,3.7-2.1c0.8-0.8,1.4-1.2,2.2-1.2c1.8-0.1,3.4-0.9,4.7-2.5c0.3-0.4,0.7-0.8,1-1.1
	c0.1,0.4,0.3,0.9,0.8,1.3c0.6,0.6,1.4,1.1,2.4,0.9c0,0.3-0.2,0.5-0.6,1c-0.2,0.3-0.5,0.6-0.7,0.9c-1,1.5-2.4,2.7-3.9,4
	c-0.5,0.5-1,0.9-1.5,1.4c-0.5,0.5-1.1,1-1.6,1.6l-10.6,10.6l12.2-7c2.3-1.3,4.5-2.8,6.5-4.2c0.7-0.5,1.4-1,2.2-1.5
	c1.6-1.1,3.2-2.1,4.9-3.1c2.5-1.6,5.1-3.2,7.5-5l-0.9,3.1c-0.3,0.4-0.7,0.7-1,1.1c-0.3,0.3-0.5,0.6-0.8,0.9l-0.3,0.3
	c-0.6,0.6-1.4,1.4-1.8,2.9l-0.7,2.6l0.7-0.1l-0.1,0.1c-0.7,0.7-1.5,1.5-2.3,2.2c-1.6,1.5-1.7,3.4-0.4,5.3c-0.2,0.2-0.4,0.4-0.7,0.6
	c-0.3,0.3-0.6,0.5-0.9,0.8c-1.1,0.8-1.5,1.9-1.1,3.3l0.8,2.6l2.2-1.7c1.5-1.2,3.4-2,6.1-2.6c2-0.4,3.5-1.3,4.8-2.1
	c1.6-1,3-2.2,4.4-3.4c0,0.6,0.2,1.1,0.6,1.6c0.2,0.3,0.5,0.5,0.8,0.6c-0.2,0.2-0.4,0.4-0.6,0.7c-0.3,0.3-0.4,0.7-0.4,1.1l-0.9,0.5
	c-0.3,0.2-0.6,0.3-0.9,0.4c-1,0.5-2.2,1-3.1,1.9c-0.1,0.1-0.3,0.3-0.5,0.4c-0.7,0.5-1.9,1.4-2.1,3.1l-0.2,1.4l1.4,0.5
	c2.4,0.9,3.7-0.6,4.3-1.2c0.1-0.1,0.2-0.2,0.3-0.3c1-0.5,1.8-1.1,2.5-1.7c0.9-0.7,1.2-1.5,1.2-2.2c0,0,0-0.1,0-0.1
	c0.3,0.1,0.6,0.1,0.9,0c1.2-0.2,2.5-0.5,3.7-1.4c1-0.7,2-1.4,3-2.1c1.5-1,3-2.1,4.4-3.2c0.7-0.5,1.3-1,2-1.6
	c1.2-0.9,2.5-1.9,3.7-2.9c0.5-0.4,0.9-0.8,1.3-1.2c0.9-0.8,1.7-1.6,2.7-2c5-2.2,9.6-5.5,13.9-10.2c0.3-0.3,0.6-0.7,0.9-1
	c0.4-0.5,0.7-0.9,1.1-1.2l0.4-0.3c1.6-1.3,3.6-2.8,4.2-5.6l0.2-0.1c0.1-0.1,0.2-0.1,0.3-0.2c0.5-0.3,1.3-0.7,1.7-1.5
	c0.4-0.8,1.1-1.5,1.8-2.3c0.7-0.8,1.6-1.7,2.2-2.8c0.4-0.6,0.8-1,1.4-1.2c1.7-0.5,2.7-1.8,3.3-2.6l0.6-0.9c0.7-1.1,1.5-2.1,2.1-3.3
	c0.5-1,1-1.6,1.5-2c2.3-1.7,3.8-3.7,4.6-6.1c0.4-1,0.6-1.5,0.9-1.5c2.5-0.6,3.8-2.4,4.8-3.9c0.2-0.3,0.4-0.5,0.6-0.8l0.8-1.1
	c2.1-2.8,4.1-5.4,6.7-7.6c1.1-0.9,2.3-1.7,3.5-2.6c1.4-1,2.9-2,4.2-3.2c1.2-1,2.5-1.9,3.9-2.9c1-0.7,2.1-1.5,3.1-2.2
	c2.9-2.3,5.4-4.9,7.9-7.5c0.7-0.8,1.5-1.6,2.2-2.3c0.4-0.1,0.7-0.3,1-0.5c1.3-0.7,2.7-1.6,4-2.7c0.9-0.8,1.7-1.6,2.4-2.3
	c0.8-0.9,1.6-1.7,2.5-2.4c3.1-2.6,5.8-5.5,8.2-8.3c1-1.1,2.1-2.3,3.3-3.2c3-2.1,5.8-4.6,8.1-6.6c2.5-2.2,4.5-4.4,6.1-6.6
	c2.1-0.5,3.5-1.7,4.7-2.8l0.2-0.2c0.7-0.6,1.4-1.3,2.1-1.9c1.4-1.4,2.8-2.6,4.3-3.8c2.2-1.8,4.4-3.5,6.5-5.3
	c2.1-1.7,4.5-3.3,6.7-4.8c1.4-0.9,2.7-1.8,4-2.7c2.7-1.9,4.6-3.8,6-6c1-1.6,2.3-3,3.3-4.1c1,1.1,2,2.3,3,3.4
	c1.9,2.3,3.9,4.7,6.2,6.7c0.1,0.1,0.2,0.3,0.3,0.4c0.2,0.2,0.3,0.4,0.5,0.6l0.7,0.8c1.1,1.2,2.2,2.5,3.4,3.7c1.6,1.7,3.1,3.4,4.7,5
	c1,1.1,2.1,2.2,3.2,3.3c1.2,1.2,2.4,2.3,3.6,3.4c2.5,2.4,5.1,4.8,7.4,7.4c1,1.1,2,2.1,2.9,3.2c0.8,1.1,1.6,2.1,2.3,3.1
	c0.3,0.6,0.7,1.2,1,1.8c1.9,4.2,4.6,7.9,8.3,11.4c0.6,1.1,1.3,2.1,2,3l1.5,1.9c1.1,1.4,2.2,2.7,3.3,4.2c3.3,4.4,7.3,8.4,12.3,12.1
	c3.1,2.3,6.2,5.1,9.3,8.4c1,1.1,2,2.3,3,3.4c2.1,2.4,4.2,5,6.9,7c0,0,0.1,0.1,0.3,0.3c1.1,1.9,2.5,3.3,3.8,4.5c1,1,2,2,2.9,3
	c2.1,2.2,4.2,4.4,6.9,6.2c0.6,0.4,1.1,1.1,1.4,2l0.1,0.2c0.3,0.8,0.7,1.9,1.8,2.5c1.3,0.7,2.4,1.8,3.5,2.9c1,1,2,1.9,3.3,2.8
	c1.1,0.8,1.9,1.4,2.3,2.3c1.4,2.7,3.2,4.8,5.3,7.2c3.3,3.7,6.5,7.6,9.5,11.4l2.1,2.6c1.5,1.9,3.1,3.6,4.7,5.3l1.3,1.4
	c0.2,0.2,0.4,0.5,0.6,0.7c0.8,0.9,1.6,1.8,2.6,2.6c1.6,1.1,3,2.5,4.5,4c0.5,0.5,0.9,1,1.4,1.5c2.1,2.1,4.3,4.2,6.5,6.3l7.5,7.2
	l-1.1-4.2c0.7,0.7,1.4,1.4,2.1,2c0.2,0.2,0.9,0.9,1.9,0.9c0.5,0,1.2-0.2,1.9-0.9c0.2-0.3,0.8-1.1,0.6-2.2l3.8,1.1l-1.5-3.6
	c-0.4-1.1-1-2-1.5-2.9c-0.2-0.3-0.4-0.7-0.6-1c-1-1.7-2-3.2-3.1-4.5c1.7,1.1,3.6,1.9,5.3,2.7l0.2,0.1c3,1.3,5.1,2.8,6.7,4.6
	c0.4,0.4,0.7,0.9,1.1,1.3c0.3,0.4,0.7,0.8,1,1.2c2.4,2.8,4.8,5.6,7.2,8.4c0.5,0.6,1.3,0.9,2.1,0.8l0.5,0.8c0,0.1,0,0.2,0,0.4
	c0,0.6,0.3,1.2,0.9,1.7c0.2,0.2,0.5,0.3,0.7,0.4l1.4,2.3c0.2,0.3,0.3,0.6,0.5,1c0.5,1,1.1,2.3,2.4,3.4l3.4,2.7l-0.4-4.3
	c-0.2-2.9-2-4.2-3.2-5.2l-1-0.8l-0.2-1.2c0-0.2-0.1-0.7-0.5-1.2c-0.3-0.4-0.9-0.9-1.7-1l-0.8-0.1c0.3-0.4,0.5-1.1,0.4-1.9
	c-0.2-1.9-1.4-3-2.1-3.7c-0.8-0.8-1.2-1.4-1.2-2.2c-0.1-1.8-0.9-3.4-2.5-4.7c-0.4-0.3-0.8-0.7-1.1-1c0.4-0.1,0.9-0.3,1.3-0.8
	c0.6-0.6,1.1-1.4,0.9-2.4c0.3,0,0.5,0.2,1,0.6c0.3,0.2,0.6,0.5,0.9,0.7c1.5,1,2.7,2.4,4,3.9c0.5,0.5,0.9,1,1.4,1.5
	c0.5,0.5,1,1,1.5,1.5l10.7,10.7l-7.1-12.3c-1.3-2.3-2.8-4.5-4.2-6.5c-0.5-0.7-1-1.4-1.5-2.2c-1.1-1.6-2.1-3.2-3.1-4.9
	c-1.6-2.5-3.2-5.1-5-7.5l2.9,0.8c0.4,0.4,0.9,0.8,1.3,1.2c0.3,0.3,0.6,0.5,0.9,0.8l0.3,0.3c0.6,0.6,1.4,1.4,2.9,1.8l2.6,0.7
	l-0.1-0.7l0.1,0.1c0.7,0.7,1.5,1.5,2.2,2.3c1.5,1.6,3.4,1.7,5.3,0.4c0.2,0.2,0.4,0.5,0.6,0.7c0.3,0.3,0.5,0.6,0.8,0.9
	c0.8,1.1,1.9,1.5,3.3,1.1l2.6-0.8l-1.7-2.2c-1.2-1.5-2-3.4-2.6-6.1c-0.4-2-1.3-3.5-2.1-4.8c-1-1.6-2.2-3-3.4-4.4
	c0.6,0,1.1-0.2,1.6-0.6c0.3-0.2,0.5-0.5,0.6-0.8c0.2,0.2,0.4,0.4,0.7,0.6c0.3,0.3,0.7,0.4,1.1,0.4l0.5,0.9c0.2,0.3,0.3,0.6,0.4,0.9
	c0.5,1,1,2.2,1.9,3.1c0.1,0.1,0.3,0.3,0.4,0.5c0.5,0.7,1.4,1.9,3.1,2.1l1.4,0.2l0.5-1.4c0.2-0.5,0.3-1,0.3-1.4c0-1.5-1-2.4-1.5-2.8
	c-0.1-0.1-0.2-0.2-0.3-0.2c-0.5-0.9-1.1-1.7-1.7-2.6c-0.7-1-1.6-1.3-2.4-1.2c0.1-0.3,0.1-0.6,0-0.9c-0.2-1.2-0.5-2.5-1.4-3.7
	c-0.7-1-1.4-2-2.1-2.9c-1-1.5-2.1-3-3.2-4.4c-0.5-0.7-1-1.3-1.6-2c-0.9-1.2-1.9-2.5-2.9-3.7c-0.4-0.5-0.8-0.9-1.2-1.3
	c-0.8-0.9-1.6-1.7-2-2.7c-2.2-5-5.5-9.6-10.1-13.9c-0.3-0.3-0.7-0.6-1-0.9c-0.5-0.4-0.9-0.7-1.2-1.1l-0.3-0.4
	c-1.3-1.6-2.8-3.6-5.6-4.2l-0.1-0.2c-0.1-0.1-0.1-0.2-0.2-0.3c-0.3-0.5-0.7-1.3-1.5-1.7c-0.8-0.4-1.5-1.1-2.3-1.8
	c-0.8-0.7-1.7-1.6-2.8-2.2c-0.6-0.4-1-0.8-1.2-1.4c-0.5-1.7-1.8-2.7-2.6-3.3l-0.9-0.6c-1-0.7-2.1-1.5-3.3-2.1c-1-0.5-1.6-1-2-1.5
	c-1.7-2.3-3.7-3.8-6.1-4.6c-1-0.4-1.5-0.6-1.5-0.9c-0.6-2.5-2.4-3.8-3.9-4.8c-0.3-0.2-0.5-0.4-0.8-0.6l-1.1-0.8
	c-2.8-2.1-5.4-4.1-7.6-6.7c-0.9-1.1-1.7-2.3-2.6-3.5c-1-1.4-2-2.9-3.2-4.2c-1-1.2-1.9-2.5-2.9-3.9c-0.7-1-1.5-2.1-2.2-3.1
	c-2.3-2.9-4.9-5.4-7.5-7.9c-0.8-0.7-1.6-1.5-2.3-2.2c-0.1-0.4-0.3-0.7-0.5-1c-0.7-1.3-1.6-2.7-2.7-4c-0.8-0.9-1.6-1.7-2.3-2.4
	c-0.9-0.8-1.7-1.6-2.4-2.5c-2.6-3.1-5.5-5.8-8.3-8.2c-1.1-1-2.3-2.1-3.2-3.3c-2.1-3-4.6-5.8-6.6-8.1c-2.2-2.5-4.4-4.5-6.6-6.1
	c-0.5-2.1-1.7-3.5-2.8-4.7l-0.2-0.2c-0.6-0.7-1.3-1.4-1.9-2c-1.4-1.5-2.6-2.8-3.8-4.3c-1.7-2.1-3.4-4.2-5.1-6.3l-0.2-0.2
	c-1.7-2.1-3.3-4.4-4.8-6.7c-0.9-1.4-1.8-2.7-2.7-4c-1.9-2.7-3.8-4.6-6-6c-1.6-1-3-2.3-4.1-3.3c1.1-1,2.3-2,3.4-2.9
	c2.3-1.9,4.7-3.9,6.8-6.2c0.1-0.1,0.3-0.2,0.4-0.3c0.2-0.2,0.4-0.3,0.6-0.5l0.6-0.5c1.3-1.2,2.6-2.3,3.9-3.5c1.7-1.6,3.4-3.1,5-4.7
	c1.1-1,2.2-2.1,3.3-3.2c1.2-1.2,2.3-2.4,3.4-3.6c2.4-2.5,4.8-5.1,7.5-7.5c1-1,2.1-1.9,3.1-2.8c1.1-0.8,2.1-1.6,3.1-2.3
	c0.6-0.3,1.2-0.7,1.8-1c4.2-1.9,7.9-4.6,11.4-8.3c1.1-0.6,2.1-1.3,3-2c0.7-0.5,1.3-1,1.9-1.6c1.4-1.1,2.7-2.2,4.1-3.3
	c4.4-3.3,8.4-7.3,12.1-12.3c2.3-3.1,5.1-6.2,8.4-9.3c1.1-1,2.3-2,3.4-3c2.4-2.1,5-4.2,7-6.9c0,0,0.1-0.1,0.3-0.3
	c1.9-1.1,3.3-2.6,4.5-3.9c0.9-1,1.9-2,2.9-2.9c2.2-2.1,4.4-4.2,6.2-6.9c0.4-0.6,1.1-1.1,2-1.4l0.2-0.1c0.8-0.3,1.9-0.7,2.5-1.8
	c0.7-1.3,1.8-2.4,2.9-3.5c1-1,1.9-2,2.8-3.3c0.8-1.1,1.4-1.9,2.3-2.3c2.7-1.4,4.8-3.2,7.2-5.3c3.7-3.3,7.6-6.5,11.5-9.6l2.5-2.1
	c1.8-1.5,3.6-3.1,5.3-4.7l1.5-1.3c0.2-0.2,0.5-0.4,0.7-0.6c0.9-0.8,1.8-1.6,2.6-2.6c1.1-1.6,2.5-3,4-4.5c0.5-0.5,1-0.9,1.5-1.4
	c2.1-2.1,4.2-4.3,6.3-6.5l7.2-7.5l-4.2,1.1c0.7-0.7,1.4-1.4,2-2.1c0.2-0.2,0.8-0.9,0.9-1.9c0-0.5-0.2-1.2-0.9-1.9
	c-0.3-0.2-1.1-0.8-2.2-0.6l1.1-3.8l-3.7,1.5c-1.1,0.4-2,1-2.9,1.5c-0.3,0.2-0.7,0.4-1,0.6c-1.7,1-3.2,2-4.6,3.1
	c1.1-1.7,1.9-3.6,2.7-5.3l0.1-0.2c1.3-3,2.8-5.1,4.6-6.7c0.4-0.4,0.8-0.7,1.3-1.1c0.4-0.3,0.8-0.7,1.3-1.1l0.5-0.4
	c2.7-2.3,5.3-4.6,7.9-6.9c0.6-0.5,0.9-1.3,0.8-2.1l0.8-0.5c0.1,0,0.3,0,0.4,0c0.6,0,1.2-0.3,1.7-0.9c0.2-0.2,0.3-0.5,0.4-0.7
	l2.3-1.4c0.3-0.2,0.6-0.3,1-0.5c1-0.5,2.3-1.1,3.4-2.4l2.7-3.4l-4.3,0.4c-2.9,0.2-4.2,2-5.2,3.2l1.5,1.1l-1.5-1.1l-0.8,1l-1.2,0.2
	c-0.2,0-0.7,0.1-1.2,0.5c-0.3,0.2-0.9,0.9-1,1.7l-0.1,0.8c-0.4-0.3-1.1-0.5-1.9-0.4c-1.9,0.2-3,1.4-3.7,2.1
	c-0.8,0.8-1.4,1.2-2.2,1.2c-1.8,0.1-3.4,0.9-4.7,2.5c-0.3,0.4-0.7,0.8-1,1.1c-0.1-0.4-0.3-0.9-0.8-1.3c-0.6-0.6-1.4-1.1-2.4-0.9
	c0-0.3,0.2-0.5,0.6-1c0.2-0.3,0.5-0.6,0.7-0.9c1-1.5,2.4-2.7,3.9-4c0.5-0.5,1-0.9,1.5-1.4c0.5-0.5,1-1,1.5-1.5l10.7-10.7l-12.3,7.1
	c-2.3,1.3-4.5,2.8-6.6,4.2c-0.7,0.5-1.4,1-2.1,1.5c-1.6,1.1-3.2,2.1-4.9,3.1c-2.5,1.6-5.1,3.2-7.6,5l0.7-2.9
	c0.4-0.4,0.8-0.9,1.2-1.3c0.3-0.3,0.5-0.6,0.8-0.9l0.3-0.3c0.6-0.6,1.4-1.4,1.8-2.9l0.7-2.6l-0.7,0.1L443,61
	c0.7-0.7,1.5-1.5,2.2-2.2c1.6-1.5,1.7-3.4,0.4-5.3c0.2-0.2,0.5-0.4,0.7-0.6c0.3-0.3,0.6-0.5,0.9-0.8c1.1-0.8,1.5-1.9,1.1-3.3
	l-0.8-2.6l-2.2,1.7c-1.5,1.2-3.4,2-6.1,2.6c-2,0.4-3.5,1.3-4.8,2.1c-1.6,1-3,2.2-4.4,3.4c0-0.6-0.2-1.1-0.6-1.6
	c-0.2-0.3-0.5-0.5-0.8-0.6c0.2-0.2,0.4-0.4,0.6-0.7c0.3-0.3,0.4-0.7,0.4-1.1l0.9-0.5c0.3-0.2,0.6-0.3,0.9-0.4c1-0.5,2.2-1,3.1-1.9
	c0.1-0.1,0.3-0.3,0.5-0.4c0.7-0.5,1.9-1.4,2.1-3.1l0.2-1.4l-1.4-0.5c-2.4-0.9-3.7,0.6-4.3,1.2c-0.1,0.1-0.2,0.2-0.3,0.3
	c-1,0.5-1.8,1.1-2.5,1.7c-1,0.7-1.3,1.6-1.2,2.4c-0.3-0.1-0.6-0.1-0.9,0c-1.2,0.2-2.5,0.5-3.7,1.4c-1,0.7-1.9,1.4-2.9,2.1
	c-1.5,1-3,2.1-4.5,3.2c-0.7,0.5-1.3,1-2,1.5c-1.2,1-2.5,1.9-3.7,2.9c-0.5,0.4-0.9,0.8-1.3,1.2c-0.9,0.8-1.7,1.6-2.7,2
	c-5,2.2-9.6,5.5-13.9,10.2c-0.3,0.3-0.6,0.7-0.9,1c-0.4,0.5-0.7,0.9-1.1,1.2l-0.4,0.3c-1.6,1.3-3.6,2.8-4.2,5.6l-0.2,0.1
	c-0.1,0.1-0.2,0.1-0.3,0.2c-0.5,0.3-1.3,0.7-1.7,1.5c-0.4,0.8-1.1,1.5-1.8,2.3c-0.7,0.8-1.6,1.7-2.2,2.8c-0.4,0.6-0.8,1-1.4,1.2
	c-1.7,0.5-2.7,1.8-3.3,2.6l-0.6,0.9c-0.7,1-1.5,2.1-2.1,3.3c-0.5,1-1,1.6-1.5,2c-2.3,1.7-3.8,3.7-4.6,6.1c-0.4,1-0.6,1.5-0.9,1.5
	c-2.5,0.6-3.8,2.4-4.8,3.8c-0.2,0.3-0.4,0.5-0.6,0.8l-0.8,1.1c-2.1,2.8-4.1,5.4-6.7,7.6c-1.1,0.9-2.3,1.7-3.5,2.6
	c-1.4,1-2.9,2-4.2,3.2c-1.2,1-2.5,1.9-3.9,2.9c-1,0.7-2.1,1.5-3.1,2.2c-2.9,2.3-5.4,4.9-7.9,7.5c-0.7,0.8-1.5,1.6-2.2,2.3
	c-0.4,0.1-0.7,0.3-1,0.5c-1.3,0.7-2.7,1.6-4,2.7c-0.9,0.8-1.7,1.6-2.4,2.3c-0.8,0.9-1.6,1.7-2.5,2.4c-3.1,2.6-5.8,5.5-8.2,8.3
	c-1,1.1-2.1,2.3-3.3,3.2c-3,2.1-5.8,4.6-8.1,6.6c-2.5,2.2-4.5,4.4-6.1,6.6c-2.1,0.5-3.5,1.7-4.7,2.8l-0.2,0.2
	c-0.7,0.6-1.3,1.2-2,1.9c-1.4,1.3-2.8,2.6-4.3,3.8c-2.2,1.8-4.4,3.5-6.5,5.3c-2.1,1.7-4.4,3.3-6.7,4.8c-1.4,0.9-2.7,1.8-4,2.7
	c-2.7,1.9-4.6,3.8-6,6c-1,1.6-2.3,3-3.3,4.1c-1-1.1-2-2.3-3-3.4c-1.9-2.3-3.9-4.7-6.2-6.8c-0.1-0.1-0.2-0.3-0.3-0.4
	c-0.2-0.2-0.3-0.4-0.5-0.6l-0.4-0.5c-1.2-1.3-2.4-2.7-3.6-4c-1.6-1.7-3.1-3.4-4.7-5c-1-1.1-2.1-2.2-3.2-3.3
	c-1.2-1.2-2.4-2.3-3.6-3.4c-2.5-2.4-5.1-4.8-7.5-7.4c-1-1.1-2-2.1-2.9-3.2c-0.8-1.1-1.6-2.1-2.3-3.1c-0.3-0.6-0.7-1.2-1-1.8
	c-1.9-4.2-4.6-7.9-8.3-11.4c-0.6-1.1-1.3-2.1-2-3l-1.5-1.9c-1.1-1.4-2.2-2.8-3.3-4.2c-3.3-4.4-7.3-8.4-12.3-12.1
	c-3.1-2.3-6.2-5.1-9.3-8.4c-1-1.1-2-2.3-3-3.4c-2.1-2.4-4.2-4.9-6.9-7c0,0-0.1-0.1-0.3-0.3c-1.1-1.9-2.6-3.3-3.8-4.5
	c-1-1-2-1.9-2.9-2.9c-2.1-2.2-4.3-4.4-6.9-6.2c-0.6-0.4-1.1-1.1-1.4-2l-0.1-0.2c-0.3-0.8-0.7-1.9-1.8-2.6c-1.3-0.7-2.4-1.8-3.5-2.9
	c-1-1-2-1.9-3.3-2.8c-1.1-0.8-1.9-1.4-2.3-2.3c-1.4-2.7-3.2-4.8-5.3-7.2c-3.3-3.7-6.5-7.6-9.5-11.4l-2.1-2.6
	c-1.5-1.9-3.1-3.6-4.7-5.3l-1.3-1.5c-0.2-0.2-0.4-0.5-0.6-0.7c-0.8-0.9-1.6-1.8-2.6-2.6c-1.6-1.1-3-2.5-4.5-4
	c-0.5-0.5-0.9-1-1.4-1.5c-2.1-2.1-4.3-4.2-6.5-6.3l-7.5-7.2l1.1,4.2c-0.7-0.7-1.4-1.4-2.1-2c-0.2-0.2-0.9-0.9-1.9-0.9
	c-0.5,0-1.2,0.2-1.9,0.9c-0.2,0.3-0.8,1.1-0.6,2.2l-3.8-1.1l1.5,3.7c0.4,1.1,1,2,1.5,2.9c0.2,0.3,0.4,0.7,0.6,1c1,1.7,2,3.2,3.1,4.5
	c-1.7-1.1-3.6-1.9-5.3-2.7l-0.2-0.1c-3-1.3-5.1-2.8-6.7-4.7c-0.4-0.4-0.7-0.9-1.1-1.3c-0.3-0.4-0.7-0.8-1-1.2l-0.2-0.2
	c-2.3-2.7-4.7-5.5-7.1-8.2c-0.5-0.6-1.3-0.9-2.1-0.8l-0.5-0.8c0-0.1,0-0.2,0-0.3c0,0,0,0,0,0c0-0.6-0.3-1.2-0.9-1.7
	c-0.2-0.2-0.5-0.3-0.7-0.4L66,23.9c-0.2-0.3-0.3-0.6-0.5-1c-0.5-1-1.1-2.3-2.4-3.4l-3.4-2.7l0.4,4.3C60.3,24.2,62,25.4,63.2,26.4z
	 M65.6,29.5c-0.2-0.2-0.5-0.6-0.5-1.1c0,0,0,0,0,0c0-0.2,0-0.3,0.1-0.5l0.8,0.6l-0.3,1.1C65.7,29.6,65.7,29.6,65.6,29.5z M70.5,32
	l0.2,0l0.1,0.1c0,0,0,0.1,0,0.1l-0.1,0C70.5,32.1,70.5,32.1,70.5,32z M467.9,69.5l0,0.2l-0.1,0.1c0,0-0.1,0-0.1,0l0-0.1
	C467.8,69.6,467.8,69.6,467.9,69.5z M427.2,436.2c0-0.1-0.1-0.1-0.2-0.2l1-0.5l0.4,0.6C428.1,436.4,427.6,436.4,427.2,436.2z
	 M32.9,429.4l0-0.2l0.1-0.1c0,0,0.1,0,0.1,0l0,0.1C33,429.3,33,429.4,32.9,429.4z M73.6,62.7c0,0.1,0.1,0.1,0.1,0.2l-1,0.5l-0.4-0.6
	C72.7,62.6,73.2,62.6,73.6,62.7z M144,94.3c0.1-0.1,0.2-0.1,0.2-0.1c0.1,0,0.1,0.1,0.2,0.2l-0.3-0.1l0.8,3.1
	c0.1,0.3,0.2,0.5,0.2,0.7c-0.8-0.7-1.7-1.4-2.8-1.8l-2.4-0.9c0-0.1,0-0.1,0-0.2c0-0.4-0.1-0.8-0.4-1.4l-0.2-0.5
	c0.4,0.2,0.8,0.4,1.1,0.6c0.2,0.1,0.3,0.2,0.5,0.2C141.4,94.4,142.6,95,144,94.3z M158.3,107.2c0.4,0.3,0.7,0.7,1.1,1c0,0,0,0,0,0
	c-0.7,0.4-1.2,1.1-1.4,1.9c0,0.2,0,0.3,0,0.5l-2.4-3.1l-0.1,0.9l-0.9-0.8c-0.1-0.1-0.1-0.2-0.2-0.3c-0.1-0.1-0.1-0.2-0.3-0.3
	c0.4,0.1,0.8,0.1,1.3,0.1L158.3,107.2z M129.3,145.8c-0.6-0.4-1.7-1.1-3.2-0.7c0.4-1.2,0.3-2.2,0-2.9c0.6,0.8,1.3,1.5,1.9,2.2
	C128.5,144.8,128.9,145.3,129.3,145.8C129.3,145.8,129.3,145.8,129.3,145.8z M137.3,94.3l-0.4-0.4c0.2-0.2,0.6-0.4,1.2-0.4
	c0.3,0,0.6,0.1,0.8,0.3L137.3,94.3z M135.5,95.1c0.1,0.3,0.2,0.7,0.5,1.1c0.4,0.6,1,1,1.7,1c0.2,0,0.4,0,0.6-0.1l2,2.2
	c2.2,2.4,4.5,4.7,6.5,6.7c0.5,0.5,1,0.6,1.3,0.7l0.7,0.2l-0.2,0l2.1,2.7c0.2,0.3,0.4,0.5,0.6,0.7c0.6,0.7,1.7,1,2.5,0.5
	c0.6-0.3,1.1-0.9,1.2-1.6c0-0.1,0-0.2,0-0.3l0.3,0.1L155,112c-0.4,3,0.8,4.3,2,5.2l0.4,0.3c1,0.7,1.3,1,1.3,1.5
	c0.1,1,0.7,1.9,1.6,2.5c0.3,0.1,0.5,0.5,0.8,1c0.2,0.3,0.3,0.5,0.5,0.7c0.4,0.6,0.8,1.1,1.1,1.7c-0.6-0.3-1.1-0.7-1.7-1.6
	c-1-1.6-2.5-3.4-5.3-4c-0.3-3.6-2.6-5.6-4.8-7.1c-1-0.7-2.6-1.2-4.4,0.3c-0.1,0.1-0.2,0.1-0.3,0.2c-2.4-2.1-4.8-3.6-7.3-4.6
	c-0.2-0.1-0.2-0.1-0.2-0.1c0-0.1-0.1-0.4,0.2-1.1c0.5-1.3,0.2-2.7-0.8-3.6c-1-1-2.6-1.2-4-0.6c-0.7,0.3-1.3,0.7-1.9,1.1l-0.2,0.1
	c-0.4,0.3-0.6,0.4-0.8,0.5c0,0-0.1-0.1-0.1-0.1c-0.1-0.1-0.2-0.2-0.2-0.3c1.1-0.9,1.7-1.9,2-2.8c0.8,0.3,1.9,0.1,2.6-0.6
	c0.7-0.7,1-2.1,0.3-3c-0.9-1.2-2-2-3.2-2.8c-0.3-0.2-0.7-0.5-1.1-0.8c0.5-0.6,1.1-1.3,1-2.2c0.1,0,0.2,0,0.3,0
	c0.4-0.1,0.8-0.3,1.1-0.5L135.5,95.1z M152,108.3L152,108.3L152,108.3L152,108.3l0.3,1.8c-0.2,0-0.5-0.1-0.7-0.2
	c-0.2-0.3-0.3-0.8-0.3-1.2c0.1-0.3,0.2-0.6,0.4-0.8l0.4,0.2L152,108.3z M161,109.9c0.1,0.1,0.3,0.3,0.4,0.4l-0.4,0.3
	c0-0.2-0.1-0.4-0.2-0.6c-0.2,0-0.4-0.2-0.6-0.1c-0.3,0.1-0.4,0.5-0.4,0.8l-0.5,0.3c-0.1-0.2-0.2-0.4-0.1-0.6
	c0.1-0.3,0.2-0.5,0.5-0.6C160.2,109.5,160.7,109.7,161,109.9z M94.6,111.9c-0.8-0.5-1.5-1.4-2.2-2.4c0-0.1-0.1-0.1-0.1-0.2
	C93.1,110.1,93.9,111,94.6,111.9z M112.1,122.3C112.1,122.3,112.1,122.3,112.1,122.3C112,122.3,112,122.3,112.1,122.3
	C112,122.3,112,122.3,112.1,122.3z M112.5,124.4L112.5,124.4l-0.2-0.2c0.1,0,0.1-0.1,0.2-0.1C112.5,124.2,112.5,124.3,112.5,124.4z
	 M128.9,132.1c-0.1,0-0.1,0-0.2,0l0-0.9c0,0,0,0,0,0c0-1.6-1-2.4-1.4-2.8l-0.2-0.1c-1-1-2-1.9-3-2.8l-1.8-1.7
	c-0.1-0.1-0.3-0.3-0.4-0.4c-0.6-0.6-0.6-0.6-0.5-1c0.4-1.3-0.5-2.4-0.8-2.8c-0.4-0.4-0.9-1.1-1.8-1.6c0.2-0.3,0.4-0.7,0.6-1.2
	c0.5-1.6,0.1-3-1.1-4.2l-0.5-0.5c-0.4-0.4-0.8-0.8-1.1-1.1c0,0,0,0-0.1-0.1c0.6-1.3,0.6-2.6,0-3.7c1.3,1,2.6,2.1,3.9,3.1
	c1.2,0.9,2.3,1.8,3.5,2.7l0.3,0.3c0.1,0.1,0.2,0.2,0.3,0.2c0.4,2.6,2,4,3.4,5.2c0.2,0.2,0.5,0.4,0.7,0.6c0.6,0.5,1.1,1,1.7,1.5
	c0.8,0.7,1.5,1.4,2.3,2.1c0.5,0.4,0.5,0.7,0.4,1.1c-0.5,2.5,1,3.9,1.5,4.3l0.1,0.1c0.8,0.7,1.7,1.5,2.8,2.1c1.1,0.6,2,1.3,2.7,2
	c1.6,1.6,3.1,3.2,4.7,4.9l1.5,1.6c0.1,0.1,0.1,0.1,0.2,0.2c-0.5,0.1-1.1,0.3-1.6,0.9l-0.3,0.4l-0.1,0.5c0,0.1,0,0.2-0.1,0.4
	c-0.7,0-1.3,0.4-1.7,1c-0.6-0.2-1.5-0.3-2.4,0.3c-0.1,0.1-0.2,0.1-0.2,0.1c0-0.1-0.1-0.1-0.1-0.2l-0.3-0.3c-0.8-0.9-1.6-1.9-2.3-2.9
	l-2-2.5c-0.8-1-1.6-2-2.5-3C131.8,132.6,130.4,132,128.9,132.1z M106.1,100.1c-0.3-0.1-0.6-0.3-0.9-0.4c0.4-1.9-0.5-3.1-1.1-3.8
	c0.4,0.4,0.8,0.7,1.2,1.1c1.4,1.2,2.7,2.3,3.8,3.5c0.6,0.6,1.2,1.2,1.7,1.7c-0.6-0.2-1.2-0.3-1.9-0.3
	C108.1,101,107,100.5,106.1,100.1z M128.9,113.2L128.9,113.2L128.9,113.2L128.9,113.2L128.9,113.2z M93.4,84.9
	c1.5,1.7,3.1,3.5,4.7,5.3c-1.7-1.5-3.3-3-4.6-4.9c-0.4-0.5-0.9-0.9-1.5-1c-0.2,0-0.5,0-0.8,0l-1.1,0c-0.1-0.1-0.2-0.3-0.3-0.3
	c0,0,0-0.1,0.1-0.4c0.3-0.6,0.4-1.2,0.5-1.8c0.9,0.9,1.7,1.8,2.5,2.7L93.4,84.9z M97,100.2c-0.4,0.1-0.7,0-0.9-0.2L97,100.2
	L97,100.2z M97,100.2l-0.2-0.8C96.9,99.6,97,99.8,97,100.2z M150.8,116.9c-0.3,0.2-0.5,0.2-0.6,0.1l0.5-0.4
	C150.7,116.7,150.7,116.8,150.8,116.9C150.8,116.9,150.8,116.9,150.8,116.9z M98.3,116.4c-0.7-0.3-0.9-0.5-1-0.8
	c0-0.2-0.1-0.3-0.1-0.5C97.6,115.5,97.9,116,98.3,116.4z M114.7,127l0.3-0.2l0.2,0.1c0.6,0.2,1.1,0.5,1.6,0.7
	c-0.1,0-0.3,0.1-0.4,0.1l-3,1l1.6,1.4c-0.2-0.1-0.4-0.2-0.6-0.4c-1-0.7-1.9-1.5-2.8-2.2l-0.9-0.7c-0.1-0.1-0.1-0.1-0.2-0.2
	c0.3,0.2,0.6,0.4,0.9,0.6C111.9,127.7,113.1,128.2,114.7,127z M146.9,147c-0.1,0-0.1-0.1-0.1-0.2L146.9,147
	C146.9,147,146.9,147,146.9,147z M147,146.7L147,146.7L147,146.7l-0.3,0.1l0,0C146.8,146.7,146.9,146.6,147,146.7
	C147,146.6,147,146.6,147,146.7L147,146.7z M123.6,84.8c-0.5-0.4-1.1-0.8-1.6-1.3c0.1-0.1,0.2-0.3,0.2-0.4c0.6,0.7,1.2,1.4,1.9,2.1
	C124,85.1,123.8,85,123.6,84.8z M160.4,113.4c0.3,0,0.6-0.1,0.9-0.2c-0.1,0.2-0.2,0.5-0.3,0.8C160.8,113.8,160.6,113.6,160.4,113.4z
	 M161.6,110.9c0,0.2-0.3,0.5-0.5,0.6c-0.2,0.1-0.4,0.1-0.5,0.2l0-0.3c0.3-0.2,0.4-0.5,0.4-0.9l0.4-0.3c0,0,0.1,0.1,0.1,0.1
	C161.6,110.5,161.7,110.7,161.6,110.9z M134.7,90.7c0.1-0.2,0.3-0.5,0.3-0.8c1.3,0.8,2.4,1.8,3.7,3c0.1,0.1,0.1,0.1,0.2,0.1
	l-4.7-1.7C134.4,91.1,134.6,90.9,134.7,90.7z M80.3,72.9l-0.2-0.2c-1.5-1.4-2.7-3.1-3.9-4.9c-0.5-0.7-0.9-1.3-1.4-2
	c0,0-0.1-0.1-0.1-0.1l0.9-0.5c2,2.5,4,4.9,6,7.2c-0.4,0.1-0.8,0.2-1.2,0.5C80.4,72.9,80.3,73,80.3,72.9
	C80.3,72.9,80.3,72.9,80.3,72.9z M121.2,136.9l-0.2-0.2c0,0-0.1-0.1-0.1-0.1c0,0,0-0.1,0-0.1c0.1-0.2,0.2-0.4,0.2-0.6
	c1.2,1.3,2.3,2.6,3.3,4c0,0.1,0.1,0.1,0.1,0.2C123.5,139,122.3,137.9,121.2,136.9z M131.3,154.5l0.1,0l0,0l0.1,0c0,0,0,0,0,0
	C131.4,154.4,131.3,154.4,131.3,154.5z M392.7,157.4c-0.3,0.4-0.7,0.7-1,1.1l0,0c-0.4-0.7-1.1-1.2-1.9-1.4c-0.2,0-0.3,0-0.5,0
	l3.1-2.4l-0.9-0.1l0.7-0.8c0.1-0.1,0.2-0.2,0.3-0.3c0.1-0.1,0.2-0.1,0.3-0.3c-0.1,0.4-0.1,0.8-0.1,1.3L392.7,157.4z M369.7,113.9
	c0.1-0.2,0.2-0.4,0.4-0.6c0.7-0.9,1.5-1.9,2.2-2.8l0.7-0.9c0.1-0.1,0.1-0.1,0.2-0.2c-0.2,0.3-0.4,0.6-0.6,0.9
	c-0.5,0.6-1,1.8,0.2,3.4l0.2,0.3l-0.1,0.1c-0.2,0.6-0.5,1.1-0.7,1.6c0-0.1-0.1-0.3-0.1-0.4l-1-3L369.7,113.9z M382,99.7l1-1.6
	c0,0,0,0,0,0c0,0,0,0,0,0.1L382,99.7L382,99.7z M402.5,144c-0.3,0.1-0.5,0.2-0.7,0.2c0.7-0.8,1.4-1.7,1.8-2.8l0.9-2.3
	c0.4,0,0.9,0,1.6-0.4l0.5-0.2c-0.2,0.4-0.4,0.8-0.6,1.1c-0.1,0.2-0.2,0.3-0.2,0.5c-0.1,0.3-0.5,0.9-0.5,1.6c0,0.4,0.1,0.9,0.3,1.4
	c0.1,0.1,0.1,0.2,0.1,0.2c0,0.1-0.1,0.1-0.2,0.2l0.1-0.3L402.5,144z M390.7,154.4l-2.9-0.4c-3-0.4-4.3,0.8-5.2,2l-0.3,0.4
	c-0.7,1-1,1.3-1.5,1.3c-1,0.1-1.9,0.7-2.5,1.6c-0.1,0.3-0.5,0.5-1,0.8c-0.3,0.2-0.5,0.3-0.7,0.5c-0.6,0.4-1.1,0.8-1.7,1.1
	c0.3-0.6,0.7-1.1,1.6-1.7c1.6-1,3.4-2.5,4-5.3c3.6-0.3,5.6-2.6,7.1-4.8c0.7-1,1.2-2.6-0.3-4.4c-0.1-0.1-0.1-0.2-0.2-0.3
	c2.1-2.4,3.6-4.8,4.6-7.3c0.1-0.2,0.1-0.2,0.1-0.3c0.1,0,0.4-0.1,1.1,0.2c1.3,0.5,2.7,0.2,3.6-0.8c1-1,1.2-2.6,0.6-4
	c-0.3-0.7-0.7-1.3-1.1-1.9l-0.1-0.2c-0.3-0.4-0.4-0.6-0.5-0.8c0,0,0.1-0.1,0.1-0.1c0.1-0.1,0.2-0.2,0.3-0.2c0.9,1.1,1.9,1.7,2.8,2
	c-0.3,0.8-0.1,1.9,0.6,2.6c0.7,0.7,2.1,1,3,0.3c1.2-0.9,2-2,2.8-3.2c0.2-0.3,0.5-0.7,0.8-1.1c0.6,0.5,1.3,1.1,2.2,1
	c0,0.1,0,0.2,0,0.3c0.1,0.4,0.3,0.8,0.5,1.1l-3.7,1.4c-0.3,0.1-0.7,0.2-1.1,0.5c-0.6,0.4-1,1-1,1.7c0,0.2,0,0.4,0.1,0.6l-2.2,1.9
	c-2.4,2.2-4.7,4.5-6.7,6.5c-0.5,0.5-0.6,1-0.7,1.3l-0.2,0.7l0-0.2l-2.7,2.2c-0.3,0.2-0.5,0.4-0.7,0.6c-0.7,0.6-0.9,1.7-0.5,2.5
	c0.3,0.6,0.9,1.1,1.6,1.2c0.1,0,0.2,0,0.3,0L390.7,154.4z M389.5,160.5c-0.2,0.1-0.4,0.2-0.6,0.1c-0.2,0-0.5-0.3-0.6-0.5
	c-0.1-0.2-0.1-0.4-0.2-0.5l0.3,0c0.3,0.5,1,0.6,1.5,0.2l0,0l0,0l0,0c0-0.2,0.2-0.4,0.1-0.6c-0.1-0.1-0.2-0.3-0.4-0.3l0.4-0.2
	c0.3,0.6,0.2,1,0,1.3C389.8,160.2,389.7,160.4,389.5,160.5z M386.7,160.4c-0.2-0.1-0.5-0.2-0.8-0.3c0.2-0.2,0.4-0.4,0.6-0.7
	C386.5,159.8,386.6,160.1,386.7,160.4z M389.6,159c-0.1-0.1-0.3-0.1-0.5-0.1l-0.3-0.5c0.2-0.1,0.4-0.2,0.6-0.1
	c0.2,0.1,0.5,0.2,0.6,0.5L389.6,159z M353.2,146l-0.1-0.2l-0.2,0.1l-0.1,0v0c0-0.1,0.1-0.1,0.2-0.1C353.2,145.9,353.3,146,353.2,146
	C353.3,146.1,353.3,146.1,353.2,146L353.2,146L353.2,146L353.2,146z M359.7,144l-0.4-0.3l-0.5-0.1c-0.1,0-0.2,0-0.4-0.1
	c0-0.7-0.4-1.3-1-1.7c0.2-0.6,0.3-1.5-0.3-2.4c-0.1-0.1-0.1-0.2-0.1-0.2c0.1,0,0.1-0.1,0.2-0.1l0.3-0.3c0.9-0.8,1.9-1.6,2.8-2.3
	l2.4-1.9c1-0.8,2.1-1.7,3.1-2.5c1.4-1.2,2-2.5,1.8-4c0-0.1,0-0.1,0-0.2l0.9,0c1.6,0,2.4-1,2.8-1.4l0.1-0.2c1-1,1.9-2,2.8-3l1.7-1.8
	c0.1-0.1,0.3-0.3,0.4-0.4c0.6-0.6,0.6-0.6,1-0.5c1.3,0.4,2.4-0.5,2.8-0.8c0.4-0.4,1.1-0.9,1.6-1.8c0.3,0.2,0.7,0.4,1.2,0.6
	c1.6,0.5,3,0.1,4.2-1.1l0.6-0.6c0.4-0.4,0.7-0.7,1.1-1.1c0,0,0,0,0.1-0.1c1.3,0.6,2.6,0.6,3.7,0c-1,1.3-2.1,2.6-3.1,3.8
	c-0.9,1.2-1.8,2.3-2.7,3.5l-0.3,0.4c-0.1,0.1-0.2,0.2-0.2,0.3c-2.6,0.4-4,2-5.2,3.4c-0.2,0.2-0.4,0.5-0.6,0.7
	c-0.5,0.6-1,1.1-1.6,1.7c-0.7,0.8-1.4,1.5-2,2.3c-0.4,0.5-0.7,0.5-1.1,0.4c-2.5-0.5-3.9,1-4.3,1.5l-0.1,0.1
	c-0.7,0.8-1.5,1.7-2.1,2.8c-0.6,1.1-1.3,2-2,2.7c-1.6,1.6-3.3,3.2-5,4.8l-1.4,1.4c-0.1,0.1-0.1,0.1-0.2,0.2
	C360.5,145.1,360.3,144.5,359.7,144z M383.5,97.4c0.3-0.7,0.5-0.9,0.8-1c0.2,0,0.3-0.1,0.5-0.1C384.3,96.7,383.9,97,383.5,97.4z
	 M399.7,96c-0.1-0.4,0-0.7,0.2-0.9L399.7,96C399.7,96,399.7,96,399.7,96z M399.7,96l0.8-0.2C400.3,96,400.1,96.1,399.7,96z
	 M375.5,111.5l0.2-0.2c0,0.1,0.1,0.1,0.1,0.2C375.7,111.6,375.6,111.6,375.5,111.5z M377.6,111.1
	C377.6,111.1,377.6,111.1,377.6,111.1C377.6,111.1,377.6,111.1,377.6,111.1C377.6,111.1,377.6,111.1,377.6,111.1z M398,108
	c0.9-0.9,1.3-1.9,1.8-2.9c0.1-0.3,0.3-0.6,0.4-0.9c1.8,0.4,3.1-0.5,3.8-1.1c-0.4,0.4-0.7,0.8-1.1,1.2c-1.2,1.4-2.3,2.7-3.5,3.8
	c-0.6,0.6-1.2,1.2-1.7,1.7C397.8,109.4,398,108.7,398,108z M386.7,127.9L386.7,127.9L386.7,127.9
	C386.7,127.9,386.7,127.9,386.7,127.9z M382.9,149.2l0.3,0.4l-0.3,0.2C382.8,149.6,382.8,149.4,382.9,149.2z M382.9,149.8l0.3-0.2
	l0,0.1C383.2,149.8,383.1,149.8,382.9,149.8C383,149.9,383,149.9,382.9,149.8L382.9,149.8z M415.1,122.7c0.4-0.5,0.8-1.1,1.3-1.6
	c0.1,0.1,0.3,0.2,0.4,0.2c-0.7,0.6-1.4,1.2-2.1,1.9C414.8,123.1,414.9,122.9,415.1,122.7z M414.6,92.6c0.5-0.4,0.9-0.9,1-1.5
	c0-0.2,0-0.5,0-0.9l0-1.1c0.1-0.1,0.3-0.2,0.4-0.3c0,0,0.1,0,0.4,0.1c0.6,0.3,1.2,0.4,1.8,0.5c-0.9,0.9-1.8,1.7-2.7,2.5l-0.5,0.5
	c-1.7,1.5-3.5,3.1-5.2,4.7C411.3,95.5,412.8,93.9,414.6,92.6z M388,93.7c0.5-0.8,1.4-1.5,2.4-2.2c0.1,0,0.1-0.1,0.2-0.1
	C389.7,92.2,388.9,93,388,93.7z M406,135.9c0.2,0.2,0.4,0.6,0.4,1.1c0,0.3-0.1,0.6-0.3,0.8l-0.5-1.4L406,135.9z M408.6,133.3
	c0.2,0.2,0.3,0.3,0.6,0.5c0.2,0.1,0.5,0.3,0.8,0.3c-0.8,1.3-1.8,2.4-3,3.7c-0.1,0.1-0.1,0.1-0.1,0.2L408.6,133.3z M391.6,151.1
	l-1.8,0.3c0-0.2,0.1-0.5,0.2-0.7c0.3-0.2,0.8-0.3,1.2-0.3c0.3,0.1,0.6,0.2,0.8,0.4l-0.2,0.4L391.6,151.1z M363.1,120.1
	c0,0,0.1-0.1,0.1-0.2c0,0,0.1,0,0.1,0c0.2,0.1,0.4,0.2,0.6,0.2c-1.3,1.2-2.6,2.3-4,3.3c-0.1,0-0.1,0.1-0.2,0.1
	c1.1-1.1,2.2-2.2,3.2-3.3L363.1,120.1z M357.7,125.2c-0.8,0.6-1.5,1.3-2.2,1.9c-0.5,0.4-1,0.9-1.4,1.3c0,0,0,0,0,0
	c0.4-0.6,1.1-1.7,0.7-3.2C356,125.7,357,125.5,357.7,125.2z M345.4,130.4c0.1,0,0.1,0,0.2,0L345.4,130.4z M345.5,130.5
	C345.5,130.5,345.5,130.5,345.5,130.5c0-0.1,0-0.1,0-0.2L345.5,130.5z M352.9,145.9L352.9,145.9L352.9,145.9
	C352.9,146,352.9,146,352.9,145.9z M353.2,146.1L353.2,146.1L353.2,146.1C353.2,146.1,353.2,146.1,353.2,146.1L353.2,146.1z
	 M108.1,341.6c0.3-0.4,0.7-0.7,1.1-1.1c0.4,0.7,1.1,1.2,1.9,1.4c0.2,0,0.3,0,0.5,0l-3.1,2.4l0.9,0.1l-0.7,0.8
	c-0.1,0.1-0.2,0.2-0.3,0.3c-0.1,0.1-0.2,0.2-0.3,0.3c0.1-0.4,0.1-0.8,0.1-1.3L108.1,341.6z M131.1,385c-0.1,0.2-0.2,0.4-0.4,0.6
	c-0.7,0.9-1.5,1.9-2.2,2.8l-0.7,0.9c-0.1,0.1-0.1,0.2-0.2,0.2c0.2-0.3,0.4-0.6,0.6-1c0.3-0.3,0.5-0.8,0.5-1.5c0-0.5-0.2-1.2-0.8-1.9
	l-0.2-0.3l0.1-0.1c0.2-0.6,0.5-1.1,0.7-1.6c0,0.1,0.1,0.3,0.1,0.4l1,3L131.1,385z M98.3,354.9c0.3-0.1,0.5-0.2,0.7-0.2
	c-0.7,0.8-1.4,1.7-1.8,2.8l-0.9,2.3c-0.4,0-0.9,0-1.6,0.4l-0.5,0.2c0.2-0.4,0.4-0.8,0.6-1.1c0.1-0.2,0.2-0.3,0.2-0.5
	c0.2-0.4,0.9-1.6,0.1-3c-0.1-0.1-0.1-0.2-0.1-0.2c0-0.1,0.1-0.1,0.2-0.2l-0.1,0.3L98.3,354.9z M110,344.6l2.9,0.4
	c3,0.4,4.3-0.8,5.2-2l0.3-0.4c0.7-1,1-1.3,1.5-1.3c1-0.1,1.9-0.7,2.5-1.6c0.1-0.3,0.5-0.5,1-0.8c0.3-0.2,0.5-0.3,0.7-0.5
	c0.5-0.4,1.1-0.8,1.7-1.1c-0.3,0.6-0.7,1.1-1.6,1.7c-1.6,1-3.4,2.5-4,5.3c-3.6,0.3-5.6,2.6-7.1,4.8c-0.7,1-1.2,2.6,0.3,4.4
	c0.1,0.1,0.1,0.2,0.2,0.3c-2.1,2.4-3.6,4.8-4.6,7.3c-0.1,0.2-0.1,0.2-0.1,0.2c-0.1,0-0.4,0.1-1.1-0.2c-1.3-0.5-2.7-0.2-3.6,0.8
	c-1,1-1.2,2.6-0.6,4c0.3,0.7,0.7,1.3,1.2,2c0.3,0.4,0.4,0.6,0.5,0.8c0,0-0.1,0.1-0.1,0.1c-0.1,0.1-0.2,0.2-0.3,0.2
	c-0.9-1.1-1.9-1.7-2.8-2c0.3-0.8,0.1-1.9-0.6-2.6c-0.7-0.7-2.1-1-3-0.3c-1.2,0.9-2,2-2.8,3.2c-0.2,0.3-0.5,0.7-0.8,1.1
	c-0.6-0.5-1.3-1.1-2.2-1c0-0.1,0-0.2,0-0.3c-0.1-0.4-0.3-0.8-0.6-1.2l3.7-1.4c0.3-0.1,0.7-0.2,1.1-0.5c0.6-0.4,1-1,1-1.7
	c0,0,0-0.1,0-0.2c0-0.1,0-0.3-0.1-0.5l2.2-1.9c2.4-2.2,4.7-4.5,6.7-6.5c0.5-0.5,0.6-1,0.7-1.3l0.2-0.7l0,0.2l2.7-2.1
	c0.3-0.2,0.5-0.4,0.7-0.6c0.5-0.4,0.7-1,0.7-1.6c0-0.3-0.1-0.6-0.2-0.9c-0.3-0.6-0.9-1.1-1.6-1.2c-0.1,0-0.2,0-0.3,0L110,344.6z
	 M111.2,338.4c0.2-0.1,0.4-0.2,0.6-0.2c0.2,0,0.5,0.3,0.6,0.5c0.1,0.2,0.1,0.3,0.2,0.5l-0.3,0c-0.3-0.5-1-0.5-1.5-0.2l0,0h0l0,0
	c0,0.2-0.2,0.4-0.1,0.6c0.1,0.1,0.2,0.2,0.4,0.3l-0.4,0.2c-0.3-0.6-0.1-1.1,0.1-1.4C111,338.7,111.1,338.6,111.2,338.4z
	 M114.1,338.6c0.2,0.1,0.5,0.2,0.8,0.3c-0.2,0.2-0.4,0.4-0.6,0.6C114.3,339.2,114.2,338.9,114.1,338.6z M111.2,340
	c0.1,0.1,0.3,0.1,0.5,0.1l0.3,0.5c-0.2,0.1-0.4,0.2-0.6,0.1c-0.3-0.1-0.5-0.2-0.6-0.5L111.2,340z M147.5,352.9L147.5,352.9l0.2,0.2
	C147.6,353.1,147.5,353,147.5,352.9z M117.3,401.6c-0.3,0.7-0.5,0.9-0.8,1c-0.2,0-0.3,0.1-0.5,0.1
	C116.5,402.3,116.9,401.9,117.3,401.6z M101,403.8l0.2-0.9C101.2,403.3,101.1,403.6,101,403.8z M101.1,402.9l-0.8,0.2
	C100.5,402.9,100.7,402.9,101.1,402.9z M125.3,387.4L125.3,387.4l-0.2,0.2c0-0.1-0.1-0.2-0.1-0.2
	C125.1,387.4,125.2,387.4,125.3,387.4z M123.2,387.8C123.2,387.8,123.2,387.8,123.2,387.8C123.2,387.8,123.2,387.8,123.2,387.8
	C123.2,387.8,123.2,387.8,123.2,387.8z M102.8,390.9c-0.9,0.9-1.3,1.9-1.8,2.9c-0.1,0.3-0.3,0.6-0.4,0.9c-1.9-0.4-3.1,0.5-3.8,1.1
	c0.4-0.4,0.7-0.8,1.1-1.2c1.2-1.4,2.3-2.7,3.5-3.8c0.6-0.6,1.2-1.2,1.8-1.8C103,389.6,102.8,390.2,102.8,390.9z M117.9,349.8
	l-0.4-0.5c0.1-0.1,0.2-0.1,0.2-0.2c0,0,0.1,0,0.1,0C118,349.4,118,349.6,117.9,349.8z M85.7,376.2c-0.4,0.5-0.8,1-1.3,1.6
	c-0.1-0.1-0.3-0.2-0.4-0.2c0.7-0.6,1.4-1.2,2.1-1.9C86,375.9,85.9,376,85.7,376.2z M86.2,406.3c-0.5,0.4-0.9,0.9-1,1.5
	c0,0.2,0,0.4,0,0.7c0,0.1,0,0.1,0,0.2l0,1.1c-0.1,0.1-0.3,0.2-0.3,0.3c0,0-0.1,0-0.4-0.1c-0.6-0.3-1.2-0.4-1.8-0.5
	c0.9-0.9,1.8-1.7,2.7-2.5l0.5-0.5c1.7-1.5,3.5-3.1,5.2-4.7C89.5,403.5,88,405.1,86.2,406.3z M112.8,405.2c-0.5,0.8-1.4,1.5-2.4,2.2
	c-0.1,0-0.1,0.1-0.2,0.1C111.1,406.8,111.9,406,112.8,405.2z M143.3,357.1c-0.2,0.6-0.3,1.5,0.3,2.4c0.1,0.1,0.1,0.2,0.1,0.2
	c-0.1,0-0.1,0.1-0.2,0.1l-0.3,0.3c-0.9,0.8-1.9,1.6-2.8,2.3l-2.5,2c-1,0.8-2,1.6-3,2.4c-1.2,1-1.8,2.3-1.9,3.6c0,0.1,0,0.3,0,0.4
	c0,0.1,0,0.1,0,0.2l-0.9,0c-1.6,0-2.4,0.9-2.8,1.4l-0.1,0.2c-0.9,1-1.9,2-2.8,2.9l-1.7,1.9c-0.1,0.1-0.3,0.3-0.4,0.4
	c-0.6,0.6-0.6,0.6-1,0.5c-1.3-0.4-2.4,0.5-2.8,0.8c-0.4,0.4-1.1,0.9-1.6,1.8c-0.3-0.2-0.7-0.4-1.2-0.6c-1.6-0.5-3-0.1-4.2,1.1
	l-0.5,0.5c-0.4,0.4-0.8,0.8-1.1,1.1c0,0,0,0-0.1,0.1c-1.3-0.6-2.6-0.6-3.7,0c1-1.3,2-2.6,3-3.8c0.9-1.2,1.8-2.3,2.7-3.5l0.3-0.3
	c0.1-0.1,0.2-0.2,0.2-0.3c2.6-0.4,4-2,5.2-3.4c0.2-0.2,0.4-0.5,0.6-0.7c0.5-0.6,1-1.1,1.5-1.7c0.7-0.8,1.4-1.5,2.1-2.3
	c0.4-0.5,0.7-0.5,1.1-0.4c2.5,0.5,3.9-1,4.3-1.5l0.1-0.2c0.7-0.8,1.5-1.7,2.1-2.8c0.6-1.1,1.3-2,2-2.7c1.6-1.6,3.3-3.2,4.9-4.8
	l1.5-1.4c0.1-0.1,0.1-0.1,0.2-0.2c0.1,0.5,0.3,1.1,0.9,1.6l0.4,0.3l0.5,0.1c0.1,0,0.2,0,0.4,0.1
	C142.4,356.1,142.8,356.7,143.3,357.1z M94.8,363.1c-0.2-0.1-0.4-0.5-0.4-1c0,0,0-0.1,0-0.1c0-0.3,0.1-0.6,0.3-0.8l0.6,1.5
	L94.8,363.1z M92.2,365.6c-0.2-0.2-0.3-0.3-0.6-0.5c-0.2-0.1-0.5-0.3-0.8-0.3c0.8-1.3,1.8-2.4,3-3.7c0.1-0.1,0.1-0.1,0.1-0.2
	L92.2,365.6z M109.2,347.9L109.2,347.9C109.2,347.9,109.2,347.9,109.2,347.9L109.2,347.9l1.8-0.3c0,0.2-0.1,0.5-0.2,0.7
	c-0.3,0.2-0.8,0.3-1.2,0.3c-0.3-0.1-0.6-0.2-0.8-0.4l0.2-0.5L109.2,347.9z M137.7,378.9c0,0-0.1,0.1-0.1,0.1c0,0-0.1,0-0.1,0
	c-0.2-0.1-0.4-0.2-0.6-0.2c1.3-1.2,2.6-2.3,4-3.3c0.1,0,0.1-0.1,0.2-0.1c-1.1,1.1-2.2,2.2-3.2,3.3L137.7,378.9z M143.1,373.7
	c0.8-0.6,1.5-1.3,2.2-1.9c0.5-0.4,1-0.9,1.4-1.3c0,0,0,0,0,0c-0.3,0.5-0.8,1.3-0.8,2.3c0,0.3,0,0.6,0.1,0.9
	C144.8,373.3,143.8,373.4,143.1,373.7z M155.3,368.4C155.3,368.4,155.3,368.4,155.3,368.4c0,0.1,0,0.1,0,0.2L155.3,368.4z
	 M155.4,368.6L155.4,368.6c-0.1,0-0.1,0-0.2,0L155.4,368.6z M147.9,353c0,0-0.1,0.1-0.1,0.1l0,0l0,0c0,0,0,0-0.1,0v0L147.9,353
	C147.9,353,147.9,353,147.9,353z M147.6,352.9L147.6,352.9L147.6,352.9C147.5,352.9,147.5,352.8,147.6,352.9L147.6,352.9z
	 M276.3,305.3l1-0.1l0,0L276.3,305.3C276.3,305.3,276.3,305.3,276.3,305.3z M73.4,418.3c0.1,0.4,0.2,0.8,0.5,1.2c0,0,0,0,0,0
	c0,0,0,0-0.1,0.1l-0.2,0.2c-1.4,1.5-3.1,2.7-4.9,3.9c-0.7,0.5-1.3,0.9-2,1.4c0,0-0.1,0.1-0.1,0.1l-0.6-0.8
	C68.6,422.4,71.1,420.4,73.4,418.3z M369.5,344.5C369.5,344.5,369.5,344.5,369.5,344.5L369.5,344.5l-0.1,0l0,0l0,0l-0.1,0
	c0,0,0,0,0,0C369.4,344.5,369.5,344.5,369.5,344.5z M374.7,353.9c-0.2,0.6-0.3,1.1-0.3,1.5c0,0.5,0.1,1,0.3,1.4
	c-0.6-0.8-1.3-1.5-1.9-2.2c-0.4-0.5-0.9-1-1.3-1.4C372.1,353.6,373.2,354.3,374.7,353.9z M356.8,404.7c-0.1,0.1-0.2,0.1-0.2,0.1
	c-0.1,0-0.1-0.1-0.2-0.2l0.3,0.1l-0.8-3.1c-0.1-0.3-0.2-0.5-0.2-0.7c0.8,0.7,1.7,1.4,2.8,1.8l2.3,0.9c0,0.4,0,0.9,0.4,1.6l0.2,0.5
	c-0.4-0.2-0.8-0.4-1.1-0.6c-0.2-0.1-0.3-0.2-0.5-0.2C359.4,404.6,358.2,403.9,356.8,404.7z M342.5,391.8c-0.4-0.3-0.7-0.7-1.1-1.1
	c0.7-0.4,1.2-1.1,1.4-1.9c0-0.2,0-0.3,0-0.5l2.4,3.1l0.1-0.9l0.8,0.7c0.1,0.1,0.2,0.2,0.3,0.3c0.1,0.1,0.1,0.2,0.3,0.3
	c-0.4-0.1-0.8-0.1-1.3-0.1L342.5,391.8z M363.5,404.6l0.4,0.4c-0.2,0.2-0.6,0.4-1.2,0.4c-0.3,0-0.6-0.1-0.8-0.3L363.5,404.6z
	 M365.3,403.9c-0.1-0.3-0.2-0.7-0.5-1.1c-0.4-0.6-1-1-1.7-1c-0.2,0-0.4,0-0.6,0.1l-2-2.2c-2.2-2.4-4.5-4.7-6.5-6.7
	c-0.5-0.5-1-0.6-1.3-0.7L352,392l0.2,0l-2.1-2.7c-0.2-0.3-0.4-0.5-0.6-0.7c-0.6-0.7-1.7-1-2.5-0.5c-0.6,0.3-1.1,0.9-1.2,1.6
	c0,0.1,0,0.2,0,0.3l-0.3-0.1l0.4-2.9c0.4-3-0.8-4.3-2-5.2l-0.4-0.3c-1-0.7-1.3-1-1.3-1.5c-0.1-1-0.7-1.9-1.6-2.5
	c-0.3-0.1-0.5-0.5-0.8-1c-0.2-0.3-0.3-0.5-0.5-0.8c-0.4-0.5-0.8-1.1-1.1-1.7c0.6,0.3,1.1,0.7,1.7,1.6c1,1.6,2.5,3.4,5.3,4
	c0.3,3.6,2.6,5.6,4.8,7.1c1,0.7,2.6,1.2,4.4-0.3c0.1-0.1,0.2-0.1,0.3-0.2c2.4,2.1,4.8,3.6,7.3,4.6c0.2,0.1,0.3,0.1,0.3,0.1
	c0,0.1,0.1,0.4-0.2,1.1c-0.5,1.3-0.2,2.7,0.8,3.6c1,1,2.6,1.2,4,0.6c0.7-0.3,1.3-0.7,1.9-1.1l0.2-0.1c0.4-0.3,0.6-0.4,0.8-0.5
	c0,0,0,0.1,0.1,0.1c0.1,0.1,0.2,0.2,0.2,0.3c-1.1,0.9-1.7,1.9-2,2.8c-0.8-0.3-1.9-0.1-2.6,0.6c-0.7,0.7-1,2.1-0.3,3
	c0.9,1.2,2,2,3.2,2.8c0.3,0.2,0.7,0.5,1.1,0.8c-0.5,0.6-1.1,1.3-1,2.2c-0.1,0-0.2,0-0.3,0c-0.4,0.1-0.8,0.3-1.1,0.5L365.3,403.9z
	 M348.8,390.7l-0.3-1.8c0.2,0,0.5,0.1,0.7,0.2c0.2,0.3,0.3,0.8,0.3,1.2c-0.1,0.3-0.2,0.6-0.4,0.8l-0.4-0.2L348.8,390.7z M339.7,389
	c-0.1-0.1-0.2-0.2-0.3-0.3c-0.1-0.2-0.2-0.4-0.2-0.6c0-0.2,0.3-0.5,0.5-0.6c0.2-0.1,0.3-0.1,0.5-0.2l0,0.3c-0.5,0.3-0.5,1-0.2,1.5v0
	l0,0v0c0.2,0,0.4,0.2,0.6,0.1c0.3-0.1,0.4-0.5,0.4-0.8l0.5-0.3c0.1,0.2,0.2,0.4,0.1,0.6c-0.1,0.2-0.2,0.5-0.5,0.6
	C340.5,389.4,340,389.2,339.7,389z M406.2,387c0.8,0.5,1.5,1.4,2.2,2.4c0,0.1,0.1,0.1,0.1,0.2C407.7,388.8,406.9,387.9,406.2,387z
	 M353.8,352.3L353.8,352.3C353.8,352.4,353.8,352.3,353.8,352.3L353.8,352.3z M353.9,352L353.9,352c0.1,0,0.1,0.1,0.1,0.2
	c-0.1,0.1-0.2,0.2-0.2,0.2h0l0-0.1l0.2-0.1L353.9,352C353.9,352,353.9,351.9,353.9,352L353.9,352L353.9,352z M388.7,376.7
	C388.7,376.7,388.7,376.7,388.7,376.7C388.8,376.7,388.8,376.7,388.7,376.7C388.8,376.7,388.8,376.7,388.7,376.7z M388.3,374.6
	l0.2,0.2c-0.1,0-0.1,0.1-0.2,0.1C388.3,374.8,388.3,374.7,388.3,374.6z M371.9,366.8c0.1,0,0.1,0,0.2,0l0,0.9c0,0,0,0,0,0
	c0,1.6,1,2.4,1.4,2.8l0.2,0.1c1,0.9,2,1.9,3,2.8l1.8,1.7c0.1,0.1,0.3,0.3,0.4,0.4c0.6,0.6,0.6,0.6,0.5,1c-0.4,1.3,0.5,2.4,0.8,2.8
	c0.4,0.4,0.9,1.1,1.8,1.6c-0.2,0.3-0.4,0.7-0.6,1.2c-0.5,1.6-0.1,3,1.1,4.2l0.6,0.6c0.4,0.4,0.7,0.7,1.1,1.1c0,0,0,0,0.1,0.1
	c-0.3,0.7-0.5,1.3-0.5,1.9c0,0.6,0.1,1.2,0.4,1.7c-1.3-1-2.6-2-3.8-3.1c-1.2-0.9-2.3-1.8-3.5-2.7l-0.3-0.3c-0.1-0.1-0.2-0.2-0.3-0.2
	c-0.4-2.6-2-4-3.4-5.2c-0.2-0.2-0.5-0.4-0.7-0.6c-0.6-0.5-1.1-1-1.7-1.5c-0.8-0.7-1.5-1.4-2.3-2.1c-0.5-0.4-0.5-0.7-0.4-1.1
	c0.5-2.5-1-3.9-1.5-4.3l-0.2-0.1c-0.8-0.7-1.7-1.5-2.8-2.1c-1.1-0.6-2-1.3-2.7-2c-1.6-1.7-3.3-3.4-4.9-5.1l-1.3-1.4
	c-0.1-0.1-0.1-0.1-0.2-0.2c0.5-0.1,1.1-0.3,1.6-0.9l0.3-0.4l0.1-0.5c0-0.1,0-0.2,0.1-0.4c0.7,0,1.3-0.4,1.7-1
	c0.6,0.2,1.5,0.3,2.4-0.3c0.1-0.1,0.2-0.1,0.2-0.1c0,0.1,0.1,0.1,0.1,0.2l0.3,0.3c0.8,0.9,1.6,1.9,2.3,2.8l2,2.5
	c0.8,1,1.6,2.1,2.5,3C369,366.3,370.3,367,371.9,366.8z M371.9,385.7L371.9,385.7C371.9,385.7,371.9,385.7,371.9,385.7L371.9,385.7z
	 M394.7,398.8c0.3,0.1,0.6,0.3,0.9,0.4c-0.4,1.9,0.5,3.1,1.1,3.8c-0.4-0.4-0.8-0.7-1.2-1.1c-1.4-1.2-2.6-2.3-3.8-3.5
	c-0.6-0.6-1.2-1.2-1.7-1.8c0.6,0.2,1.2,0.3,1.9,0.3C392.7,397.9,393.8,398.4,394.7,398.8z M350,382c0.3-0.2,0.5-0.2,0.6-0.1
	l-0.5,0.4C350.1,382.3,350.1,382.2,350,382C350,382.1,350,382,350,382z M407.4,414.1c-1.5-1.7-3.1-3.5-4.7-5.2
	c1.7,1.5,3.3,3,4.5,4.9c0.4,0.5,0.9,0.9,1.5,1c0.2,0,0.5,0,0.9,0l1.1,0c0.1,0.1,0.2,0.3,0.3,0.3c0,0,0,0.1-0.1,0.4
	c-0.3,0.6-0.4,1.2-0.5,1.8c-0.9-0.9-1.7-1.8-2.5-2.7L407.4,414.1z M404.7,398.9l-0.9-0.2C404.2,398.7,404.5,398.8,404.7,398.9z
	 M403.8,398.8l0.2,0.8C403.9,399.4,403.8,399.1,403.8,398.8L403.8,398.8z M377.2,414.2c0.5,0.4,1,0.8,1.6,1.3
	c-0.1,0.1-0.2,0.3-0.2,0.4c-0.6-0.7-1.2-1.4-1.9-2.1C376.8,413.8,377,414,377.2,414.2z M402.5,382.6c0.7,0.3,0.9,0.5,1,0.8
	c0,0.2,0.1,0.3,0.1,0.5C403.2,383.4,402.9,383,402.5,382.6z M386.1,372l-0.3,0.2l-0.1-0.1c-0.6-0.2-1.1-0.5-1.6-0.7
	c0.1,0,0.3-0.1,0.4-0.1l3-1l-1.6-1.4c0.2,0.1,0.4,0.2,0.6,0.4c1,0.7,1.9,1.5,2.8,2.2l0.9,0.7c0.1,0.1,0.1,0.1,0.2,0.2
	c-0.3-0.2-0.6-0.4-0.9-0.6C388.9,371.3,387.7,370.7,386.1,372z M340.4,385.6c-0.3,0-0.6,0.1-0.9,0.2c0.1-0.2,0.2-0.5,0.3-0.8
	C340,385.2,340.2,385.4,340.4,385.6z M366.6,407.7c-0.2,0.2-0.3,0.3-0.5,0.6c-0.1,0.2-0.3,0.5-0.3,0.8c-1.3-0.8-2.4-1.8-3.7-3
	c-0.1-0.1-0.1-0.1-0.2-0.1L366.6,407.7z M420.5,426.1l0.2,0.2c1.5,1.4,2.7,3.1,3.9,4.9c0.5,0.7,0.9,1.3,1.4,2c0,0,0.1,0.1,0.1,0.1
	l-0.9,0.5c-2-2.5-4-4.9-6-7.2c0.4-0.1,0.8-0.2,1.2-0.5C420.4,426,420.5,426,420.5,426.1C420.5,426,420.5,426,420.5,426.1z
	 M379.6,362l0.2,0.2c0,0,0.1,0.1,0.2,0.1c0,0,0,0.1,0,0.1c-0.1,0.2-0.2,0.4-0.2,0.6c-1.2-1.3-2.3-2.6-3.3-4c0-0.1-0.1-0.1-0.1-0.2
	C377.4,360,378.5,361,379.6,362z M427.4,80.6c-0.1-0.4-0.2-0.8-0.5-1.2c0,0,0,0,0,0c0,0,0,0,0.1-0.1l0.2-0.2
	c1.4-1.5,3.1-2.7,4.9-3.9c0.7-0.5,1.3-1,2-1.4c0,0,0.1-0.1,0.1-0.1l0.5,0.9C432.1,76.6,429.7,78.6,427.4,80.6z M50.8,68.9l-0.5,0.4
	c0-0.1-0.1-0.1-0.1-0.2l0.4-0.4C50.7,68.8,50.8,68.8,50.8,68.9z M30.4,434.2c-0.2,0.2-0.6,0.4-1.1,0.4c-0.2,0-0.3,0-0.5-0.1l0.6-0.8
	l1.1,0.3C30.5,434.1,30.5,434.2,30.4,434.2z M63.5,426.9c0-0.2,0.1-0.4,0.1-0.6c0.1,0,0.1-0.1,0.2-0.1l0.5,1l-0.6,0.4
	C63.6,427.4,63.5,427.1,63.5,426.9z M69.8,449.1l0.4,0.5c-0.1,0-0.1,0.1-0.2,0.1l-0.4-0.4C69.7,449.2,69.7,449.1,69.8,449.1z
	 M430.2,467L430.2,467c-0.1-0.1-0.1-0.1-0.1-0.2l0.1,0c0,0.1,0.1,0.1,0.1,0.2L430.2,467z M435.6,470.6c0,0.2,0,0.3-0.1,0.5l-0.8-0.6
	l0-0.2l0.6-0.5C435.5,469.9,435.6,470.2,435.6,470.6z M435.2,469.4c0.1,0.1,0.1,0.2,0.2,0.3l-0.6,0.5l0.3-0.9
	C435.1,469.4,435.1,469.4,435.2,469.4z M431.9,466.6L431.9,466.6L431.9,466.6L431.9,466.6z M450,430.1l0.5-0.4
	c0,0.1,0.1,0.1,0.1,0.2l-0.4,0.4C450.1,430.2,450,430.1,450,430.1z M470.4,64.7c0.2-0.2,0.6-0.5,1.1-0.5c0.2,0,0.3,0,0.5,0.1
	l-0.6,0.8l-1.1-0.3C470.3,64.8,470.3,64.8,470.4,64.7z M437.1,72.6c-0.1,0-0.1,0.1-0.2,0.1l-0.5-1l0.6-0.4
	C437.3,71.8,437.3,72.2,437.1,72.6z M431,49.9l-0.4-0.5c0.1,0,0.1-0.1,0.2-0.1l0.4,0.4C431.1,49.8,431.1,49.8,431,49.9z"/>
</svg>
